<svg width="24" height="24" viewBox="0 0 24 24" fill="none" xmlns="http://www.w3.org/2000/svg">
<path d="M23.6406 14.9029C22.0377 21.3315 15.5259 25.2438 9.09593 23.6407C2.66856 22.038 -1.2442 15.5266 0.359457 9.09838C1.96161 2.66907 8.47337 -1.24364 14.9015 0.359095C21.3311 1.96183 25.2435 8.47401 23.6406 14.9029Z" fill="#F7931A"/>
<path d="M17.2917 10.2919C17.5306 8.6952 16.3147 7.83683 14.6522 7.26421L15.1915 5.10123L13.8747 4.77311L13.3497 6.87909C13.0035 6.79284 12.648 6.71147 12.2947 6.63084L12.8235 4.51098L11.5075 4.18286L10.9678 6.34509C10.6813 6.27984 10.4 6.21535 10.127 6.14747L10.1285 6.14072L8.31257 5.68734L7.96229 7.09358C7.96229 7.09358 8.93926 7.31745 8.91863 7.33133C9.45193 7.46445 9.54831 7.81732 9.53218 8.09707L8.91788 10.5612C8.95463 10.5705 9.00227 10.584 9.05477 10.605C9.01089 10.5942 8.96401 10.5822 8.91563 10.5705L8.05454 14.0224C7.98929 14.1844 7.8239 14.4274 7.45112 14.3351C7.46424 14.3543 6.49402 14.0963 6.49402 14.0963L5.84033 15.6034L7.55387 16.0305C7.87265 16.1104 8.18505 16.194 8.49258 16.2727L7.94767 18.4605L9.26291 18.7886L9.80259 16.6241C10.1619 16.7216 10.5107 16.8116 10.8519 16.8964L10.3141 19.0507L11.6309 19.3788L12.1758 17.1952C14.4212 17.6201 16.1096 17.4487 16.8203 15.4181C17.3929 13.7831 16.7918 12.84 15.6104 12.225C16.4707 12.0267 17.1188 11.4608 17.2917 10.2919ZM14.2831 14.5103C13.8762 16.1452 11.1231 15.2614 10.2305 15.0398L10.9536 12.1414C11.8462 12.3642 14.7084 12.8052 14.2831 14.5103ZM14.6904 10.2683C14.3191 11.7555 12.0277 10.9999 11.2844 10.8147L11.9399 8.18595C12.6832 8.3712 15.0771 8.71694 14.6904 10.2683Z" fill="white"/>
</svg>
