<svg width="90" height="40" viewBox="0 0 90 40" fill="none" xmlns="http://www.w3.org/2000/svg">
<path d="M8.928 30.32C6.688 30.32 4.78933 29.552 3.232 28.016C1.696 26.4587 0.928 24.528 0.928 22.224C0.928 19.8773 1.67467 17.9787 3.168 16.528C4.68267 15.0773 6.56 14.3413 8.8 14.32C10.464 14.2987 11.9147 14.7253 13.152 15.6C14.4107 16.4533 15.04 17.3493 15.04 18.288C15.04 19.056 14.6133 19.4293 13.76 19.408C13.3547 19.3867 12.9707 19.1733 12.608 18.768C12.2667 18.3413 11.9573 17.8827 11.68 17.392C11.424 16.88 10.9973 16.4107 10.4 15.984C9.824 15.5573 9.12 15.344 8.288 15.344C6.96533 15.344 5.87733 15.888 5.024 16.976C4.17067 18.0427 3.744 19.376 3.744 20.976C3.744 23.1947 4.30933 24.976 5.44 26.32C6.57067 27.6427 8.032 28.304 9.824 28.304C10.8693 28.304 11.7653 28.0267 12.512 27.472C13.28 26.896 13.8667 26.1707 14.272 25.296C14.4 25.04 14.6027 24.944 14.88 25.008C15.1573 25.072 15.264 25.2533 15.2 25.552C14.944 26.8533 14.2613 27.9733 13.152 28.912C12.064 29.8507 10.656 30.32 8.928 30.32ZM17.8865 30C17.4812 30 17.2785 29.8613 17.2785 29.584V29.488C17.2785 29.3173 17.4598 29.0933 17.8225 28.816C18.2065 28.5173 18.3985 28.1653 18.3985 27.76V9.776C18.3985 9.41333 18.3025 9.11467 18.1105 8.88C17.9398 8.624 17.7585 8.42133 17.5665 8.272C17.3745 8.12267 17.2785 7.984 17.2785 7.856V7.792C17.2785 7.62133 17.4278 7.45067 17.7265 7.28L20.2225 6.064C20.5425 5.936 20.7878 5.92533 20.9585 6.032C21.1292 6.11733 21.2145 6.27733 21.2145 6.512V27.76C21.2145 28.1653 21.4172 28.5173 21.8225 28.816C22.2492 29.0933 22.4625 29.3173 22.4625 29.488V29.584C22.4625 29.8613 22.2492 30 21.8225 30H17.8865Z" fill="#0C1142"/>
<path d="M55.152 14.32C56.0693 14.32 56.784 14.5547 57.296 15.024C57.8293 15.4933 58.096 16.08 58.096 16.784C58.096 17.7867 57.6693 18.288 56.816 18.288C56.4533 18.288 56.1653 18.1707 55.952 17.936C55.7387 17.7013 55.5893 17.4453 55.504 17.168C55.44 16.8907 55.28 16.6347 55.024 16.4C54.768 16.1653 54.416 16.048 53.968 16.048C53.1147 16.048 52.4427 16.4747 51.952 17.328C51.4827 18.16 51.248 19.2053 51.248 20.464V27.76C51.248 28.1867 51.472 28.5493 51.92 28.848C52.368 29.1253 52.592 29.3387 52.592 29.488V29.616C52.592 29.872 52.3787 30 51.952 30H47.984C47.5573 30 47.344 29.872 47.344 29.616V29.488C47.344 29.3387 47.536 29.1253 47.92 28.848C48.3253 28.5493 48.528 28.1867 48.528 27.76V18.032C48.528 17.584 48.3147 17.2 47.888 16.88C47.4613 16.56 47.248 16.3253 47.248 16.176V16.112C47.248 15.8987 47.408 15.7067 47.728 15.536L50.16 14.448C50.7147 14.192 50.992 14.3413 50.992 14.896V17.456C51.7173 15.3653 53.104 14.32 55.152 14.32ZM72.682 25.808C73.0873 25.808 73.2153 26.032 73.066 26.48L72.202 29.328C72.0527 29.776 71.7967 30 71.434 30H59.69C59.5193 30 59.37 29.9467 59.242 29.84C59.114 29.712 59.05 29.5733 59.05 29.424V29.232C59.05 29.104 59.1887 28.816 59.466 28.368L68.97 15.6H63.05C62.6873 15.6 62.3353 15.76 61.994 16.08C61.674 16.4 61.418 16.7627 61.226 17.168C61.034 17.552 60.81 17.904 60.554 18.224C60.3193 18.544 60.0847 18.704 59.85 18.704H59.722C59.2953 18.704 59.1673 18.448 59.338 17.936L60.138 15.344C60.3087 14.8747 60.586 14.64 60.97 14.64H71.466C71.6153 14.64 71.7433 14.6933 71.85 14.8C71.978 14.9067 72.042 15.0453 72.042 15.216V15.504C72.042 15.6747 71.8713 15.984 71.53 16.432L62.058 29.04H69.002C69.4287 29.04 69.8233 28.8693 70.186 28.528C70.5487 28.1867 70.8367 27.824 71.05 27.44C71.2633 27.0347 71.498 26.6613 71.754 26.32C72.0313 25.9787 72.2873 25.808 72.522 25.808H72.682ZM87.8048 27.44C87.8474 27.888 87.9648 28.24 88.1568 28.496C88.3488 28.7307 88.5514 28.88 88.7648 28.944C88.9781 28.9867 89.1701 29.0507 89.3408 29.136C89.5114 29.2213 89.5968 29.3493 89.5968 29.52C89.5968 29.968 88.9141 30.192 87.5488 30.192C86.7808 30.192 86.2154 30.0533 85.8528 29.776C85.4901 29.4773 85.2768 28.912 85.2128 28.08C84.4021 29.5733 82.8661 30.32 80.6048 30.32C78.8128 30.32 77.3728 29.8933 76.2848 29.04C75.1968 28.1867 74.6528 27.0027 74.6528 25.488C74.6314 23.9947 75.1648 22.832 76.2528 22C77.3621 21.168 78.7808 20.752 80.5088 20.752C82.2154 20.752 83.5274 21.1787 84.4448 22.032L84.3808 21.168C84.1888 19.2053 83.7941 17.744 83.1968 16.784C82.5994 15.824 81.6821 15.344 80.4448 15.344C79.6981 15.344 79.0794 15.536 78.5888 15.92C78.0981 16.304 77.7568 16.72 77.5648 17.168C77.3941 17.616 77.1808 18.032 76.9248 18.416C76.6688 18.8 76.3701 18.992 76.0288 18.992C75.6448 18.992 75.3354 18.8853 75.1008 18.672C74.8874 18.4587 74.7808 18.1707 74.7808 17.808C74.7808 16.912 75.3034 16.112 76.3488 15.408C77.4154 14.6827 78.7808 14.32 80.4448 14.32C82.3861 14.32 83.9328 14.9173 85.0848 16.112C86.2581 17.2853 86.9514 18.9387 87.1648 21.072L87.8048 27.44ZM81.3088 29.296C82.3541 29.296 83.2074 28.9653 83.8688 28.304C84.5301 27.6213 84.8394 26.7787 84.7968 25.776L84.6688 24.336C84.4981 23.568 84.0928 22.9493 83.4528 22.48C82.8341 22.0107 82.0661 21.776 81.1488 21.776C80.0608 21.776 79.1754 22.0853 78.4928 22.704C77.8101 23.3227 77.4688 24.1227 77.4688 25.104C77.4688 26.2987 77.8208 27.3013 78.5248 28.112C79.2501 28.9013 80.1781 29.296 81.3088 29.296Z" fill="#0C1142"/>
<circle cx="35" cy="22" r="8" stroke="#5564F5" stroke-width="2"/>
<circle opacity="0.64" cx="35" cy="22" r="4" stroke="#5564F5" stroke-width="2"/>
</svg>
