<svg width="24" height="24" viewBox="0 0 24 24" fill="none" xmlns="http://www.w3.org/2000/svg">
<circle cx="12" cy="12" r="12" fill="#0C1142" fill-opacity="0.08"/>
<path d="M12.4735 12.86C12.4101 12.7993 12.3353 12.7517 12.2535 12.72C12.0911 12.6533 11.9091 12.6533 11.7468 12.72C11.665 12.7517 11.5902 12.7993 11.5268 12.86L9.86012 14.5267C9.73459 14.6522 9.66406 14.8225 9.66406 15C9.66406 15.1775 9.73459 15.3478 9.86012 15.4733C9.98566 15.5989 10.1559 15.6694 10.3335 15.6694C10.511 15.6694 10.6813 15.5989 10.8068 15.4733L11.3335 14.94V18C11.3335 18.1768 11.4037 18.3464 11.5287 18.4714C11.6537 18.5964 11.8233 18.6667 12.0001 18.6667C12.1769 18.6667 12.3465 18.5964 12.4715 18.4714C12.5966 18.3464 12.6668 18.1768 12.6668 18V14.94L13.1935 15.4733C13.2554 15.5358 13.3292 15.5854 13.4104 15.6193C13.4916 15.6531 13.5788 15.6705 13.6668 15.6705C13.7548 15.6705 13.8419 15.6531 13.9232 15.6193C14.0044 15.5854 14.0781 15.5358 14.1401 15.4733C14.2026 15.4114 14.2522 15.3376 14.2861 15.2564C14.3199 15.1751 14.3373 15.088 14.3373 15C14.3373 14.912 14.3199 14.8249 14.2861 14.7436C14.2522 14.6624 14.2026 14.5886 14.1401 14.5267L12.4735 12.86ZM11.5268 11.14C11.5902 11.2007 11.665 11.2483 11.7468 11.28C11.8266 11.3153 11.9129 11.3335 12.0001 11.3335C12.0874 11.3335 12.1737 11.3153 12.2535 11.28C12.3353 11.2483 12.4101 11.2007 12.4735 11.14L14.1401 9.47333C14.2023 9.41117 14.2516 9.33738 14.2852 9.25617C14.3189 9.17495 14.3362 9.08791 14.3362 9C14.3362 8.91209 14.3189 8.82505 14.2852 8.74383C14.2516 8.66262 14.2023 8.58883 14.1401 8.52667C14.078 8.46451 14.0042 8.4152 13.923 8.38156C13.8417 8.34792 13.7547 8.33061 13.6668 8.33061C13.5789 8.33061 13.4918 8.34792 13.4106 8.38156C13.3294 8.4152 13.2556 8.46451 13.1935 8.52667L12.6668 9.06V6C12.6668 5.82319 12.5966 5.65362 12.4715 5.5286C12.3465 5.40357 12.1769 5.33333 12.0001 5.33333C11.8233 5.33333 11.6537 5.40357 11.5287 5.5286C11.4037 5.65362 11.3335 5.82319 11.3335 6V9.06L10.8068 8.52667C10.7446 8.46451 10.6708 8.4152 10.5896 8.38156C10.5084 8.34792 10.4214 8.33061 10.3335 8.33061C10.1559 8.33061 9.98566 8.40113 9.86012 8.52667C9.79796 8.58883 9.74866 8.66262 9.71502 8.74383C9.68138 8.82505 9.66406 8.91209 9.66406 9C9.66406 9.17753 9.73459 9.3478 9.86012 9.47333L11.5268 11.14Z" fill="#0C1142"/>
</svg>
