<svg width="20" height="20" viewBox="0 0 20 20" fill="none" xmlns="http://www.w3.org/2000/svg">
<path d="M15.2564 7.5H8.91026C8.13139 7.5 7.5 8.13139 7.5 8.91026V15.2564C7.5 16.0353 8.13139 16.6667 8.91026 16.6667H15.2564C16.0353 16.6667 16.6667 16.0353 16.6667 15.2564V8.91026C16.6667 8.13139 16.0353 7.5 15.2564 7.5Z" stroke="#5564F5" stroke-width="2" stroke-linecap="round" stroke-linejoin="round"/>
<path d="M5.44864 12.4999H4.74351C4.36948 12.4999 4.01078 12.3513 3.74631 12.0869C3.48183 11.8224 3.33325 11.4637 3.33325 11.0897V4.74351C3.33325 4.36948 3.48183 4.01078 3.74631 3.74631C4.01078 3.48183 4.36948 3.33325 4.74351 3.33325H11.0897C11.4637 3.33325 11.8224 3.48183 12.0869 3.74631C12.3513 4.01078 12.4999 4.36948 12.4999 4.74351V5.44864" stroke="#5564F5" stroke-width="2" stroke-linecap="round" stroke-linejoin="round"/>
</svg>
