<svg width="20" height="20" viewBox="0 0 20 20" fill="none" xmlns="http://www.w3.org/2000/svg">
<path d="M16.9279 7.28845V6.40577C16.9299 5.52575 16.5812 4.68117 15.959 4.0589C15.3367 3.43662 14.4921 3.08794 13.6121 3.08997H12.975M3.11207 7.28845V6.40577C3.11004 5.52708 3.45767 4.68367 4.07828 4.06162C4.6989 3.43957 5.54149 3.08998 6.42019 3.08998H7.08796M16.9279 10.658V13.59C16.9299 14.47 16.5812 15.3146 15.959 15.9369C15.3367 16.5591 14.4921 16.9078 13.6121 16.9058H12.975M3.11207 10.658V13.59C3.11003 14.47 3.45872 15.3146 4.08099 15.9369C4.70327 16.5591 5.54784 16.9078 6.42787 16.9058H7.08796" stroke="#0C1142" stroke-width="1.5" stroke-linecap="round" stroke-linejoin="round"/>
<path d="M18.4093 10.6576H1.6001" stroke="#0C1142" stroke-width="1.5" stroke-linecap="round" stroke-linejoin="round"/>
</svg>
