<svg width="25" height="24" viewBox="0 0 25 24" fill="none" xmlns="http://www.w3.org/2000/svg">
<path d="M21.1763 8.82105V7.76184C21.1788 6.70581 20.7604 5.69232 20.0136 4.94559C19.2669 4.19886 18.2534 3.78044 17.1974 3.78288H16.4329M4.59736 8.82105V7.76184C4.59493 6.70741 5.01208 5.69532 5.75682 4.94886C6.50156 4.20239 7.51267 3.78289 8.56711 3.78289H9.36842M21.1763 12.8645V16.3829C21.1788 17.4389 20.7604 18.4524 20.0136 19.1991C19.2669 19.9459 18.2534 20.3643 17.1974 20.3619H16.4329M4.59736 12.8645V16.3829C4.59492 17.4389 5.01334 18.4524 5.76007 19.1991C6.5068 19.9459 7.52029 20.3643 8.57632 20.3619H9.36842" stroke="#ADB0B9" stroke-width="1.5" stroke-linecap="round" stroke-linejoin="round"/>
<path d="M22.954 12.864H2.78302" stroke="#ADB0B9" stroke-width="1.5" stroke-linecap="round" stroke-linejoin="round"/>
</svg>
