<svg width="160" height="160" viewBox="0 0 160 160" fill="none" xmlns="http://www.w3.org/2000/svg">
<rect width="160" height="160" rx="16" fill="white"/>
<path d="M160 0H0V160H160V0Z" fill="white"/>
<path d="M50.9092 13.5758C51.7125 13.5758 52.3637 12.9246 52.3637 12.1213C52.3637 11.318 51.7125 10.6667 50.9092 10.6667C50.1058 10.6667 49.4546 11.318 49.4546 12.1213C49.4546 12.9246 50.1058 13.5758 50.9092 13.5758Z" fill="#0C1142"/>
<path d="M55.7575 13.5758C56.5608 13.5758 57.2121 12.9246 57.2121 12.1213C57.2121 11.318 56.5608 10.6667 55.7575 10.6667C54.9542 10.6667 54.303 11.318 54.303 12.1213C54.303 12.9246 54.9542 13.5758 55.7575 13.5758Z" fill="#0C1142"/>
<path d="M60.6062 13.5758C61.4095 13.5758 62.0607 12.9246 62.0607 12.1213C62.0607 11.318 61.4095 10.6667 60.6062 10.6667C59.8028 10.6667 59.1516 11.318 59.1516 12.1213C59.1516 12.9246 59.8028 13.5758 60.6062 13.5758Z" fill="#0C1142"/>
<path d="M75.1516 13.5758C75.9549 13.5758 76.6061 12.9246 76.6061 12.1213C76.6061 11.318 75.9549 10.6667 75.1516 10.6667C74.3482 10.6667 73.697 11.318 73.697 12.1213C73.697 12.9246 74.3482 13.5758 75.1516 13.5758Z" fill="#0C1142"/>
<path d="M80 13.5758C80.8033 13.5758 81.4545 12.9246 81.4545 12.1213C81.4545 11.318 80.8033 10.6667 80 10.6667C79.1966 10.6667 78.5454 11.318 78.5454 12.1213C78.5454 12.9246 79.1966 13.5758 80 13.5758Z" fill="#0C1142"/>
<path d="M84.8483 13.5758C85.6517 13.5758 86.3029 12.9246 86.3029 12.1213C86.3029 11.318 85.6517 10.6667 84.8483 10.6667C84.045 10.6667 83.3938 11.318 83.3938 12.1213C83.3938 12.9246 84.045 13.5758 84.8483 13.5758Z" fill="#0C1142"/>
<path d="M99.394 13.5758C100.197 13.5758 100.849 12.9246 100.849 12.1213C100.849 11.318 100.197 10.6667 99.394 10.6667C98.5907 10.6667 97.9395 11.318 97.9395 12.1213C97.9395 12.9246 98.5907 13.5758 99.394 13.5758Z" fill="#0C1142"/>
<path d="M50.9092 18.4242C51.7125 18.4242 52.3637 17.773 52.3637 16.9697C52.3637 16.1664 51.7125 15.5151 50.9092 15.5151C50.1058 15.5151 49.4546 16.1664 49.4546 16.9697C49.4546 17.773 50.1058 18.4242 50.9092 18.4242Z" fill="#0C1142"/>
<path d="M55.7575 18.4242C56.5608 18.4242 57.2121 17.773 57.2121 16.9697C57.2121 16.1664 56.5608 15.5151 55.7575 15.5151C54.9542 15.5151 54.303 16.1664 54.303 16.9697C54.303 17.773 54.9542 18.4242 55.7575 18.4242Z" fill="#0C1142"/>
<path d="M60.6062 18.4242C61.4095 18.4242 62.0607 17.773 62.0607 16.9697C62.0607 16.1664 61.4095 15.5151 60.6062 15.5151C59.8028 15.5151 59.1516 16.1664 59.1516 16.9697C59.1516 17.773 59.8028 18.4242 60.6062 18.4242Z" fill="#0C1142"/>
<path d="M65.4545 18.4242C66.2579 18.4242 66.9091 17.773 66.9091 16.9697C66.9091 16.1664 66.2579 15.5151 65.4545 15.5151C64.6512 15.5151 64 16.1664 64 16.9697C64 17.773 64.6512 18.4242 65.4545 18.4242Z" fill="#0C1142"/>
<path d="M70.3029 18.4242C71.1063 18.4242 71.7575 17.773 71.7575 16.9697C71.7575 16.1664 71.1063 15.5151 70.3029 15.5151C69.4996 15.5151 68.8484 16.1664 68.8484 16.9697C68.8484 17.773 69.4996 18.4242 70.3029 18.4242Z" fill="#0C1142"/>
<path d="M75.1516 18.4242C75.9549 18.4242 76.6061 17.773 76.6061 16.9697C76.6061 16.1664 75.9549 15.5151 75.1516 15.5151C74.3482 15.5151 73.697 16.1664 73.697 16.9697C73.697 17.773 74.3482 18.4242 75.1516 18.4242Z" fill="#0C1142"/>
<path d="M80 18.4242C80.8033 18.4242 81.4545 17.773 81.4545 16.9697C81.4545 16.1664 80.8033 15.5151 80 15.5151C79.1966 15.5151 78.5454 16.1664 78.5454 16.9697C78.5454 17.773 79.1966 18.4242 80 18.4242Z" fill="#0C1142"/>
<path d="M84.8483 18.4242C85.6517 18.4242 86.3029 17.773 86.3029 16.9697C86.3029 16.1664 85.6517 15.5151 84.8483 15.5151C84.045 15.5151 83.3938 16.1664 83.3938 16.9697C83.3938 17.773 84.045 18.4242 84.8483 18.4242Z" fill="#0C1142"/>
<path d="M94.5454 18.4242C95.3487 18.4242 95.9999 17.773 95.9999 16.9697C95.9999 16.1664 95.3487 15.5151 94.5454 15.5151C93.742 15.5151 93.0908 16.1664 93.0908 16.9697C93.0908 17.773 93.742 18.4242 94.5454 18.4242Z" fill="#0C1142"/>
<path d="M99.394 18.4242C100.197 18.4242 100.849 17.773 100.849 16.9697C100.849 16.1664 100.197 15.5151 99.394 15.5151C98.5907 15.5151 97.9395 16.1664 97.9395 16.9697C97.9395 17.773 98.5907 18.4242 99.394 18.4242Z" fill="#0C1142"/>
<path d="M104.242 18.4242C105.046 18.4242 105.697 17.773 105.697 16.9697C105.697 16.1664 105.046 15.5151 104.242 15.5151C103.439 15.5151 102.788 16.1664 102.788 16.9697C102.788 17.773 103.439 18.4242 104.242 18.4242Z" fill="#0C1142"/>
<path d="M109.091 18.4242C109.894 18.4242 110.545 17.773 110.545 16.9697C110.545 16.1664 109.894 15.5151 109.091 15.5151C108.287 15.5151 107.636 16.1664 107.636 16.9697C107.636 17.773 108.287 18.4242 109.091 18.4242Z" fill="#0C1142"/>
<path d="M50.9092 23.2726C51.7125 23.2726 52.3637 22.6214 52.3637 21.8181C52.3637 21.0147 51.7125 20.3635 50.9092 20.3635C50.1058 20.3635 49.4546 21.0147 49.4546 21.8181C49.4546 22.6214 50.1058 23.2726 50.9092 23.2726Z" fill="#0C1142"/>
<path d="M55.7575 23.2726C56.5608 23.2726 57.2121 22.6214 57.2121 21.8181C57.2121 21.0147 56.5608 20.3635 55.7575 20.3635C54.9542 20.3635 54.303 21.0147 54.303 21.8181C54.303 22.6214 54.9542 23.2726 55.7575 23.2726Z" fill="#0C1142"/>
<path d="M60.6062 23.2726C61.4095 23.2726 62.0607 22.6214 62.0607 21.8181C62.0607 21.0147 61.4095 20.3635 60.6062 20.3635C59.8028 20.3635 59.1516 21.0147 59.1516 21.8181C59.1516 22.6214 59.8028 23.2726 60.6062 23.2726Z" fill="#0C1142"/>
<path d="M65.4545 23.2726C66.2579 23.2726 66.9091 22.6214 66.9091 21.8181C66.9091 21.0147 66.2579 20.3635 65.4545 20.3635C64.6512 20.3635 64 21.0147 64 21.8181C64 22.6214 64.6512 23.2726 65.4545 23.2726Z" fill="#0C1142"/>
<path d="M75.1516 23.2726C75.9549 23.2726 76.6061 22.6214 76.6061 21.8181C76.6061 21.0147 75.9549 20.3635 75.1516 20.3635C74.3482 20.3635 73.697 21.0147 73.697 21.8181C73.697 22.6214 74.3482 23.2726 75.1516 23.2726Z" fill="#0C1142"/>
<path d="M80 23.2726C80.8033 23.2726 81.4545 22.6214 81.4545 21.8181C81.4545 21.0147 80.8033 20.3635 80 20.3635C79.1966 20.3635 78.5454 21.0147 78.5454 21.8181C78.5454 22.6214 79.1966 23.2726 80 23.2726Z" fill="#0C1142"/>
<path d="M109.091 23.2726C109.894 23.2726 110.545 22.6214 110.545 21.8181C110.545 21.0147 109.894 20.3635 109.091 20.3635C108.287 20.3635 107.636 21.0147 107.636 21.8181C107.636 22.6214 108.287 23.2726 109.091 23.2726Z" fill="#0C1142"/>
<path d="M55.7575 28.1212C56.5608 28.1212 57.2121 27.47 57.2121 26.6667C57.2121 25.8634 56.5608 25.2122 55.7575 25.2122C54.9542 25.2122 54.303 25.8634 54.303 26.6667C54.303 27.47 54.9542 28.1212 55.7575 28.1212Z" fill="#0C1142"/>
<path d="M60.6062 28.1212C61.4095 28.1212 62.0607 27.47 62.0607 26.6667C62.0607 25.8634 61.4095 25.2122 60.6062 25.2122C59.8028 25.2122 59.1516 25.8634 59.1516 26.6667C59.1516 27.47 59.8028 28.1212 60.6062 28.1212Z" fill="#0C1142"/>
<path d="M65.4545 28.1212C66.2579 28.1212 66.9091 27.47 66.9091 26.6667C66.9091 25.8634 66.2579 25.2122 65.4545 25.2122C64.6512 25.2122 64 25.8634 64 26.6667C64 27.47 64.6512 28.1212 65.4545 28.1212Z" fill="#0C1142"/>
<path d="M70.3029 28.1212C71.1063 28.1212 71.7575 27.47 71.7575 26.6667C71.7575 25.8634 71.1063 25.2122 70.3029 25.2122C69.4996 25.2122 68.8484 25.8634 68.8484 26.6667C68.8484 27.47 69.4996 28.1212 70.3029 28.1212Z" fill="#0C1142"/>
<path d="M80 28.1212C80.8033 28.1212 81.4545 27.47 81.4545 26.6667C81.4545 25.8634 80.8033 25.2122 80 25.2122C79.1966 25.2122 78.5454 25.8634 78.5454 26.6667C78.5454 27.47 79.1966 28.1212 80 28.1212Z" fill="#0C1142"/>
<path d="M84.8483 28.1212C85.6517 28.1212 86.3029 27.47 86.3029 26.6667C86.3029 25.8634 85.6517 25.2122 84.8483 25.2122C84.045 25.2122 83.3938 25.8634 83.3938 26.6667C83.3938 27.47 84.045 28.1212 84.8483 28.1212Z" fill="#0C1142"/>
<path d="M94.5454 28.1212C95.3487 28.1212 95.9999 27.47 95.9999 26.6667C95.9999 25.8634 95.3487 25.2122 94.5454 25.2122C93.742 25.2122 93.0908 25.8634 93.0908 26.6667C93.0908 27.47 93.742 28.1212 94.5454 28.1212Z" fill="#0C1142"/>
<path d="M104.242 28.1212C105.046 28.1212 105.697 27.47 105.697 26.6667C105.697 25.8634 105.046 25.2122 104.242 25.2122C103.439 25.2122 102.788 25.8634 102.788 26.6667C102.788 27.47 103.439 28.1212 104.242 28.1212Z" fill="#0C1142"/>
<path d="M109.091 28.1212C109.894 28.1212 110.545 27.47 110.545 26.6667C110.545 25.8634 109.894 25.2122 109.091 25.2122C108.287 25.2122 107.636 25.8634 107.636 26.6667C107.636 27.47 108.287 28.1212 109.091 28.1212Z" fill="#0C1142"/>
<path d="M50.9092 32.9696C51.7125 32.9696 52.3637 32.3184 52.3637 31.5151C52.3637 30.7118 51.7125 30.0605 50.9092 30.0605C50.1058 30.0605 49.4546 30.7118 49.4546 31.5151C49.4546 32.3184 50.1058 32.9696 50.9092 32.9696Z" fill="#0C1142"/>
<path d="M55.7575 32.9696C56.5608 32.9696 57.2121 32.3184 57.2121 31.5151C57.2121 30.7118 56.5608 30.0605 55.7575 30.0605C54.9542 30.0605 54.303 30.7118 54.303 31.5151C54.303 32.3184 54.9542 32.9696 55.7575 32.9696Z" fill="#0C1142"/>
<path d="M60.6062 32.9696C61.4095 32.9696 62.0607 32.3184 62.0607 31.5151C62.0607 30.7118 61.4095 30.0605 60.6062 30.0605C59.8028 30.0605 59.1516 30.7118 59.1516 31.5151C59.1516 32.3184 59.8028 32.9696 60.6062 32.9696Z" fill="#0C1142"/>
<path d="M70.3029 32.9696C71.1063 32.9696 71.7575 32.3184 71.7575 31.5151C71.7575 30.7118 71.1063 30.0605 70.3029 30.0605C69.4996 30.0605 68.8484 30.7118 68.8484 31.5151C68.8484 32.3184 69.4996 32.9696 70.3029 32.9696Z" fill="#0C1142"/>
<path d="M75.1516 32.9696C75.9549 32.9696 76.6061 32.3184 76.6061 31.5151C76.6061 30.7118 75.9549 30.0605 75.1516 30.0605C74.3482 30.0605 73.697 30.7118 73.697 31.5151C73.697 32.3184 74.3482 32.9696 75.1516 32.9696Z" fill="#0C1142"/>
<path d="M84.8483 32.9696C85.6517 32.9696 86.3029 32.3184 86.3029 31.5151C86.3029 30.7118 85.6517 30.0605 84.8483 30.0605C84.045 30.0605 83.3938 30.7118 83.3938 31.5151C83.3938 32.3184 84.045 32.9696 84.8483 32.9696Z" fill="#0C1142"/>
<path d="M94.5454 32.9696C95.3487 32.9696 95.9999 32.3184 95.9999 31.5151C95.9999 30.7118 95.3487 30.0605 94.5454 30.0605C93.742 30.0605 93.0908 30.7118 93.0908 31.5151C93.0908 32.3184 93.742 32.9696 94.5454 32.9696Z" fill="#0C1142"/>
<path d="M99.394 32.9696C100.197 32.9696 100.849 32.3184 100.849 31.5151C100.849 30.7118 100.197 30.0605 99.394 30.0605C98.5907 30.0605 97.9395 30.7118 97.9395 31.5151C97.9395 32.3184 98.5907 32.9696 99.394 32.9696Z" fill="#0C1142"/>
<path d="M104.242 32.9696C105.046 32.9696 105.697 32.3184 105.697 31.5151C105.697 30.7118 105.046 30.0605 104.242 30.0605C103.439 30.0605 102.788 30.7118 102.788 31.5151C102.788 32.3184 103.439 32.9696 104.242 32.9696Z" fill="#0C1142"/>
<path d="M55.7575 37.818C56.5608 37.818 57.2121 37.1668 57.2121 36.3635C57.2121 35.5602 56.5608 34.9089 55.7575 34.9089C54.9542 34.9089 54.303 35.5602 54.303 36.3635C54.303 37.1668 54.9542 37.818 55.7575 37.818Z" fill="#0C1142"/>
<path d="M75.1516 37.818C75.9549 37.818 76.6061 37.1668 76.6061 36.3635C76.6061 35.5602 75.9549 34.9089 75.1516 34.9089C74.3482 34.9089 73.697 35.5602 73.697 36.3635C73.697 37.1668 74.3482 37.818 75.1516 37.818Z" fill="#0C1142"/>
<path d="M80 37.818C80.8033 37.818 81.4545 37.1668 81.4545 36.3635C81.4545 35.5602 80.8033 34.9089 80 34.9089C79.1966 34.9089 78.5454 35.5602 78.5454 36.3635C78.5454 37.1668 79.1966 37.818 80 37.818Z" fill="#0C1142"/>
<path d="M94.5454 37.818C95.3487 37.818 95.9999 37.1668 95.9999 36.3635C95.9999 35.5602 95.3487 34.9089 94.5454 34.9089C93.742 34.9089 93.0908 35.5602 93.0908 36.3635C93.0908 37.1668 93.742 37.818 94.5454 37.818Z" fill="#0C1142"/>
<path d="M109.091 37.818C109.894 37.818 110.545 37.1668 110.545 36.3635C110.545 35.5602 109.894 34.9089 109.091 34.9089C108.287 34.9089 107.636 35.5602 107.636 36.3635C107.636 37.1668 108.287 37.818 109.091 37.818Z" fill="#0C1142"/>
<path d="M50.9092 42.6666C51.7125 42.6666 52.3637 42.0154 52.3637 41.2121C52.3637 40.4088 51.7125 39.7576 50.9092 39.7576C50.1058 39.7576 49.4546 40.4088 49.4546 41.2121C49.4546 42.0154 50.1058 42.6666 50.9092 42.6666Z" fill="#0C1142"/>
<path d="M60.6062 42.6666C61.4095 42.6666 62.0607 42.0154 62.0607 41.2121C62.0607 40.4088 61.4095 39.7576 60.6062 39.7576C59.8028 39.7576 59.1516 40.4088 59.1516 41.2121C59.1516 42.0154 59.8028 42.6666 60.6062 42.6666Z" fill="#0C1142"/>
<path d="M70.3029 42.6666C71.1063 42.6666 71.7575 42.0154 71.7575 41.2121C71.7575 40.4088 71.1063 39.7576 70.3029 39.7576C69.4996 39.7576 68.8484 40.4088 68.8484 41.2121C68.8484 42.0154 69.4996 42.6666 70.3029 42.6666Z" fill="#0C1142"/>
<path d="M80 42.6666C80.8033 42.6666 81.4545 42.0154 81.4545 41.2121C81.4545 40.4088 80.8033 39.7576 80 39.7576C79.1966 39.7576 78.5454 40.4088 78.5454 41.2121C78.5454 42.0154 79.1966 42.6666 80 42.6666Z" fill="#0C1142"/>
<path d="M89.697 42.6666C90.5003 42.6666 91.1515 42.0154 91.1515 41.2121C91.1515 40.4088 90.5003 39.7576 89.697 39.7576C88.8937 39.7576 88.2424 40.4088 88.2424 41.2121C88.2424 42.0154 88.8937 42.6666 89.697 42.6666Z" fill="#0C1142"/>
<path d="M99.394 42.6666C100.197 42.6666 100.849 42.0154 100.849 41.2121C100.849 40.4088 100.197 39.7576 99.394 39.7576C98.5907 39.7576 97.9395 40.4088 97.9395 41.2121C97.9395 42.0154 98.5907 42.6666 99.394 42.6666Z" fill="#0C1142"/>
<path d="M109.091 42.6666C109.894 42.6666 110.545 42.0154 110.545 41.2121C110.545 40.4088 109.894 39.7576 109.091 39.7576C108.287 39.7576 107.636 40.4088 107.636 41.2121C107.636 42.0154 108.287 42.6666 109.091 42.6666Z" fill="#0C1142"/>
<path d="M55.7575 47.515C56.5608 47.515 57.2121 46.8638 57.2121 46.0605C57.2121 45.2572 56.5608 44.606 55.7575 44.606C54.9542 44.606 54.303 45.2572 54.303 46.0605C54.303 46.8638 54.9542 47.515 55.7575 47.515Z" fill="#0C1142"/>
<path d="M70.3029 47.515C71.1063 47.515 71.7575 46.8638 71.7575 46.0605C71.7575 45.2572 71.1063 44.606 70.3029 44.606C69.4996 44.606 68.8484 45.2572 68.8484 46.0605C68.8484 46.8638 69.4996 47.515 70.3029 47.515Z" fill="#0C1142"/>
<path d="M80 47.515C80.8033 47.515 81.4545 46.8638 81.4545 46.0605C81.4545 45.2572 80.8033 44.606 80 44.606C79.1966 44.606 78.5454 45.2572 78.5454 46.0605C78.5454 46.8638 79.1966 47.515 80 47.515Z" fill="#0C1142"/>
<path d="M12.1213 52.3637C12.9246 52.3637 13.5758 51.7125 13.5758 50.9092C13.5758 50.1058 12.9246 49.4546 12.1213 49.4546C11.318 49.4546 10.6667 50.1058 10.6667 50.9092C10.6667 51.7125 11.318 52.3637 12.1213 52.3637Z" fill="#0C1142"/>
<path d="M26.6667 52.3637C27.47 52.3637 28.1212 51.7125 28.1212 50.9092C28.1212 50.1058 27.47 49.4546 26.6667 49.4546C25.8634 49.4546 25.2122 50.1058 25.2122 50.9092C25.2122 51.7125 25.8634 52.3637 26.6667 52.3637Z" fill="#0C1142"/>
<path d="M31.5151 52.3637C32.3184 52.3637 32.9696 51.7125 32.9696 50.9092C32.9696 50.1058 32.3184 49.4546 31.5151 49.4546C30.7118 49.4546 30.0605 50.1058 30.0605 50.9092C30.0605 51.7125 30.7118 52.3637 31.5151 52.3637Z" fill="#0C1142"/>
<path d="M36.3635 52.3637C37.1668 52.3637 37.818 51.7125 37.818 50.9092C37.818 50.1058 37.1668 49.4546 36.3635 49.4546C35.5602 49.4546 34.9089 50.1058 34.9089 50.9092C34.9089 51.7125 35.5602 52.3637 36.3635 52.3637Z" fill="#0C1142"/>
<path d="M41.2121 52.3637C42.0154 52.3637 42.6666 51.7125 42.6666 50.9092C42.6666 50.1058 42.0154 49.4546 41.2121 49.4546C40.4088 49.4546 39.7576 50.1058 39.7576 50.9092C39.7576 51.7125 40.4088 52.3637 41.2121 52.3637Z" fill="#0C1142"/>
<path d="M46.0605 52.3637C46.8638 52.3637 47.515 51.7125 47.515 50.9092C47.515 50.1058 46.8638 49.4546 46.0605 49.4546C45.2572 49.4546 44.606 50.1058 44.606 50.9092C44.606 51.7125 45.2572 52.3637 46.0605 52.3637Z" fill="#0C1142"/>
<path d="M50.9092 52.3637C51.7125 52.3637 52.3637 51.7125 52.3637 50.9092C52.3637 50.1058 51.7125 49.4546 50.9092 49.4546C50.1058 49.4546 49.4546 50.1058 49.4546 50.9092C49.4546 51.7125 50.1058 52.3637 50.9092 52.3637Z" fill="#0C1142"/>
<path d="M55.7575 52.3637C56.5608 52.3637 57.2121 51.7125 57.2121 50.9092C57.2121 50.1058 56.5608 49.4546 55.7575 49.4546C54.9542 49.4546 54.303 50.1058 54.303 50.9092C54.303 51.7125 54.9542 52.3637 55.7575 52.3637Z" fill="#0C1142"/>
<path d="M70.3029 52.3637C71.1063 52.3637 71.7575 51.7125 71.7575 50.9092C71.7575 50.1058 71.1063 49.4546 70.3029 49.4546C69.4996 49.4546 68.8484 50.1058 68.8484 50.9092C68.8484 51.7125 69.4996 52.3637 70.3029 52.3637Z" fill="#0C1142"/>
<path d="M75.1516 52.3637C75.9549 52.3637 76.6061 51.7125 76.6061 50.9092C76.6061 50.1058 75.9549 49.4546 75.1516 49.4546C74.3482 49.4546 73.697 50.1058 73.697 50.9092C73.697 51.7125 74.3482 52.3637 75.1516 52.3637Z" fill="#0C1142"/>
<path d="M80 52.3637C80.8033 52.3637 81.4545 51.7125 81.4545 50.9092C81.4545 50.1058 80.8033 49.4546 80 49.4546C79.1966 49.4546 78.5454 50.1058 78.5454 50.9092C78.5454 51.7125 79.1966 52.3637 80 52.3637Z" fill="#0C1142"/>
<path d="M84.8483 52.3637C85.6517 52.3637 86.3029 51.7125 86.3029 50.9092C86.3029 50.1058 85.6517 49.4546 84.8483 49.4546C84.045 49.4546 83.3938 50.1058 83.3938 50.9092C83.3938 51.7125 84.045 52.3637 84.8483 52.3637Z" fill="#0C1142"/>
<path d="M89.697 52.3637C90.5003 52.3637 91.1515 51.7125 91.1515 50.9092C91.1515 50.1058 90.5003 49.4546 89.697 49.4546C88.8937 49.4546 88.2424 50.1058 88.2424 50.9092C88.2424 51.7125 88.8937 52.3637 89.697 52.3637Z" fill="#0C1142"/>
<path d="M94.5454 52.3637C95.3487 52.3637 95.9999 51.7125 95.9999 50.9092C95.9999 50.1058 95.3487 49.4546 94.5454 49.4546C93.742 49.4546 93.0908 50.1058 93.0908 50.9092C93.0908 51.7125 93.742 52.3637 94.5454 52.3637Z" fill="#0C1142"/>
<path d="M113.939 52.3637C114.743 52.3637 115.394 51.7125 115.394 50.9092C115.394 50.1058 114.743 49.4546 113.939 49.4546C113.136 49.4546 112.485 50.1058 112.485 50.9092C112.485 51.7125 113.136 52.3637 113.939 52.3637Z" fill="#0C1142"/>
<path d="M128.485 52.3637C129.288 52.3637 129.939 51.7125 129.939 50.9092C129.939 50.1058 129.288 49.4546 128.485 49.4546C127.681 49.4546 127.03 50.1058 127.03 50.9092C127.03 51.7125 127.681 52.3637 128.485 52.3637Z" fill="#0C1142"/>
<path d="M138.182 52.3637C138.985 52.3637 139.636 51.7125 139.636 50.9092C139.636 50.1058 138.985 49.4546 138.182 49.4546C137.379 49.4546 136.727 50.1058 136.727 50.9092C136.727 51.7125 137.379 52.3637 138.182 52.3637Z" fill="#0C1142"/>
<path d="M143.03 52.3637C143.834 52.3637 144.485 51.7125 144.485 50.9092C144.485 50.1058 143.834 49.4546 143.03 49.4546C142.227 49.4546 141.576 50.1058 141.576 50.9092C141.576 51.7125 142.227 52.3637 143.03 52.3637Z" fill="#0C1142"/>
<path d="M147.879 52.3637C148.682 52.3637 149.333 51.7125 149.333 50.9092C149.333 50.1058 148.682 49.4546 147.879 49.4546C147.075 49.4546 146.424 50.1058 146.424 50.9092C146.424 51.7125 147.075 52.3637 147.879 52.3637Z" fill="#0C1142"/>
<path d="M12.1213 57.2121C12.9246 57.2121 13.5758 56.5608 13.5758 55.7575C13.5758 54.9542 12.9246 54.303 12.1213 54.303C11.318 54.303 10.6667 54.9542 10.6667 55.7575C10.6667 56.5608 11.318 57.2121 12.1213 57.2121Z" fill="#0C1142"/>
<path d="M21.8181 57.2121C22.6214 57.2121 23.2726 56.5608 23.2726 55.7575C23.2726 54.9542 22.6214 54.303 21.8181 54.303C21.0147 54.303 20.3635 54.9542 20.3635 55.7575C20.3635 56.5608 21.0147 57.2121 21.8181 57.2121Z" fill="#0C1142"/>
<path d="M50.9092 57.2121C51.7125 57.2121 52.3637 56.5608 52.3637 55.7575C52.3637 54.9542 51.7125 54.303 50.9092 54.303C50.1058 54.303 49.4546 54.9542 49.4546 55.7575C49.4546 56.5608 50.1058 57.2121 50.9092 57.2121Z" fill="#0C1142"/>
<path d="M70.3029 57.2121C71.1063 57.2121 71.7575 56.5608 71.7575 55.7575C71.7575 54.9542 71.1063 54.303 70.3029 54.303C69.4996 54.303 68.8484 54.9542 68.8484 55.7575C68.8484 56.5608 69.4996 57.2121 70.3029 57.2121Z" fill="#0C1142"/>
<path d="M80 57.2121C80.8033 57.2121 81.4545 56.5608 81.4545 55.7575C81.4545 54.9542 80.8033 54.303 80 54.303C79.1966 54.303 78.5454 54.9542 78.5454 55.7575C78.5454 56.5608 79.1966 57.2121 80 57.2121Z" fill="#0C1142"/>
<path d="M94.5454 57.2121C95.3487 57.2121 95.9999 56.5608 95.9999 55.7575C95.9999 54.9542 95.3487 54.303 94.5454 54.303C93.742 54.303 93.0908 54.9542 93.0908 55.7575C93.0908 56.5608 93.742 57.2121 94.5454 57.2121Z" fill="#0C1142"/>
<path d="M104.242 57.2121C105.046 57.2121 105.697 56.5608 105.697 55.7575C105.697 54.9542 105.046 54.303 104.242 54.303C103.439 54.303 102.788 54.9542 102.788 55.7575C102.788 56.5608 103.439 57.2121 104.242 57.2121Z" fill="#0C1142"/>
<path d="M113.939 57.2121C114.743 57.2121 115.394 56.5608 115.394 55.7575C115.394 54.9542 114.743 54.303 113.939 54.303C113.136 54.303 112.485 54.9542 112.485 55.7575C112.485 56.5608 113.136 57.2121 113.939 57.2121Z" fill="#0C1142"/>
<path d="M123.636 57.2121C124.44 57.2121 125.091 56.5608 125.091 55.7575C125.091 54.9542 124.44 54.303 123.636 54.303C122.833 54.303 122.182 54.9542 122.182 55.7575C122.182 56.5608 122.833 57.2121 123.636 57.2121Z" fill="#0C1142"/>
<path d="M128.485 57.2121C129.288 57.2121 129.939 56.5608 129.939 55.7575C129.939 54.9542 129.288 54.303 128.485 54.303C127.681 54.303 127.03 54.9542 127.03 55.7575C127.03 56.5608 127.681 57.2121 128.485 57.2121Z" fill="#0C1142"/>
<path d="M138.182 57.2121C138.985 57.2121 139.636 56.5608 139.636 55.7575C139.636 54.9542 138.985 54.303 138.182 54.303C137.379 54.303 136.727 54.9542 136.727 55.7575C136.727 56.5608 137.379 57.2121 138.182 57.2121Z" fill="#0C1142"/>
<path d="M143.03 57.2121C143.834 57.2121 144.485 56.5608 144.485 55.7575C144.485 54.9542 143.834 54.303 143.03 54.303C142.227 54.303 141.576 54.9542 141.576 55.7575C141.576 56.5608 142.227 57.2121 143.03 57.2121Z" fill="#0C1142"/>
<path d="M16.9697 62.0607C17.773 62.0607 18.4242 61.4095 18.4242 60.6062C18.4242 59.8028 17.773 59.1516 16.9697 59.1516C16.1664 59.1516 15.5151 59.8028 15.5151 60.6062C15.5151 61.4095 16.1664 62.0607 16.9697 62.0607Z" fill="#0C1142"/>
<path d="M21.8181 62.0607C22.6214 62.0607 23.2726 61.4095 23.2726 60.6062C23.2726 59.8028 22.6214 59.1516 21.8181 59.1516C21.0147 59.1516 20.3635 59.8028 20.3635 60.6062C20.3635 61.4095 21.0147 62.0607 21.8181 62.0607Z" fill="#0C1142"/>
<path d="M31.5151 62.0607C32.3184 62.0607 32.9696 61.4095 32.9696 60.6062C32.9696 59.8028 32.3184 59.1516 31.5151 59.1516C30.7118 59.1516 30.0605 59.8028 30.0605 60.6062C30.0605 61.4095 30.7118 62.0607 31.5151 62.0607Z" fill="#0C1142"/>
<path d="M36.3635 62.0607C37.1668 62.0607 37.818 61.4095 37.818 60.6062C37.818 59.8028 37.1668 59.1516 36.3635 59.1516C35.5602 59.1516 34.9089 59.8028 34.9089 60.6062C34.9089 61.4095 35.5602 62.0607 36.3635 62.0607Z" fill="#0C1142"/>
<path d="M41.2121 62.0607C42.0154 62.0607 42.6666 61.4095 42.6666 60.6062C42.6666 59.8028 42.0154 59.1516 41.2121 59.1516C40.4088 59.1516 39.7576 59.8028 39.7576 60.6062C39.7576 61.4095 40.4088 62.0607 41.2121 62.0607Z" fill="#0C1142"/>
<path d="M55.7575 62.0607C56.5608 62.0607 57.2121 61.4095 57.2121 60.6062C57.2121 59.8028 56.5608 59.1516 55.7575 59.1516C54.9542 59.1516 54.303 59.8028 54.303 60.6062C54.303 61.4095 54.9542 62.0607 55.7575 62.0607Z" fill="#0C1142"/>
<path d="M60.6062 62.0607C61.4095 62.0607 62.0607 61.4095 62.0607 60.6062C62.0607 59.8028 61.4095 59.1516 60.6062 59.1516C59.8028 59.1516 59.1516 59.8028 59.1516 60.6062C59.1516 61.4095 59.8028 62.0607 60.6062 62.0607Z" fill="#0C1142"/>
<path d="M80 62.0607C80.8033 62.0607 81.4545 61.4095 81.4545 60.6062C81.4545 59.8028 80.8033 59.1516 80 59.1516C79.1966 59.1516 78.5454 59.8028 78.5454 60.6062C78.5454 61.4095 79.1966 62.0607 80 62.0607Z" fill="#0C1142"/>
<path d="M94.5454 62.0607C95.3487 62.0607 95.9999 61.4095 95.9999 60.6062C95.9999 59.8028 95.3487 59.1516 94.5454 59.1516C93.742 59.1516 93.0908 59.8028 93.0908 60.6062C93.0908 61.4095 93.742 62.0607 94.5454 62.0607Z" fill="#0C1142"/>
<path d="M99.394 62.0607C100.197 62.0607 100.849 61.4095 100.849 60.6062C100.849 59.8028 100.197 59.1516 99.394 59.1516C98.5907 59.1516 97.9395 59.8028 97.9395 60.6062C97.9395 61.4095 98.5907 62.0607 99.394 62.0607Z" fill="#0C1142"/>
<path d="M113.939 62.0607C114.743 62.0607 115.394 61.4095 115.394 60.6062C115.394 59.8028 114.743 59.1516 113.939 59.1516C113.136 59.1516 112.485 59.8028 112.485 60.6062C112.485 61.4095 113.136 62.0607 113.939 62.0607Z" fill="#0C1142"/>
<path d="M123.636 62.0607C124.44 62.0607 125.091 61.4095 125.091 60.6062C125.091 59.8028 124.44 59.1516 123.636 59.1516C122.833 59.1516 122.182 59.8028 122.182 60.6062C122.182 61.4095 122.833 62.0607 123.636 62.0607Z" fill="#0C1142"/>
<path d="M138.182 62.0607C138.985 62.0607 139.636 61.4095 139.636 60.6062C139.636 59.8028 138.985 59.1516 138.182 59.1516C137.379 59.1516 136.727 59.8028 136.727 60.6062C136.727 61.4095 137.379 62.0607 138.182 62.0607Z" fill="#0C1142"/>
<path d="M26.6667 66.9091C27.47 66.9091 28.1212 66.2579 28.1212 65.4545C28.1212 64.6512 27.47 64 26.6667 64C25.8634 64 25.2122 64.6512 25.2122 65.4545C25.2122 66.2579 25.8634 66.9091 26.6667 66.9091Z" fill="#0C1142"/>
<path d="M31.5151 66.9091C32.3184 66.9091 32.9696 66.2579 32.9696 65.4545C32.9696 64.6512 32.3184 64 31.5151 64C30.7118 64 30.0605 64.6512 30.0605 65.4545C30.0605 66.2579 30.7118 66.9091 31.5151 66.9091Z" fill="#0C1142"/>
<path d="M50.9092 66.9091C51.7125 66.9091 52.3637 66.2579 52.3637 65.4545C52.3637 64.6512 51.7125 64 50.9092 64C50.1058 64 49.4546 64.6512 49.4546 65.4545C49.4546 66.2579 50.1058 66.9091 50.9092 66.9091Z" fill="#0C1142"/>
<path d="M55.7575 66.9091C56.5608 66.9091 57.2121 66.2579 57.2121 65.4545C57.2121 64.6512 56.5608 64 55.7575 64C54.9542 64 54.303 64.6512 54.303 65.4545C54.303 66.2579 54.9542 66.9091 55.7575 66.9091Z" fill="#0C1142"/>
<path d="M60.6062 66.9091C61.4095 66.9091 62.0607 66.2579 62.0607 65.4545C62.0607 64.6512 61.4095 64 60.6062 64C59.8028 64 59.1516 64.6512 59.1516 65.4545C59.1516 66.2579 59.8028 66.9091 60.6062 66.9091Z" fill="#0C1142"/>
<path d="M80 66.9091C80.8033 66.9091 81.4545 66.2579 81.4545 65.4545C81.4545 64.6512 80.8033 64 80 64C79.1966 64 78.5454 64.6512 78.5454 65.4545C78.5454 66.2579 79.1966 66.9091 80 66.9091Z" fill="#0C1142"/>
<path d="M84.8483 66.9091C85.6517 66.9091 86.3029 66.2579 86.3029 65.4545C86.3029 64.6512 85.6517 64 84.8483 64C84.045 64 83.3938 64.6512 83.3938 65.4545C83.3938 66.2579 84.045 66.9091 84.8483 66.9091Z" fill="#0C1142"/>
<path d="M94.5454 66.9091C95.3487 66.9091 95.9999 66.2579 95.9999 65.4545C95.9999 64.6512 95.3487 64 94.5454 64C93.742 64 93.0908 64.6512 93.0908 65.4545C93.0908 66.2579 93.742 66.9091 94.5454 66.9091Z" fill="#0C1142"/>
<path d="M109.091 66.9091C109.894 66.9091 110.545 66.2579 110.545 65.4545C110.545 64.6512 109.894 64 109.091 64C108.287 64 107.636 64.6512 107.636 65.4545C107.636 66.2579 108.287 66.9091 109.091 66.9091Z" fill="#0C1142"/>
<path d="M113.939 66.9091C114.743 66.9091 115.394 66.2579 115.394 65.4545C115.394 64.6512 114.743 64 113.939 64C113.136 64 112.485 64.6512 112.485 65.4545C112.485 66.2579 113.136 66.9091 113.939 66.9091Z" fill="#0C1142"/>
<path d="M118.788 66.9091C119.591 66.9091 120.242 66.2579 120.242 65.4545C120.242 64.6512 119.591 64 118.788 64C117.984 64 117.333 64.6512 117.333 65.4545C117.333 66.2579 117.984 66.9091 118.788 66.9091Z" fill="#0C1142"/>
<path d="M133.333 66.9091C134.137 66.9091 134.788 66.2579 134.788 65.4545C134.788 64.6512 134.137 64 133.333 64C132.53 64 131.879 64.6512 131.879 65.4545C131.879 66.2579 132.53 66.9091 133.333 66.9091Z" fill="#0C1142"/>
<path d="M147.879 66.9091C148.682 66.9091 149.333 66.2579 149.333 65.4545C149.333 64.6512 148.682 64 147.879 64C147.075 64 146.424 64.6512 146.424 65.4545C146.424 66.2579 147.075 66.9091 147.879 66.9091Z" fill="#0C1142"/>
<path d="M12.1213 71.7575C12.9246 71.7575 13.5758 71.1063 13.5758 70.3029C13.5758 69.4996 12.9246 68.8484 12.1213 68.8484C11.318 68.8484 10.6667 69.4996 10.6667 70.3029C10.6667 71.1063 11.318 71.7575 12.1213 71.7575Z" fill="#0C1142"/>
<path d="M16.9697 71.7575C17.773 71.7575 18.4242 71.1063 18.4242 70.3029C18.4242 69.4996 17.773 68.8484 16.9697 68.8484C16.1664 68.8484 15.5151 69.4996 15.5151 70.3029C15.5151 71.1063 16.1664 71.7575 16.9697 71.7575Z" fill="#0C1142"/>
<path d="M21.8181 71.7575C22.6214 71.7575 23.2726 71.1063 23.2726 70.3029C23.2726 69.4996 22.6214 68.8484 21.8181 68.8484C21.0147 68.8484 20.3635 69.4996 20.3635 70.3029C20.3635 71.1063 21.0147 71.7575 21.8181 71.7575Z" fill="#0C1142"/>
<path d="M26.6667 71.7575C27.47 71.7575 28.1212 71.1063 28.1212 70.3029C28.1212 69.4996 27.47 68.8484 26.6667 68.8484C25.8634 68.8484 25.2122 69.4996 25.2122 70.3029C25.2122 71.1063 25.8634 71.7575 26.6667 71.7575Z" fill="#0C1142"/>
<path d="M41.2121 71.7575C42.0154 71.7575 42.6666 71.1063 42.6666 70.3029C42.6666 69.4996 42.0154 68.8484 41.2121 68.8484C40.4088 68.8484 39.7576 69.4996 39.7576 70.3029C39.7576 71.1063 40.4088 71.7575 41.2121 71.7575Z" fill="#0C1142"/>
<path d="M60.6062 71.7575C61.4095 71.7575 62.0607 71.1063 62.0607 70.3029C62.0607 69.4996 61.4095 68.8484 60.6062 68.8484C59.8028 68.8484 59.1516 69.4996 59.1516 70.3029C59.1516 71.1063 59.8028 71.7575 60.6062 71.7575Z" fill="#0C1142"/>
<path d="M70.3029 71.7575C71.1063 71.7575 71.7575 71.1063 71.7575 70.3029C71.7575 69.4996 71.1063 68.8484 70.3029 68.8484C69.4996 68.8484 68.8484 69.4996 68.8484 70.3029C68.8484 71.1063 69.4996 71.7575 70.3029 71.7575Z" fill="#0C1142"/>
<path d="M75.1516 71.7575C75.9549 71.7575 76.6061 71.1063 76.6061 70.3029C76.6061 69.4996 75.9549 68.8484 75.1516 68.8484C74.3482 68.8484 73.697 69.4996 73.697 70.3029C73.697 71.1063 74.3482 71.7575 75.1516 71.7575Z" fill="#0C1142"/>
<path d="M80 71.7575C80.8033 71.7575 81.4545 71.1063 81.4545 70.3029C81.4545 69.4996 80.8033 68.8484 80 68.8484C79.1966 68.8484 78.5454 69.4996 78.5454 70.3029C78.5454 71.1063 79.1966 71.7575 80 71.7575Z" fill="#0C1142"/>
<path d="M99.394 71.7575C100.197 71.7575 100.849 71.1063 100.849 70.3029C100.849 69.4996 100.197 68.8484 99.394 68.8484C98.5907 68.8484 97.9395 69.4996 97.9395 70.3029C97.9395 71.1063 98.5907 71.7575 99.394 71.7575Z" fill="#0C1142"/>
<path d="M109.091 71.7575C109.894 71.7575 110.545 71.1063 110.545 70.3029C110.545 69.4996 109.894 68.8484 109.091 68.8484C108.287 68.8484 107.636 69.4996 107.636 70.3029C107.636 71.1063 108.287 71.7575 109.091 71.7575Z" fill="#0C1142"/>
<path d="M118.788 71.7575C119.591 71.7575 120.242 71.1063 120.242 70.3029C120.242 69.4996 119.591 68.8484 118.788 68.8484C117.984 68.8484 117.333 69.4996 117.333 70.3029C117.333 71.1063 117.984 71.7575 118.788 71.7575Z" fill="#0C1142"/>
<path d="M123.636 71.7575C124.44 71.7575 125.091 71.1063 125.091 70.3029C125.091 69.4996 124.44 68.8484 123.636 68.8484C122.833 68.8484 122.182 69.4996 122.182 70.3029C122.182 71.1063 122.833 71.7575 123.636 71.7575Z" fill="#0C1142"/>
<path d="M147.879 71.7575C148.682 71.7575 149.333 71.1063 149.333 70.3029C149.333 69.4996 148.682 68.8484 147.879 68.8484C147.075 68.8484 146.424 69.4996 146.424 70.3029C146.424 71.1063 147.075 71.7575 147.879 71.7575Z" fill="#0C1142"/>
<path d="M21.8181 76.6061C22.6214 76.6061 23.2726 75.9549 23.2726 75.1516C23.2726 74.3482 22.6214 73.697 21.8181 73.697C21.0147 73.697 20.3635 74.3482 20.3635 75.1516C20.3635 75.9549 21.0147 76.6061 21.8181 76.6061Z" fill="#0C1142"/>
<path d="M65.4545 76.6061C66.2579 76.6061 66.9091 75.9549 66.9091 75.1516C66.9091 74.3482 66.2579 73.697 65.4545 73.697C64.6512 73.697 64 74.3482 64 75.1516C64 75.9549 64.6512 76.6061 65.4545 76.6061Z" fill="#0C1142"/>
<path d="M70.3029 76.6061C71.1063 76.6061 71.7575 75.9549 71.7575 75.1516C71.7575 74.3482 71.1063 73.697 70.3029 73.697C69.4996 73.697 68.8484 74.3482 68.8484 75.1516C68.8484 75.9549 69.4996 76.6061 70.3029 76.6061Z" fill="#0C1142"/>
<path d="M94.5454 76.6061C95.3487 76.6061 95.9999 75.9549 95.9999 75.1516C95.9999 74.3482 95.3487 73.697 94.5454 73.697C93.742 73.697 93.0908 74.3482 93.0908 75.1516C93.0908 75.9549 93.742 76.6061 94.5454 76.6061Z" fill="#0C1142"/>
<path d="M99.394 76.6061C100.197 76.6061 100.849 75.9549 100.849 75.1516C100.849 74.3482 100.197 73.697 99.394 73.697C98.5907 73.697 97.9395 74.3482 97.9395 75.1516C97.9395 75.9549 98.5907 76.6061 99.394 76.6061Z" fill="#0C1142"/>
<path d="M113.939 76.6061C114.743 76.6061 115.394 75.9549 115.394 75.1516C115.394 74.3482 114.743 73.697 113.939 73.697C113.136 73.697 112.485 74.3482 112.485 75.1516C112.485 75.9549 113.136 76.6061 113.939 76.6061Z" fill="#0C1142"/>
<path d="M118.788 76.6061C119.591 76.6061 120.242 75.9549 120.242 75.1516C120.242 74.3482 119.591 73.697 118.788 73.697C117.984 73.697 117.333 74.3482 117.333 75.1516C117.333 75.9549 117.984 76.6061 118.788 76.6061Z" fill="#0C1142"/>
<path d="M128.485 76.6061C129.288 76.6061 129.939 75.9549 129.939 75.1516C129.939 74.3482 129.288 73.697 128.485 73.697C127.681 73.697 127.03 74.3482 127.03 75.1516C127.03 75.9549 127.681 76.6061 128.485 76.6061Z" fill="#0C1142"/>
<path d="M133.333 76.6061C134.137 76.6061 134.788 75.9549 134.788 75.1516C134.788 74.3482 134.137 73.697 133.333 73.697C132.53 73.697 131.879 74.3482 131.879 75.1516C131.879 75.9549 132.53 76.6061 133.333 76.6061Z" fill="#0C1142"/>
<path d="M138.182 76.6061C138.985 76.6061 139.636 75.9549 139.636 75.1516C139.636 74.3482 138.985 73.697 138.182 73.697C137.379 73.697 136.727 74.3482 136.727 75.1516C136.727 75.9549 137.379 76.6061 138.182 76.6061Z" fill="#0C1142"/>
<path d="M143.03 76.6061C143.834 76.6061 144.485 75.9549 144.485 75.1516C144.485 74.3482 143.834 73.697 143.03 73.697C142.227 73.697 141.576 74.3482 141.576 75.1516C141.576 75.9549 142.227 76.6061 143.03 76.6061Z" fill="#0C1142"/>
<path d="M147.879 76.6061C148.682 76.6061 149.333 75.9549 149.333 75.1516C149.333 74.3482 148.682 73.697 147.879 73.697C147.075 73.697 146.424 74.3482 146.424 75.1516C146.424 75.9549 147.075 76.6061 147.879 76.6061Z" fill="#0C1142"/>
<path d="M16.9697 81.4545C17.773 81.4545 18.4242 80.8033 18.4242 80C18.4242 79.1966 17.773 78.5454 16.9697 78.5454C16.1664 78.5454 15.5151 79.1966 15.5151 80C15.5151 80.8033 16.1664 81.4545 16.9697 81.4545Z" fill="#0C1142"/>
<path d="M36.3635 81.4545C37.1668 81.4545 37.818 80.8033 37.818 80C37.818 79.1966 37.1668 78.5454 36.3635 78.5454C35.5602 78.5454 34.9089 79.1966 34.9089 80C34.9089 80.8033 35.5602 81.4545 36.3635 81.4545Z" fill="#0C1142"/>
<path d="M41.2121 81.4545C42.0154 81.4545 42.6666 80.8033 42.6666 80C42.6666 79.1966 42.0154 78.5454 41.2121 78.5454C40.4088 78.5454 39.7576 79.1966 39.7576 80C39.7576 80.8033 40.4088 81.4545 41.2121 81.4545Z" fill="#0C1142"/>
<path d="M46.0605 81.4545C46.8638 81.4545 47.515 80.8033 47.515 80C47.515 79.1966 46.8638 78.5454 46.0605 78.5454C45.2572 78.5454 44.606 79.1966 44.606 80C44.606 80.8033 45.2572 81.4545 46.0605 81.4545Z" fill="#0C1142"/>
<path d="M50.9092 81.4545C51.7125 81.4545 52.3637 80.8033 52.3637 80C52.3637 79.1966 51.7125 78.5454 50.9092 78.5454C50.1058 78.5454 49.4546 79.1966 49.4546 80C49.4546 80.8033 50.1058 81.4545 50.9092 81.4545Z" fill="#0C1142"/>
<path d="M60.6062 81.4545C61.4095 81.4545 62.0607 80.8033 62.0607 80C62.0607 79.1966 61.4095 78.5454 60.6062 78.5454C59.8028 78.5454 59.1516 79.1966 59.1516 80C59.1516 80.8033 59.8028 81.4545 60.6062 81.4545Z" fill="#0C1142"/>
<path d="M80 81.4545C80.8033 81.4545 81.4545 80.8033 81.4545 80C81.4545 79.1966 80.8033 78.5454 80 78.5454C79.1966 78.5454 78.5454 79.1966 78.5454 80C78.5454 80.8033 79.1966 81.4545 80 81.4545Z" fill="#0C1142"/>
<path d="M84.8483 81.4545C85.6517 81.4545 86.3029 80.8033 86.3029 80C86.3029 79.1966 85.6517 78.5454 84.8483 78.5454C84.045 78.5454 83.3938 79.1966 83.3938 80C83.3938 80.8033 84.045 81.4545 84.8483 81.4545Z" fill="#0C1142"/>
<path d="M94.5454 81.4545C95.3487 81.4545 95.9999 80.8033 95.9999 80C95.9999 79.1966 95.3487 78.5454 94.5454 78.5454C93.742 78.5454 93.0908 79.1966 93.0908 80C93.0908 80.8033 93.742 81.4545 94.5454 81.4545Z" fill="#0C1142"/>
<path d="M104.242 81.4545C105.046 81.4545 105.697 80.8033 105.697 80C105.697 79.1966 105.046 78.5454 104.242 78.5454C103.439 78.5454 102.788 79.1966 102.788 80C102.788 80.8033 103.439 81.4545 104.242 81.4545Z" fill="#0C1142"/>
<path d="M109.091 81.4545C109.894 81.4545 110.545 80.8033 110.545 80C110.545 79.1966 109.894 78.5454 109.091 78.5454C108.287 78.5454 107.636 79.1966 107.636 80C107.636 80.8033 108.287 81.4545 109.091 81.4545Z" fill="#0C1142"/>
<path d="M113.939 81.4545C114.743 81.4545 115.394 80.8033 115.394 80C115.394 79.1966 114.743 78.5454 113.939 78.5454C113.136 78.5454 112.485 79.1966 112.485 80C112.485 80.8033 113.136 81.4545 113.939 81.4545Z" fill="#0C1142"/>
<path d="M118.788 81.4545C119.591 81.4545 120.242 80.8033 120.242 80C120.242 79.1966 119.591 78.5454 118.788 78.5454C117.984 78.5454 117.333 79.1966 117.333 80C117.333 80.8033 117.984 81.4545 118.788 81.4545Z" fill="#0C1142"/>
<path d="M123.636 81.4545C124.44 81.4545 125.091 80.8033 125.091 80C125.091 79.1966 124.44 78.5454 123.636 78.5454C122.833 78.5454 122.182 79.1966 122.182 80C122.182 80.8033 122.833 81.4545 123.636 81.4545Z" fill="#0C1142"/>
<path d="M138.182 81.4545C138.985 81.4545 139.636 80.8033 139.636 80C139.636 79.1966 138.985 78.5454 138.182 78.5454C137.379 78.5454 136.727 79.1966 136.727 80C136.727 80.8033 137.379 81.4545 138.182 81.4545Z" fill="#0C1142"/>
<path d="M147.879 81.4545C148.682 81.4545 149.333 80.8033 149.333 80C149.333 79.1966 148.682 78.5454 147.879 78.5454C147.075 78.5454 146.424 79.1966 146.424 80C146.424 80.8033 147.075 81.4545 147.879 81.4545Z" fill="#0C1142"/>
<path d="M12.1213 86.3029C12.9246 86.3029 13.5758 85.6517 13.5758 84.8483C13.5758 84.045 12.9246 83.3938 12.1213 83.3938C11.318 83.3938 10.6667 84.045 10.6667 84.8483C10.6667 85.6517 11.318 86.3029 12.1213 86.3029Z" fill="#0C1142"/>
<path d="M16.9697 86.3029C17.773 86.3029 18.4242 85.6517 18.4242 84.8483C18.4242 84.045 17.773 83.3938 16.9697 83.3938C16.1664 83.3938 15.5151 84.045 15.5151 84.8483C15.5151 85.6517 16.1664 86.3029 16.9697 86.3029Z" fill="#0C1142"/>
<path d="M31.5151 86.3029C32.3184 86.3029 32.9696 85.6517 32.9696 84.8483C32.9696 84.045 32.3184 83.3938 31.5151 83.3938C30.7118 83.3938 30.0605 84.045 30.0605 84.8483C30.0605 85.6517 30.7118 86.3029 31.5151 86.3029Z" fill="#0C1142"/>
<path d="M46.0605 86.3029C46.8638 86.3029 47.515 85.6517 47.515 84.8483C47.515 84.045 46.8638 83.3938 46.0605 83.3938C45.2572 83.3938 44.606 84.045 44.606 84.8483C44.606 85.6517 45.2572 86.3029 46.0605 86.3029Z" fill="#0C1142"/>
<path d="M55.7575 86.3029C56.5608 86.3029 57.2121 85.6517 57.2121 84.8483C57.2121 84.045 56.5608 83.3938 55.7575 83.3938C54.9542 83.3938 54.303 84.045 54.303 84.8483C54.303 85.6517 54.9542 86.3029 55.7575 86.3029Z" fill="#0C1142"/>
<path d="M60.6062 86.3029C61.4095 86.3029 62.0607 85.6517 62.0607 84.8483C62.0607 84.045 61.4095 83.3938 60.6062 83.3938C59.8028 83.3938 59.1516 84.045 59.1516 84.8483C59.1516 85.6517 59.8028 86.3029 60.6062 86.3029Z" fill="#0C1142"/>
<path d="M75.1516 86.3029C75.9549 86.3029 76.6061 85.6517 76.6061 84.8483C76.6061 84.045 75.9549 83.3938 75.1516 83.3938C74.3482 83.3938 73.697 84.045 73.697 84.8483C73.697 85.6517 74.3482 86.3029 75.1516 86.3029Z" fill="#0C1142"/>
<path d="M80 86.3029C80.8033 86.3029 81.4545 85.6517 81.4545 84.8483C81.4545 84.045 80.8033 83.3938 80 83.3938C79.1966 83.3938 78.5454 84.045 78.5454 84.8483C78.5454 85.6517 79.1966 86.3029 80 86.3029Z" fill="#0C1142"/>
<path d="M89.697 86.3029C90.5003 86.3029 91.1515 85.6517 91.1515 84.8483C91.1515 84.045 90.5003 83.3938 89.697 83.3938C88.8937 83.3938 88.2424 84.045 88.2424 84.8483C88.2424 85.6517 88.8937 86.3029 89.697 86.3029Z" fill="#0C1142"/>
<path d="M99.394 86.3029C100.197 86.3029 100.849 85.6517 100.849 84.8483C100.849 84.045 100.197 83.3938 99.394 83.3938C98.5907 83.3938 97.9395 84.045 97.9395 84.8483C97.9395 85.6517 98.5907 86.3029 99.394 86.3029Z" fill="#0C1142"/>
<path d="M123.636 86.3029C124.44 86.3029 125.091 85.6517 125.091 84.8483C125.091 84.045 124.44 83.3938 123.636 83.3938C122.833 83.3938 122.182 84.045 122.182 84.8483C122.182 85.6517 122.833 86.3029 123.636 86.3029Z" fill="#0C1142"/>
<path d="M128.485 86.3029C129.288 86.3029 129.939 85.6517 129.939 84.8483C129.939 84.045 129.288 83.3938 128.485 83.3938C127.681 83.3938 127.03 84.045 127.03 84.8483C127.03 85.6517 127.681 86.3029 128.485 86.3029Z" fill="#0C1142"/>
<path d="M138.182 86.3029C138.985 86.3029 139.636 85.6517 139.636 84.8483C139.636 84.045 138.985 83.3938 138.182 83.3938C137.379 83.3938 136.727 84.045 136.727 84.8483C136.727 85.6517 137.379 86.3029 138.182 86.3029Z" fill="#0C1142"/>
<path d="M147.879 86.3029C148.682 86.3029 149.333 85.6517 149.333 84.8483C149.333 84.045 148.682 83.3938 147.879 83.3938C147.075 83.3938 146.424 84.045 146.424 84.8483C146.424 85.6517 147.075 86.3029 147.879 86.3029Z" fill="#0C1142"/>
<path d="M31.5151 91.1515C32.3184 91.1515 32.9696 90.5003 32.9696 89.697C32.9696 88.8937 32.3184 88.2424 31.5151 88.2424C30.7118 88.2424 30.0605 88.8937 30.0605 89.697C30.0605 90.5003 30.7118 91.1515 31.5151 91.1515Z" fill="#0C1142"/>
<path d="M41.2121 91.1515C42.0154 91.1515 42.6666 90.5003 42.6666 89.697C42.6666 88.8937 42.0154 88.2424 41.2121 88.2424C40.4088 88.2424 39.7576 88.8937 39.7576 89.697C39.7576 90.5003 40.4088 91.1515 41.2121 91.1515Z" fill="#0C1142"/>
<path d="M70.3029 91.1515C71.1063 91.1515 71.7575 90.5003 71.7575 89.697C71.7575 88.8937 71.1063 88.2424 70.3029 88.2424C69.4996 88.2424 68.8484 88.8937 68.8484 89.697C68.8484 90.5003 69.4996 91.1515 70.3029 91.1515Z" fill="#0C1142"/>
<path d="M84.8483 91.1515C85.6517 91.1515 86.3029 90.5003 86.3029 89.697C86.3029 88.8937 85.6517 88.2424 84.8483 88.2424C84.045 88.2424 83.3938 88.8937 83.3938 89.697C83.3938 90.5003 84.045 91.1515 84.8483 91.1515Z" fill="#0C1142"/>
<path d="M104.242 91.1515C105.046 91.1515 105.697 90.5003 105.697 89.697C105.697 88.8937 105.046 88.2424 104.242 88.2424C103.439 88.2424 102.788 88.8937 102.788 89.697C102.788 90.5003 103.439 91.1515 104.242 91.1515Z" fill="#0C1142"/>
<path d="M109.091 91.1515C109.894 91.1515 110.545 90.5003 110.545 89.697C110.545 88.8937 109.894 88.2424 109.091 88.2424C108.287 88.2424 107.636 88.8937 107.636 89.697C107.636 90.5003 108.287 91.1515 109.091 91.1515Z" fill="#0C1142"/>
<path d="M133.333 91.1515C134.137 91.1515 134.788 90.5003 134.788 89.697C134.788 88.8937 134.137 88.2424 133.333 88.2424C132.53 88.2424 131.879 88.8937 131.879 89.697C131.879 90.5003 132.53 91.1515 133.333 91.1515Z" fill="#0C1142"/>
<path d="M12.1213 95.9999C12.9246 95.9999 13.5758 95.3487 13.5758 94.5454C13.5758 93.742 12.9246 93.0908 12.1213 93.0908C11.318 93.0908 10.6667 93.742 10.6667 94.5454C10.6667 95.3487 11.318 95.9999 12.1213 95.9999Z" fill="#0C1142"/>
<path d="M26.6667 95.9999C27.47 95.9999 28.1212 95.3487 28.1212 94.5454C28.1212 93.742 27.47 93.0908 26.6667 93.0908C25.8634 93.0908 25.2122 93.742 25.2122 94.5454C25.2122 95.3487 25.8634 95.9999 26.6667 95.9999Z" fill="#0C1142"/>
<path d="M50.9092 95.9999C51.7125 95.9999 52.3637 95.3487 52.3637 94.5454C52.3637 93.742 51.7125 93.0908 50.9092 93.0908C50.1058 93.0908 49.4546 93.742 49.4546 94.5454C49.4546 95.3487 50.1058 95.9999 50.9092 95.9999Z" fill="#0C1142"/>
<path d="M55.7575 95.9999C56.5608 95.9999 57.2121 95.3487 57.2121 94.5454C57.2121 93.742 56.5608 93.0908 55.7575 93.0908C54.9542 93.0908 54.303 93.742 54.303 94.5454C54.303 95.3487 54.9542 95.9999 55.7575 95.9999Z" fill="#0C1142"/>
<path d="M94.5454 95.9999C95.3487 95.9999 95.9999 95.3487 95.9999 94.5454C95.9999 93.742 95.3487 93.0908 94.5454 93.0908C93.742 93.0908 93.0908 93.742 93.0908 94.5454C93.0908 95.3487 93.742 95.9999 94.5454 95.9999Z" fill="#0C1142"/>
<path d="M99.394 95.9999C100.197 95.9999 100.849 95.3487 100.849 94.5454C100.849 93.742 100.197 93.0908 99.394 93.0908C98.5907 93.0908 97.9395 93.742 97.9395 94.5454C97.9395 95.3487 98.5907 95.9999 99.394 95.9999Z" fill="#0C1142"/>
<path d="M104.242 95.9999C105.046 95.9999 105.697 95.3487 105.697 94.5454C105.697 93.742 105.046 93.0908 104.242 93.0908C103.439 93.0908 102.788 93.742 102.788 94.5454C102.788 95.3487 103.439 95.9999 104.242 95.9999Z" fill="#0C1142"/>
<path d="M128.485 95.9999C129.288 95.9999 129.939 95.3487 129.939 94.5454C129.939 93.742 129.288 93.0908 128.485 93.0908C127.681 93.0908 127.03 93.742 127.03 94.5454C127.03 95.3487 127.681 95.9999 128.485 95.9999Z" fill="#0C1142"/>
<path d="M138.182 95.9999C138.985 95.9999 139.636 95.3487 139.636 94.5454C139.636 93.742 138.985 93.0908 138.182 93.0908C137.379 93.0908 136.727 93.742 136.727 94.5454C136.727 95.3487 137.379 95.9999 138.182 95.9999Z" fill="#0C1142"/>
<path d="M143.03 95.9999C143.834 95.9999 144.485 95.3487 144.485 94.5454C144.485 93.742 143.834 93.0908 143.03 93.0908C142.227 93.0908 141.576 93.742 141.576 94.5454C141.576 95.3487 142.227 95.9999 143.03 95.9999Z" fill="#0C1142"/>
<path d="M12.1213 100.849C12.9246 100.849 13.5758 100.197 13.5758 99.394C13.5758 98.5907 12.9246 97.9395 12.1213 97.9395C11.318 97.9395 10.6667 98.5907 10.6667 99.394C10.6667 100.197 11.318 100.849 12.1213 100.849Z" fill="#0C1142"/>
<path d="M16.9697 100.849C17.773 100.849 18.4242 100.197 18.4242 99.394C18.4242 98.5907 17.773 97.9395 16.9697 97.9395C16.1664 97.9395 15.5151 98.5907 15.5151 99.394C15.5151 100.197 16.1664 100.849 16.9697 100.849Z" fill="#0C1142"/>
<path d="M21.8181 100.849C22.6214 100.849 23.2726 100.197 23.2726 99.394C23.2726 98.5907 22.6214 97.9395 21.8181 97.9395C21.0147 97.9395 20.3635 98.5907 20.3635 99.394C20.3635 100.197 21.0147 100.849 21.8181 100.849Z" fill="#0C1142"/>
<path d="M41.2121 100.849C42.0154 100.849 42.6666 100.197 42.6666 99.394C42.6666 98.5907 42.0154 97.9395 41.2121 97.9395C40.4088 97.9395 39.7576 98.5907 39.7576 99.394C39.7576 100.197 40.4088 100.849 41.2121 100.849Z" fill="#0C1142"/>
<path d="M46.0605 100.849C46.8638 100.849 47.515 100.197 47.515 99.394C47.515 98.5907 46.8638 97.9395 46.0605 97.9395C45.2572 97.9395 44.606 98.5907 44.606 99.394C44.606 100.197 45.2572 100.849 46.0605 100.849Z" fill="#0C1142"/>
<path d="M55.7575 100.849C56.5608 100.849 57.2121 100.197 57.2121 99.394C57.2121 98.5907 56.5608 97.9395 55.7575 97.9395C54.9542 97.9395 54.303 98.5907 54.303 99.394C54.303 100.197 54.9542 100.849 55.7575 100.849Z" fill="#0C1142"/>
<path d="M60.6062 100.849C61.4095 100.849 62.0607 100.197 62.0607 99.394C62.0607 98.5907 61.4095 97.9395 60.6062 97.9395C59.8028 97.9395 59.1516 98.5907 59.1516 99.394C59.1516 100.197 59.8028 100.849 60.6062 100.849Z" fill="#0C1142"/>
<path d="M75.1516 100.849C75.9549 100.849 76.6061 100.197 76.6061 99.394C76.6061 98.5907 75.9549 97.9395 75.1516 97.9395C74.3482 97.9395 73.697 98.5907 73.697 99.394C73.697 100.197 74.3482 100.849 75.1516 100.849Z" fill="#0C1142"/>
<path d="M80 100.849C80.8033 100.849 81.4545 100.197 81.4545 99.394C81.4545 98.5907 80.8033 97.9395 80 97.9395C79.1966 97.9395 78.5454 98.5907 78.5454 99.394C78.5454 100.197 79.1966 100.849 80 100.849Z" fill="#0C1142"/>
<path d="M89.697 100.849C90.5003 100.849 91.1515 100.197 91.1515 99.394C91.1515 98.5907 90.5003 97.9395 89.697 97.9395C88.8937 97.9395 88.2424 98.5907 88.2424 99.394C88.2424 100.197 88.8937 100.849 89.697 100.849Z" fill="#0C1142"/>
<path d="M99.394 100.849C100.197 100.849 100.849 100.197 100.849 99.394C100.849 98.5907 100.197 97.9395 99.394 97.9395C98.5907 97.9395 97.9395 98.5907 97.9395 99.394C97.9395 100.197 98.5907 100.849 99.394 100.849Z" fill="#0C1142"/>
<path d="M104.242 100.849C105.046 100.849 105.697 100.197 105.697 99.394C105.697 98.5907 105.046 97.9395 104.242 97.9395C103.439 97.9395 102.788 98.5907 102.788 99.394C102.788 100.197 103.439 100.849 104.242 100.849Z" fill="#0C1142"/>
<path d="M113.939 100.849C114.743 100.849 115.394 100.197 115.394 99.394C115.394 98.5907 114.743 97.9395 113.939 97.9395C113.136 97.9395 112.485 98.5907 112.485 99.394C112.485 100.197 113.136 100.849 113.939 100.849Z" fill="#0C1142"/>
<path d="M118.788 100.849C119.591 100.849 120.242 100.197 120.242 99.394C120.242 98.5907 119.591 97.9395 118.788 97.9395C117.984 97.9395 117.333 98.5907 117.333 99.394C117.333 100.197 117.984 100.849 118.788 100.849Z" fill="#0C1142"/>
<path d="M133.333 100.849C134.137 100.849 134.788 100.197 134.788 99.394C134.788 98.5907 134.137 97.9395 133.333 97.9395C132.53 97.9395 131.879 98.5907 131.879 99.394C131.879 100.197 132.53 100.849 133.333 100.849Z" fill="#0C1142"/>
<path d="M147.879 100.849C148.682 100.849 149.333 100.197 149.333 99.394C149.333 98.5907 148.682 97.9395 147.879 97.9395C147.075 97.9395 146.424 98.5907 146.424 99.394C146.424 100.197 147.075 100.849 147.879 100.849Z" fill="#0C1142"/>
<path d="M12.1213 105.697C12.9246 105.697 13.5758 105.046 13.5758 104.242C13.5758 103.439 12.9246 102.788 12.1213 102.788C11.318 102.788 10.6667 103.439 10.6667 104.242C10.6667 105.046 11.318 105.697 12.1213 105.697Z" fill="#0C1142"/>
<path d="M16.9697 105.697C17.773 105.697 18.4242 105.046 18.4242 104.242C18.4242 103.439 17.773 102.788 16.9697 102.788C16.1664 102.788 15.5151 103.439 15.5151 104.242C15.5151 105.046 16.1664 105.697 16.9697 105.697Z" fill="#0C1142"/>
<path d="M31.5151 105.697C32.3184 105.697 32.9696 105.046 32.9696 104.242C32.9696 103.439 32.3184 102.788 31.5151 102.788C30.7118 102.788 30.0605 103.439 30.0605 104.242C30.0605 105.046 30.7118 105.697 31.5151 105.697Z" fill="#0C1142"/>
<path d="M36.3635 105.697C37.1668 105.697 37.818 105.046 37.818 104.242C37.818 103.439 37.1668 102.788 36.3635 102.788C35.5602 102.788 34.9089 103.439 34.9089 104.242C34.9089 105.046 35.5602 105.697 36.3635 105.697Z" fill="#0C1142"/>
<path d="M46.0605 105.697C46.8638 105.697 47.515 105.046 47.515 104.242C47.515 103.439 46.8638 102.788 46.0605 102.788C45.2572 102.788 44.606 103.439 44.606 104.242C44.606 105.046 45.2572 105.697 46.0605 105.697Z" fill="#0C1142"/>
<path d="M50.9092 105.697C51.7125 105.697 52.3637 105.046 52.3637 104.242C52.3637 103.439 51.7125 102.788 50.9092 102.788C50.1058 102.788 49.4546 103.439 49.4546 104.242C49.4546 105.046 50.1058 105.697 50.9092 105.697Z" fill="#0C1142"/>
<path d="M55.7575 105.697C56.5608 105.697 57.2121 105.046 57.2121 104.242C57.2121 103.439 56.5608 102.788 55.7575 102.788C54.9542 102.788 54.303 103.439 54.303 104.242C54.303 105.046 54.9542 105.697 55.7575 105.697Z" fill="#0C1142"/>
<path d="M60.6062 105.697C61.4095 105.697 62.0607 105.046 62.0607 104.242C62.0607 103.439 61.4095 102.788 60.6062 102.788C59.8028 102.788 59.1516 103.439 59.1516 104.242C59.1516 105.046 59.8028 105.697 60.6062 105.697Z" fill="#0C1142"/>
<path d="M65.4545 105.697C66.2579 105.697 66.9091 105.046 66.9091 104.242C66.9091 103.439 66.2579 102.788 65.4545 102.788C64.6512 102.788 64 103.439 64 104.242C64 105.046 64.6512 105.697 65.4545 105.697Z" fill="#0C1142"/>
<path d="M75.1516 105.697C75.9549 105.697 76.6061 105.046 76.6061 104.242C76.6061 103.439 75.9549 102.788 75.1516 102.788C74.3482 102.788 73.697 103.439 73.697 104.242C73.697 105.046 74.3482 105.697 75.1516 105.697Z" fill="#0C1142"/>
<path d="M84.8483 105.697C85.6517 105.697 86.3029 105.046 86.3029 104.242C86.3029 103.439 85.6517 102.788 84.8483 102.788C84.045 102.788 83.3938 103.439 83.3938 104.242C83.3938 105.046 84.045 105.697 84.8483 105.697Z" fill="#0C1142"/>
<path d="M89.697 105.697C90.5003 105.697 91.1515 105.046 91.1515 104.242C91.1515 103.439 90.5003 102.788 89.697 102.788C88.8937 102.788 88.2424 103.439 88.2424 104.242C88.2424 105.046 88.8937 105.697 89.697 105.697Z" fill="#0C1142"/>
<path d="M104.242 105.697C105.046 105.697 105.697 105.046 105.697 104.242C105.697 103.439 105.046 102.788 104.242 102.788C103.439 102.788 102.788 103.439 102.788 104.242C102.788 105.046 103.439 105.697 104.242 105.697Z" fill="#0C1142"/>
<path d="M113.939 105.697C114.743 105.697 115.394 105.046 115.394 104.242C115.394 103.439 114.743 102.788 113.939 102.788C113.136 102.788 112.485 103.439 112.485 104.242C112.485 105.046 113.136 105.697 113.939 105.697Z" fill="#0C1142"/>
<path d="M118.788 105.697C119.591 105.697 120.242 105.046 120.242 104.242C120.242 103.439 119.591 102.788 118.788 102.788C117.984 102.788 117.333 103.439 117.333 104.242C117.333 105.046 117.984 105.697 118.788 105.697Z" fill="#0C1142"/>
<path d="M123.636 105.697C124.44 105.697 125.091 105.046 125.091 104.242C125.091 103.439 124.44 102.788 123.636 102.788C122.833 102.788 122.182 103.439 122.182 104.242C122.182 105.046 122.833 105.697 123.636 105.697Z" fill="#0C1142"/>
<path d="M128.485 105.697C129.288 105.697 129.939 105.046 129.939 104.242C129.939 103.439 129.288 102.788 128.485 102.788C127.681 102.788 127.03 103.439 127.03 104.242C127.03 105.046 127.681 105.697 128.485 105.697Z" fill="#0C1142"/>
<path d="M133.333 105.697C134.137 105.697 134.788 105.046 134.788 104.242C134.788 103.439 134.137 102.788 133.333 102.788C132.53 102.788 131.879 103.439 131.879 104.242C131.879 105.046 132.53 105.697 133.333 105.697Z" fill="#0C1142"/>
<path d="M138.182 105.697C138.985 105.697 139.636 105.046 139.636 104.242C139.636 103.439 138.985 102.788 138.182 102.788C137.379 102.788 136.727 103.439 136.727 104.242C136.727 105.046 137.379 105.697 138.182 105.697Z" fill="#0C1142"/>
<path d="M12.1213 110.545C12.9246 110.545 13.5758 109.894 13.5758 109.091C13.5758 108.287 12.9246 107.636 12.1213 107.636C11.318 107.636 10.6667 108.287 10.6667 109.091C10.6667 109.894 11.318 110.545 12.1213 110.545Z" fill="#0C1142"/>
<path d="M16.9697 110.545C17.773 110.545 18.4242 109.894 18.4242 109.091C18.4242 108.287 17.773 107.636 16.9697 107.636C16.1664 107.636 15.5151 108.287 15.5151 109.091C15.5151 109.894 16.1664 110.545 16.9697 110.545Z" fill="#0C1142"/>
<path d="M21.8181 110.545C22.6214 110.545 23.2726 109.894 23.2726 109.091C23.2726 108.287 22.6214 107.636 21.8181 107.636C21.0147 107.636 20.3635 108.287 20.3635 109.091C20.3635 109.894 21.0147 110.545 21.8181 110.545Z" fill="#0C1142"/>
<path d="M36.3635 110.545C37.1668 110.545 37.818 109.894 37.818 109.091C37.818 108.287 37.1668 107.636 36.3635 107.636C35.5602 107.636 34.9089 108.287 34.9089 109.091C34.9089 109.894 35.5602 110.545 36.3635 110.545Z" fill="#0C1142"/>
<path d="M41.2121 110.545C42.0154 110.545 42.6666 109.894 42.6666 109.091C42.6666 108.287 42.0154 107.636 41.2121 107.636C40.4088 107.636 39.7576 108.287 39.7576 109.091C39.7576 109.894 40.4088 110.545 41.2121 110.545Z" fill="#0C1142"/>
<path d="M55.7575 110.545C56.5608 110.545 57.2121 109.894 57.2121 109.091C57.2121 108.287 56.5608 107.636 55.7575 107.636C54.9542 107.636 54.303 108.287 54.303 109.091C54.303 109.894 54.9542 110.545 55.7575 110.545Z" fill="#0C1142"/>
<path d="M60.6062 110.545C61.4095 110.545 62.0607 109.894 62.0607 109.091C62.0607 108.287 61.4095 107.636 60.6062 107.636C59.8028 107.636 59.1516 108.287 59.1516 109.091C59.1516 109.894 59.8028 110.545 60.6062 110.545Z" fill="#0C1142"/>
<path d="M70.3029 110.545C71.1063 110.545 71.7575 109.894 71.7575 109.091C71.7575 108.287 71.1063 107.636 70.3029 107.636C69.4996 107.636 68.8484 108.287 68.8484 109.091C68.8484 109.894 69.4996 110.545 70.3029 110.545Z" fill="#0C1142"/>
<path d="M75.1516 110.545C75.9549 110.545 76.6061 109.894 76.6061 109.091C76.6061 108.287 75.9549 107.636 75.1516 107.636C74.3482 107.636 73.697 108.287 73.697 109.091C73.697 109.894 74.3482 110.545 75.1516 110.545Z" fill="#0C1142"/>
<path d="M94.5454 110.545C95.3487 110.545 95.9999 109.894 95.9999 109.091C95.9999 108.287 95.3487 107.636 94.5454 107.636C93.742 107.636 93.0908 108.287 93.0908 109.091C93.0908 109.894 93.742 110.545 94.5454 110.545Z" fill="#0C1142"/>
<path d="M104.242 110.545C105.046 110.545 105.697 109.894 105.697 109.091C105.697 108.287 105.046 107.636 104.242 107.636C103.439 107.636 102.788 108.287 102.788 109.091C102.788 109.894 103.439 110.545 104.242 110.545Z" fill="#0C1142"/>
<path d="M109.091 110.545C109.894 110.545 110.545 109.894 110.545 109.091C110.545 108.287 109.894 107.636 109.091 107.636C108.287 107.636 107.636 108.287 107.636 109.091C107.636 109.894 108.287 110.545 109.091 110.545Z" fill="#0C1142"/>
<path d="M113.939 110.545C114.743 110.545 115.394 109.894 115.394 109.091C115.394 108.287 114.743 107.636 113.939 107.636C113.136 107.636 112.485 108.287 112.485 109.091C112.485 109.894 113.136 110.545 113.939 110.545Z" fill="#0C1142"/>
<path d="M118.788 110.545C119.591 110.545 120.242 109.894 120.242 109.091C120.242 108.287 119.591 107.636 118.788 107.636C117.984 107.636 117.333 108.287 117.333 109.091C117.333 109.894 117.984 110.545 118.788 110.545Z" fill="#0C1142"/>
<path d="M123.636 110.545C124.44 110.545 125.091 109.894 125.091 109.091C125.091 108.287 124.44 107.636 123.636 107.636C122.833 107.636 122.182 108.287 122.182 109.091C122.182 109.894 122.833 110.545 123.636 110.545Z" fill="#0C1142"/>
<path d="M128.485 110.545C129.288 110.545 129.939 109.894 129.939 109.091C129.939 108.287 129.288 107.636 128.485 107.636C127.681 107.636 127.03 108.287 127.03 109.091C127.03 109.894 127.681 110.545 128.485 110.545Z" fill="#0C1142"/>
<path d="M133.333 110.545C134.137 110.545 134.788 109.894 134.788 109.091C134.788 108.287 134.137 107.636 133.333 107.636C132.53 107.636 131.879 108.287 131.879 109.091C131.879 109.894 132.53 110.545 133.333 110.545Z" fill="#0C1142"/>
<path d="M138.182 110.545C138.985 110.545 139.636 109.894 139.636 109.091C139.636 108.287 138.985 107.636 138.182 107.636C137.379 107.636 136.727 108.287 136.727 109.091C136.727 109.894 137.379 110.545 138.182 110.545Z" fill="#0C1142"/>
<path d="M143.03 110.545C143.834 110.545 144.485 109.894 144.485 109.091C144.485 108.287 143.834 107.636 143.03 107.636C142.227 107.636 141.576 108.287 141.576 109.091C141.576 109.894 142.227 110.545 143.03 110.545Z" fill="#0C1142"/>
<path d="M50.9092 115.394C51.7125 115.394 52.3637 114.743 52.3637 113.939C52.3637 113.136 51.7125 112.485 50.9092 112.485C50.1058 112.485 49.4546 113.136 49.4546 113.939C49.4546 114.743 50.1058 115.394 50.9092 115.394Z" fill="#0C1142"/>
<path d="M65.4545 115.394C66.2579 115.394 66.9091 114.743 66.9091 113.939C66.9091 113.136 66.2579 112.485 65.4545 112.485C64.6512 112.485 64 113.136 64 113.939C64 114.743 64.6512 115.394 65.4545 115.394Z" fill="#0C1142"/>
<path d="M75.1516 115.394C75.9549 115.394 76.6061 114.743 76.6061 113.939C76.6061 113.136 75.9549 112.485 75.1516 112.485C74.3482 112.485 73.697 113.136 73.697 113.939C73.697 114.743 74.3482 115.394 75.1516 115.394Z" fill="#0C1142"/>
<path d="M89.697 115.394C90.5003 115.394 91.1515 114.743 91.1515 113.939C91.1515 113.136 90.5003 112.485 89.697 112.485C88.8937 112.485 88.2424 113.136 88.2424 113.939C88.2424 114.743 88.8937 115.394 89.697 115.394Z" fill="#0C1142"/>
<path d="M94.5454 115.394C95.3487 115.394 95.9999 114.743 95.9999 113.939C95.9999 113.136 95.3487 112.485 94.5454 112.485C93.742 112.485 93.0908 113.136 93.0908 113.939C93.0908 114.743 93.742 115.394 94.5454 115.394Z" fill="#0C1142"/>
<path d="M99.394 115.394C100.197 115.394 100.849 114.743 100.849 113.939C100.849 113.136 100.197 112.485 99.394 112.485C98.5907 112.485 97.9395 113.136 97.9395 113.939C97.9395 114.743 98.5907 115.394 99.394 115.394Z" fill="#0C1142"/>
<path d="M109.091 115.394C109.894 115.394 110.545 114.743 110.545 113.939C110.545 113.136 109.894 112.485 109.091 112.485C108.287 112.485 107.636 113.136 107.636 113.939C107.636 114.743 108.287 115.394 109.091 115.394Z" fill="#0C1142"/>
<path d="M128.485 115.394C129.288 115.394 129.939 114.743 129.939 113.939C129.939 113.136 129.288 112.485 128.485 112.485C127.681 112.485 127.03 113.136 127.03 113.939C127.03 114.743 127.681 115.394 128.485 115.394Z" fill="#0C1142"/>
<path d="M133.333 115.394C134.137 115.394 134.788 114.743 134.788 113.939C134.788 113.136 134.137 112.485 133.333 112.485C132.53 112.485 131.879 113.136 131.879 113.939C131.879 114.743 132.53 115.394 133.333 115.394Z" fill="#0C1142"/>
<path d="M50.9092 120.242C51.7125 120.242 52.3637 119.591 52.3637 118.788C52.3637 117.984 51.7125 117.333 50.9092 117.333C50.1058 117.333 49.4546 117.984 49.4546 118.788C49.4546 119.591 50.1058 120.242 50.9092 120.242Z" fill="#0C1142"/>
<path d="M75.1516 120.242C75.9549 120.242 76.6061 119.591 76.6061 118.788C76.6061 117.984 75.9549 117.333 75.1516 117.333C74.3482 117.333 73.697 117.984 73.697 118.788C73.697 119.591 74.3482 120.242 75.1516 120.242Z" fill="#0C1142"/>
<path d="M84.8483 120.242C85.6517 120.242 86.3029 119.591 86.3029 118.788C86.3029 117.984 85.6517 117.333 84.8483 117.333C84.045 117.333 83.3938 117.984 83.3938 118.788C83.3938 119.591 84.045 120.242 84.8483 120.242Z" fill="#0C1142"/>
<path d="M89.697 120.242C90.5003 120.242 91.1515 119.591 91.1515 118.788C91.1515 117.984 90.5003 117.333 89.697 117.333C88.8937 117.333 88.2424 117.984 88.2424 118.788C88.2424 119.591 88.8937 120.242 89.697 120.242Z" fill="#0C1142"/>
<path d="M104.242 120.242C105.046 120.242 105.697 119.591 105.697 118.788C105.697 117.984 105.046 117.333 104.242 117.333C103.439 117.333 102.788 117.984 102.788 118.788C102.788 119.591 103.439 120.242 104.242 120.242Z" fill="#0C1142"/>
<path d="M109.091 120.242C109.894 120.242 110.545 119.591 110.545 118.788C110.545 117.984 109.894 117.333 109.091 117.333C108.287 117.333 107.636 117.984 107.636 118.788C107.636 119.591 108.287 120.242 109.091 120.242Z" fill="#0C1142"/>
<path d="M118.788 120.242C119.591 120.242 120.242 119.591 120.242 118.788C120.242 117.984 119.591 117.333 118.788 117.333C117.984 117.333 117.333 117.984 117.333 118.788C117.333 119.591 117.984 120.242 118.788 120.242Z" fill="#0C1142"/>
<path d="M128.485 120.242C129.288 120.242 129.939 119.591 129.939 118.788C129.939 117.984 129.288 117.333 128.485 117.333C127.681 117.333 127.03 117.984 127.03 118.788C127.03 119.591 127.681 120.242 128.485 120.242Z" fill="#0C1142"/>
<path d="M133.333 120.242C134.137 120.242 134.788 119.591 134.788 118.788C134.788 117.984 134.137 117.333 133.333 117.333C132.53 117.333 131.879 117.984 131.879 118.788C131.879 119.591 132.53 120.242 133.333 120.242Z" fill="#0C1142"/>
<path d="M50.9092 125.091C51.7125 125.091 52.3637 124.44 52.3637 123.636C52.3637 122.833 51.7125 122.182 50.9092 122.182C50.1058 122.182 49.4546 122.833 49.4546 123.636C49.4546 124.44 50.1058 125.091 50.9092 125.091Z" fill="#0C1142"/>
<path d="M55.7575 125.091C56.5608 125.091 57.2121 124.44 57.2121 123.636C57.2121 122.833 56.5608 122.182 55.7575 122.182C54.9542 122.182 54.303 122.833 54.303 123.636C54.303 124.44 54.9542 125.091 55.7575 125.091Z" fill="#0C1142"/>
<path d="M60.6062 125.091C61.4095 125.091 62.0607 124.44 62.0607 123.636C62.0607 122.833 61.4095 122.182 60.6062 122.182C59.8028 122.182 59.1516 122.833 59.1516 123.636C59.1516 124.44 59.8028 125.091 60.6062 125.091Z" fill="#0C1142"/>
<path d="M70.3029 125.091C71.1063 125.091 71.7575 124.44 71.7575 123.636C71.7575 122.833 71.1063 122.182 70.3029 122.182C69.4996 122.182 68.8484 122.833 68.8484 123.636C68.8484 124.44 69.4996 125.091 70.3029 125.091Z" fill="#0C1142"/>
<path d="M75.1516 125.091C75.9549 125.091 76.6061 124.44 76.6061 123.636C76.6061 122.833 75.9549 122.182 75.1516 122.182C74.3482 122.182 73.697 122.833 73.697 123.636C73.697 124.44 74.3482 125.091 75.1516 125.091Z" fill="#0C1142"/>
<path d="M89.697 125.091C90.5003 125.091 91.1515 124.44 91.1515 123.636C91.1515 122.833 90.5003 122.182 89.697 122.182C88.8937 122.182 88.2424 122.833 88.2424 123.636C88.2424 124.44 88.8937 125.091 89.697 125.091Z" fill="#0C1142"/>
<path d="M94.5454 125.091C95.3487 125.091 95.9999 124.44 95.9999 123.636C95.9999 122.833 95.3487 122.182 94.5454 122.182C93.742 122.182 93.0908 122.833 93.0908 123.636C93.0908 124.44 93.742 125.091 94.5454 125.091Z" fill="#0C1142"/>
<path d="M104.242 125.091C105.046 125.091 105.697 124.44 105.697 123.636C105.697 122.833 105.046 122.182 104.242 122.182C103.439 122.182 102.788 122.833 102.788 123.636C102.788 124.44 103.439 125.091 104.242 125.091Z" fill="#0C1142"/>
<path d="M109.091 125.091C109.894 125.091 110.545 124.44 110.545 123.636C110.545 122.833 109.894 122.182 109.091 122.182C108.287 122.182 107.636 122.833 107.636 123.636C107.636 124.44 108.287 125.091 109.091 125.091Z" fill="#0C1142"/>
<path d="M128.485 125.091C129.288 125.091 129.939 124.44 129.939 123.636C129.939 122.833 129.288 122.182 128.485 122.182C127.681 122.182 127.03 122.833 127.03 123.636C127.03 124.44 127.681 125.091 128.485 125.091Z" fill="#0C1142"/>
<path d="M143.03 125.091C143.834 125.091 144.485 124.44 144.485 123.636C144.485 122.833 143.834 122.182 143.03 122.182C142.227 122.182 141.576 122.833 141.576 123.636C141.576 124.44 142.227 125.091 143.03 125.091Z" fill="#0C1142"/>
<path d="M147.879 125.091C148.682 125.091 149.333 124.44 149.333 123.636C149.333 122.833 148.682 122.182 147.879 122.182C147.075 122.182 146.424 122.833 146.424 123.636C146.424 124.44 147.075 125.091 147.879 125.091Z" fill="#0C1142"/>
<path d="M50.9092 129.939C51.7125 129.939 52.3637 129.288 52.3637 128.485C52.3637 127.681 51.7125 127.03 50.9092 127.03C50.1058 127.03 49.4546 127.681 49.4546 128.485C49.4546 129.288 50.1058 129.939 50.9092 129.939Z" fill="#0C1142"/>
<path d="M65.4545 129.939C66.2579 129.939 66.9091 129.288 66.9091 128.485C66.9091 127.681 66.2579 127.03 65.4545 127.03C64.6512 127.03 64 127.681 64 128.485C64 129.288 64.6512 129.939 65.4545 129.939Z" fill="#0C1142"/>
<path d="M70.3029 129.939C71.1063 129.939 71.7575 129.288 71.7575 128.485C71.7575 127.681 71.1063 127.03 70.3029 127.03C69.4996 127.03 68.8484 127.681 68.8484 128.485C68.8484 129.288 69.4996 129.939 70.3029 129.939Z" fill="#0C1142"/>
<path d="M75.1516 129.939C75.9549 129.939 76.6061 129.288 76.6061 128.485C76.6061 127.681 75.9549 127.03 75.1516 127.03C74.3482 127.03 73.697 127.681 73.697 128.485C73.697 129.288 74.3482 129.939 75.1516 129.939Z" fill="#0C1142"/>
<path d="M84.8483 129.939C85.6517 129.939 86.3029 129.288 86.3029 128.485C86.3029 127.681 85.6517 127.03 84.8483 127.03C84.045 127.03 83.3938 127.681 83.3938 128.485C83.3938 129.288 84.045 129.939 84.8483 129.939Z" fill="#0C1142"/>
<path d="M89.697 129.939C90.5003 129.939 91.1515 129.288 91.1515 128.485C91.1515 127.681 90.5003 127.03 89.697 127.03C88.8937 127.03 88.2424 127.681 88.2424 128.485C88.2424 129.288 88.8937 129.939 89.697 129.939Z" fill="#0C1142"/>
<path d="M104.242 129.939C105.046 129.939 105.697 129.288 105.697 128.485C105.697 127.681 105.046 127.03 104.242 127.03C103.439 127.03 102.788 127.681 102.788 128.485C102.788 129.288 103.439 129.939 104.242 129.939Z" fill="#0C1142"/>
<path d="M109.091 129.939C109.894 129.939 110.545 129.288 110.545 128.485C110.545 127.681 109.894 127.03 109.091 127.03C108.287 127.03 107.636 127.681 107.636 128.485C107.636 129.288 108.287 129.939 109.091 129.939Z" fill="#0C1142"/>
<path d="M113.939 129.939C114.743 129.939 115.394 129.288 115.394 128.485C115.394 127.681 114.743 127.03 113.939 127.03C113.136 127.03 112.485 127.681 112.485 128.485C112.485 129.288 113.136 129.939 113.939 129.939Z" fill="#0C1142"/>
<path d="M118.788 129.939C119.591 129.939 120.242 129.288 120.242 128.485C120.242 127.681 119.591 127.03 118.788 127.03C117.984 127.03 117.333 127.681 117.333 128.485C117.333 129.288 117.984 129.939 118.788 129.939Z" fill="#0C1142"/>
<path d="M123.636 129.939C124.44 129.939 125.091 129.288 125.091 128.485C125.091 127.681 124.44 127.03 123.636 127.03C122.833 127.03 122.182 127.681 122.182 128.485C122.182 129.288 122.833 129.939 123.636 129.939Z" fill="#0C1142"/>
<path d="M128.485 129.939C129.288 129.939 129.939 129.288 129.939 128.485C129.939 127.681 129.288 127.03 128.485 127.03C127.681 127.03 127.03 127.681 127.03 128.485C127.03 129.288 127.681 129.939 128.485 129.939Z" fill="#0C1142"/>
<path d="M133.333 129.939C134.137 129.939 134.788 129.288 134.788 128.485C134.788 127.681 134.137 127.03 133.333 127.03C132.53 127.03 131.879 127.681 131.879 128.485C131.879 129.288 132.53 129.939 133.333 129.939Z" fill="#0C1142"/>
<path d="M50.9092 134.788C51.7125 134.788 52.3637 134.137 52.3637 133.333C52.3637 132.53 51.7125 131.879 50.9092 131.879C50.1058 131.879 49.4546 132.53 49.4546 133.333C49.4546 134.137 50.1058 134.788 50.9092 134.788Z" fill="#0C1142"/>
<path d="M70.3029 134.788C71.1063 134.788 71.7575 134.137 71.7575 133.333C71.7575 132.53 71.1063 131.879 70.3029 131.879C69.4996 131.879 68.8484 132.53 68.8484 133.333C68.8484 134.137 69.4996 134.788 70.3029 134.788Z" fill="#0C1142"/>
<path d="M75.1516 134.788C75.9549 134.788 76.6061 134.137 76.6061 133.333C76.6061 132.53 75.9549 131.879 75.1516 131.879C74.3482 131.879 73.697 132.53 73.697 133.333C73.697 134.137 74.3482 134.788 75.1516 134.788Z" fill="#0C1142"/>
<path d="M80 134.788C80.8033 134.788 81.4545 134.137 81.4545 133.333C81.4545 132.53 80.8033 131.879 80 131.879C79.1966 131.879 78.5454 132.53 78.5454 133.333C78.5454 134.137 79.1966 134.788 80 134.788Z" fill="#0C1142"/>
<path d="M89.697 134.788C90.5003 134.788 91.1515 134.137 91.1515 133.333C91.1515 132.53 90.5003 131.879 89.697 131.879C88.8937 131.879 88.2424 132.53 88.2424 133.333C88.2424 134.137 88.8937 134.788 89.697 134.788Z" fill="#0C1142"/>
<path d="M94.5454 134.788C95.3487 134.788 95.9999 134.137 95.9999 133.333C95.9999 132.53 95.3487 131.879 94.5454 131.879C93.742 131.879 93.0908 132.53 93.0908 133.333C93.0908 134.137 93.742 134.788 94.5454 134.788Z" fill="#0C1142"/>
<path d="M99.394 134.788C100.197 134.788 100.849 134.137 100.849 133.333C100.849 132.53 100.197 131.879 99.394 131.879C98.5907 131.879 97.9395 132.53 97.9395 133.333C97.9395 134.137 98.5907 134.788 99.394 134.788Z" fill="#0C1142"/>
<path d="M104.242 134.788C105.046 134.788 105.697 134.137 105.697 133.333C105.697 132.53 105.046 131.879 104.242 131.879C103.439 131.879 102.788 132.53 102.788 133.333C102.788 134.137 103.439 134.788 104.242 134.788Z" fill="#0C1142"/>
<path d="M109.091 134.788C109.894 134.788 110.545 134.137 110.545 133.333C110.545 132.53 109.894 131.879 109.091 131.879C108.287 131.879 107.636 132.53 107.636 133.333C107.636 134.137 108.287 134.788 109.091 134.788Z" fill="#0C1142"/>
<path d="M113.939 134.788C114.743 134.788 115.394 134.137 115.394 133.333C115.394 132.53 114.743 131.879 113.939 131.879C113.136 131.879 112.485 132.53 112.485 133.333C112.485 134.137 113.136 134.788 113.939 134.788Z" fill="#0C1142"/>
<path d="M123.636 134.788C124.44 134.788 125.091 134.137 125.091 133.333C125.091 132.53 124.44 131.879 123.636 131.879C122.833 131.879 122.182 132.53 122.182 133.333C122.182 134.137 122.833 134.788 123.636 134.788Z" fill="#0C1142"/>
<path d="M143.03 134.788C143.834 134.788 144.485 134.137 144.485 133.333C144.485 132.53 143.834 131.879 143.03 131.879C142.227 131.879 141.576 132.53 141.576 133.333C141.576 134.137 142.227 134.788 143.03 134.788Z" fill="#0C1142"/>
<path d="M60.6062 139.636C61.4095 139.636 62.0607 138.985 62.0607 138.182C62.0607 137.379 61.4095 136.727 60.6062 136.727C59.8028 136.727 59.1516 137.379 59.1516 138.182C59.1516 138.985 59.8028 139.636 60.6062 139.636Z" fill="#0C1142"/>
<path d="M75.1516 139.636C75.9549 139.636 76.6061 138.985 76.6061 138.182C76.6061 137.379 75.9549 136.727 75.1516 136.727C74.3482 136.727 73.697 137.379 73.697 138.182C73.697 138.985 74.3482 139.636 75.1516 139.636Z" fill="#0C1142"/>
<path d="M89.697 139.636C90.5003 139.636 91.1515 138.985 91.1515 138.182C91.1515 137.379 90.5003 136.727 89.697 136.727C88.8937 136.727 88.2424 137.379 88.2424 138.182C88.2424 138.985 88.8937 139.636 89.697 139.636Z" fill="#0C1142"/>
<path d="M113.939 139.636C114.743 139.636 115.394 138.985 115.394 138.182C115.394 137.379 114.743 136.727 113.939 136.727C113.136 136.727 112.485 137.379 112.485 138.182C112.485 138.985 113.136 139.636 113.939 139.636Z" fill="#0C1142"/>
<path d="M123.636 139.636C124.44 139.636 125.091 138.985 125.091 138.182C125.091 137.379 124.44 136.727 123.636 136.727C122.833 136.727 122.182 137.379 122.182 138.182C122.182 138.985 122.833 139.636 123.636 139.636Z" fill="#0C1142"/>
<path d="M128.485 139.636C129.288 139.636 129.939 138.985 129.939 138.182C129.939 137.379 129.288 136.727 128.485 136.727C127.681 136.727 127.03 137.379 127.03 138.182C127.03 138.985 127.681 139.636 128.485 139.636Z" fill="#0C1142"/>
<path d="M138.182 139.636C138.985 139.636 139.636 138.985 139.636 138.182C139.636 137.379 138.985 136.727 138.182 136.727C137.379 136.727 136.727 137.379 136.727 138.182C136.727 138.985 137.379 139.636 138.182 139.636Z" fill="#0C1142"/>
<path d="M143.03 139.636C143.834 139.636 144.485 138.985 144.485 138.182C144.485 137.379 143.834 136.727 143.03 136.727C142.227 136.727 141.576 137.379 141.576 138.182C141.576 138.985 142.227 139.636 143.03 139.636Z" fill="#0C1142"/>
<path d="M147.879 139.636C148.682 139.636 149.333 138.985 149.333 138.182C149.333 137.379 148.682 136.727 147.879 136.727C147.075 136.727 146.424 137.379 146.424 138.182C146.424 138.985 147.075 139.636 147.879 139.636Z" fill="#0C1142"/>
<path d="M65.4545 144.485C66.2579 144.485 66.9091 143.834 66.9091 143.03C66.9091 142.227 66.2579 141.576 65.4545 141.576C64.6512 141.576 64 142.227 64 143.03C64 143.834 64.6512 144.485 65.4545 144.485Z" fill="#0C1142"/>
<path d="M75.1516 144.485C75.9549 144.485 76.6061 143.834 76.6061 143.03C76.6061 142.227 75.9549 141.576 75.1516 141.576C74.3482 141.576 73.697 142.227 73.697 143.03C73.697 143.834 74.3482 144.485 75.1516 144.485Z" fill="#0C1142"/>
<path d="M84.8483 144.485C85.6517 144.485 86.3029 143.834 86.3029 143.03C86.3029 142.227 85.6517 141.576 84.8483 141.576C84.045 141.576 83.3938 142.227 83.3938 143.03C83.3938 143.834 84.045 144.485 84.8483 144.485Z" fill="#0C1142"/>
<path d="M113.939 144.485C114.743 144.485 115.394 143.834 115.394 143.03C115.394 142.227 114.743 141.576 113.939 141.576C113.136 141.576 112.485 142.227 112.485 143.03C112.485 143.834 113.136 144.485 113.939 144.485Z" fill="#0C1142"/>
<path d="M123.636 144.485C124.44 144.485 125.091 143.834 125.091 143.03C125.091 142.227 124.44 141.576 123.636 141.576C122.833 141.576 122.182 142.227 122.182 143.03C122.182 143.834 122.833 144.485 123.636 144.485Z" fill="#0C1142"/>
<path d="M133.333 144.485C134.137 144.485 134.788 143.834 134.788 143.03C134.788 142.227 134.137 141.576 133.333 141.576C132.53 141.576 131.879 142.227 131.879 143.03C131.879 143.834 132.53 144.485 133.333 144.485Z" fill="#0C1142"/>
<path d="M138.182 144.485C138.985 144.485 139.636 143.834 139.636 143.03C139.636 142.227 138.985 141.576 138.182 141.576C137.379 141.576 136.727 142.227 136.727 143.03C136.727 143.834 137.379 144.485 138.182 144.485Z" fill="#0C1142"/>
<path d="M147.879 144.485C148.682 144.485 149.333 143.834 149.333 143.03C149.333 142.227 148.682 141.576 147.879 141.576C147.075 141.576 146.424 142.227 146.424 143.03C146.424 143.834 147.075 144.485 147.879 144.485Z" fill="#0C1142"/>
<path d="M50.9092 149.333C51.7125 149.333 52.3637 148.682 52.3637 147.879C52.3637 147.075 51.7125 146.424 50.9092 146.424C50.1058 146.424 49.4546 147.075 49.4546 147.879C49.4546 148.682 50.1058 149.333 50.9092 149.333Z" fill="#0C1142"/>
<path d="M65.4545 149.333C66.2579 149.333 66.9091 148.682 66.9091 147.879C66.9091 147.075 66.2579 146.424 65.4545 146.424C64.6512 146.424 64 147.075 64 147.879C64 148.682 64.6512 149.333 65.4545 149.333Z" fill="#0C1142"/>
<path d="M70.3029 149.333C71.1063 149.333 71.7575 148.682 71.7575 147.879C71.7575 147.075 71.1063 146.424 70.3029 146.424C69.4996 146.424 68.8484 147.075 68.8484 147.879C68.8484 148.682 69.4996 149.333 70.3029 149.333Z" fill="#0C1142"/>
<path d="M94.5454 149.333C95.3487 149.333 95.9999 148.682 95.9999 147.879C95.9999 147.075 95.3487 146.424 94.5454 146.424C93.742 146.424 93.0908 147.075 93.0908 147.879C93.0908 148.682 93.742 149.333 94.5454 149.333Z" fill="#0C1142"/>
<path d="M99.394 149.333C100.197 149.333 100.849 148.682 100.849 147.879C100.849 147.075 100.197 146.424 99.394 146.424C98.5907 146.424 97.9395 147.075 97.9395 147.879C97.9395 148.682 98.5907 149.333 99.394 149.333Z" fill="#0C1142"/>
<path d="M104.242 149.333C105.046 149.333 105.697 148.682 105.697 147.879C105.697 147.075 105.046 146.424 104.242 146.424C103.439 146.424 102.788 147.075 102.788 147.879C102.788 148.682 103.439 149.333 104.242 149.333Z" fill="#0C1142"/>
<path d="M109.091 149.333C109.894 149.333 110.545 148.682 110.545 147.879C110.545 147.075 109.894 146.424 109.091 146.424C108.287 146.424 107.636 147.075 107.636 147.879C107.636 148.682 108.287 149.333 109.091 149.333Z" fill="#0C1142"/>
<path d="M118.788 149.333C119.591 149.333 120.242 148.682 120.242 147.879C120.242 147.075 119.591 146.424 118.788 146.424C117.984 146.424 117.333 147.075 117.333 147.879C117.333 148.682 117.984 149.333 118.788 149.333Z" fill="#0C1142"/>
<path d="M128.485 149.333C129.288 149.333 129.939 148.682 129.939 147.879C129.939 147.075 129.288 146.424 128.485 146.424C127.681 146.424 127.03 147.075 127.03 147.879C127.03 148.682 127.681 149.333 128.485 149.333Z" fill="#0C1142"/>
<path d="M133.333 149.333C134.137 149.333 134.788 148.682 134.788 147.879C134.788 147.075 134.137 146.424 133.333 146.424C132.53 146.424 131.879 147.075 131.879 147.879C131.879 148.682 132.53 149.333 133.333 149.333Z" fill="#0C1142"/>
<path d="M26.6667 10.0298C17.4788 10.0298 10.0298 17.4788 10.0298 26.6667C10.0298 35.8547 17.4788 43.3037 26.6667 43.3037C35.8547 43.3037 43.3037 35.8547 43.3037 26.6667C43.3037 17.4788 35.8547 10.0298 26.6667 10.0298ZM26.6667 38.3126C20.2452 38.3126 15.0209 33.0883 15.0209 26.6667C15.0209 20.2452 20.2452 15.0209 26.6667 15.0209C33.0883 15.0209 38.3126 20.2452 38.3126 26.6667C38.3126 33.0883 33.0883 38.3126 26.6667 38.3126Z" fill="#0C1142"/>
<path d="M133.334 10.0298C124.146 10.0298 116.697 17.4788 116.697 26.6667C116.697 35.8547 124.146 43.3037 133.334 43.3037C142.521 43.3037 149.97 35.8547 149.97 26.6667C149.97 17.4788 142.521 10.0298 133.334 10.0298ZM133.334 38.3126C126.912 38.3126 121.688 33.0883 121.688 26.6667C121.688 20.2452 126.912 15.0209 133.334 15.0209C139.755 15.0209 144.979 20.2452 144.979 26.6667C144.979 33.0883 139.755 38.3126 133.334 38.3126Z" fill="#0C1142"/>
<path d="M26.6667 116.697C17.4788 116.697 10.0298 124.146 10.0298 133.334C10.0298 142.521 17.4788 149.97 26.6667 149.97C35.8547 149.97 43.3037 142.521 43.3037 133.334C43.3037 124.146 35.8547 116.697 26.6667 116.697ZM26.6667 144.979C20.2452 144.979 15.0209 139.755 15.0209 133.334C15.0209 126.912 20.2452 121.688 26.6667 121.688C33.0883 121.688 38.3126 126.912 38.3126 133.334C38.3126 139.755 33.0883 144.979 26.6667 144.979Z" fill="#0C1142"/>
<path d="M26.5239 33.654C30.4618 33.654 33.654 30.4618 33.654 26.5239C33.654 22.5861 30.4618 19.3938 26.5239 19.3938C22.5861 19.3938 19.3938 22.5861 19.3938 26.5239C19.3938 30.4618 22.5861 33.654 26.5239 33.654Z" fill="#0C1142"/>
<path d="M133.191 33.654C137.129 33.654 140.321 30.4618 140.321 26.5239C140.321 22.5861 137.129 19.3938 133.191 19.3938C129.253 19.3938 126.061 22.5861 126.061 26.5239C126.061 30.4618 129.253 33.654 133.191 33.654Z" fill="#0C1142"/>
<path d="M26.5239 140.321C30.4618 140.321 33.654 137.129 33.654 133.191C33.654 129.253 30.4618 126.061 26.5239 126.061C22.5861 126.061 19.3938 129.253 19.3938 133.191C19.3938 137.129 22.5861 140.321 26.5239 140.321Z" fill="#0C1142"/>
</svg>
