<svg width="24" height="24" viewBox="0 0 24 24" fill="none" xmlns="http://www.w3.org/2000/svg">
<path d="M12 24C18.6274 24 24 18.6274 24 12C24 5.37258 18.6274 0 12 0C5.37258 0 0 5.37258 0 12C0 18.6274 5.37258 24 12 24Z" fill="#2775C9"/>
<path fill-rule="evenodd" clip-rule="evenodd" d="M11.28 7.54433V6.79494C11.28 6.39729 11.6024 6.07494 12 6.07494C12.3976 6.07494 12.72 6.39729 12.72 6.79494V7.54174C14.0229 7.73791 14.9161 8.47865 15.1546 9.5341C15.2063 9.76301 15.0626 9.99049 14.8337 10.0422C14.803 10.0491 14.7716 10.0526 14.7401 10.0526L14.3506 10.0527C14.0354 10.0527 13.7486 9.87061 13.6144 9.5854C13.366 9.05735 12.7772 8.75329 11.9931 8.75329C11.0125 8.75329 10.3508 9.23454 10.3508 9.95642C10.3508 10.5339 10.79 10.8708 11.8547 11.1235L12.8533 11.352C14.6159 11.7551 15.3618 12.483 15.3618 13.7763C15.3618 15.2095 14.3613 16.1788 12.72 16.4074V17.2749C12.72 17.6726 12.3976 17.9949 12 17.9949C11.6024 17.9949 11.28 17.6726 11.28 17.2749V16.421C9.8262 16.2454 8.84433 15.4759 8.61369 14.2987C8.57574 14.105 8.70201 13.9172 8.89572 13.8792C8.91835 13.8748 8.94136 13.8726 8.96443 13.8726V13.8726L9.55574 13.8726C9.82337 13.8726 10.0671 14.0266 10.182 14.2683C10.4543 14.8408 11.1509 15.196 12.0232 15.196C13.0699 15.196 13.7978 14.6787 13.7978 13.9568C13.7978 13.3312 13.3526 12.9702 12.2578 12.7116L11.1329 12.4469C9.5327 12.0799 8.77473 11.3099 8.77473 10.0707C8.77473 8.73624 9.78205 7.77668 11.28 7.54433ZM3 12.0001C3 8.02879 5.59223 4.66056 9.18314 3.48282C9.40993 3.40844 9.65407 3.53199 9.72845 3.75877C9.74271 3.80224 9.74997 3.8477 9.74997 3.89345L9.74998 4.14711C9.74998 4.53376 9.51544 4.88178 9.15705 5.02691C6.39432 6.14568 4.44643 8.8463 4.44643 12.0001C4.44643 15.1524 6.39244 17.8519 9.15306 18.9717C9.5139 19.1181 9.74998 19.4686 9.74998 19.858L9.74999 20.0695C9.74999 20.3231 9.54445 20.5286 9.29089 20.5286C9.24162 20.5286 9.19266 20.5207 9.14591 20.5051C5.57432 19.3164 3 15.9577 3 12.0001ZM21 12.0001C21 15.9483 18.4379 19.3004 14.8794 20.4966C14.6295 20.5806 14.3589 20.4461 14.2749 20.1962C14.2584 20.1472 14.25 20.0959 14.25 20.0441L14.25 19.8746C14.25 19.4759 14.4914 19.1168 14.8606 18.9661C17.614 17.843 19.5536 15.1472 19.5536 12.0001C19.5536 8.85599 17.6176 6.16228 14.8684 5.03726C14.4944 4.88421 14.25 4.52019 14.25 4.11606L14.25 3.96153C14.25 3.69574 14.4655 3.48027 14.7313 3.48027C14.7835 3.48027 14.8354 3.48877 14.8849 3.50545C18.4405 4.70323 21 8.05393 21 12.0001Z" fill="white"/>
</svg>
