<svg width="24" height="24" viewBox="0 0 24 24" fill="none" xmlns="http://www.w3.org/2000/svg">
<path d="M12.075 23.6678C18.6403 23.6678 23.9625 18.4274 23.9625 11.9632C23.9625 5.49888 18.6403 0.258545 12.075 0.258545C5.50972 0.258545 0.1875 5.49888 0.1875 11.9632C0.1875 18.4274 5.50972 23.6678 12.075 23.6678Z" fill="#00A478"/>
<path d="M10.7251 10.8555V7.8647H6.71265V5.24316H17.9251V7.90163H13.9126V10.8555H10.7251Z" fill="white"/>
<path d="M12.225 9.6738C16.425 9.6738 18.6 10.8184 18.8625 11.1876C18.6 11.5569 16.4625 12.1107 12.225 12.1107C8.02505 12.1107 5.85005 11.5569 5.58755 11.1876C5.85005 10.7815 8.02505 9.6738 12.225 9.6738ZM12.225 9.37842C8.21255 9.37842 4.98755 10.1907 4.98755 11.1876C4.98755 12.1846 8.21255 12.9969 12.225 12.9969C16.2375 12.9969 19.4625 12.1846 19.4625 11.1876C19.4625 10.1907 16.2375 9.37842 12.225 9.37842Z" fill="white"/>
<path d="M13.9124 11.7785V9.71081C13.3874 9.67389 12.8249 9.63696 12.2624 9.63696C11.7374 9.63696 11.2499 9.63696 10.7624 9.67389V11.7416C11.2124 11.7416 11.7374 11.7785 12.2624 11.7785C12.8249 11.8154 13.3874 11.8154 13.9124 11.7785ZM12.2249 12.997C11.6999 12.997 11.2124 12.997 10.7249 12.96V18.4616H13.8749V12.9231C13.3499 12.96 12.7874 12.997 12.2249 12.997Z" fill="white"/>
</svg>
