<svg width="170" height="32" viewBox="0 0 170 32" fill="none" xmlns="http://www.w3.org/2000/svg">
<g clip-path="url(#clip0)">
<path d="M22.154 13.5986C26.2625 10.2423 34.653 -1.85171 21.5174 0.28934C15.7887 1.15733 7.39808 6.71248 5.71996 13.1356C4.85196 11.3996 3.86824 9.77939 2.82665 8.15914C1.2064 5.96022 -0.587456 7.69621 1.14853 9.89512C6.29459 16.1256 9.26158 23.8682 9.59699 31.9421C10.0021 28.0651 9.36553 23.3201 7.80314 18.6908C8.5554 18.9222 9.42339 19.038 10.1757 19.038C12.8375 23.4358 16.946 27.1971 21.5174 28.9331C25.7417 30.6112 31.3547 29.6275 29.04 22.8571C27.8248 19.1537 24.9894 15.9132 22.154 13.5986ZM22.7326 1.85173C30.0238 1.0416 22.2118 10.1266 19.6657 11.8047C17.2932 10.2423 14.2842 8.85353 11.3908 9.2586C13.474 6.53889 18.5662 2.37252 22.7326 1.85173ZM11.333 11.226C13.3004 11.0524 15.4415 12.1519 17.1196 13.3092C15.4993 14.1194 13.7634 14.5823 11.9695 14.7559C9.30766 14.7559 8.729 11.4575 11.333 11.226ZM21.4017 25.3454C17.9876 24.3617 14.7471 21.5841 12.4324 18.8065C14.342 18.4014 16.2516 17.6492 17.9876 16.6076C18.6241 16.3183 19.2606 15.8553 19.8393 15.4503C21.8646 17.302 24.0057 19.7902 24.8158 22.6257C25.6259 25.6926 23.427 25.9241 21.4017 25.3454Z" fill="#F5A623"/>
<path d="M50.1034 5.96021H40.1504C39.8033 5.96021 39.5139 6.24954 39.5139 6.59674H39.4561V22.2206C39.4561 22.5678 39.7454 22.8571 40.0926 22.8571C40.3819 22.8571 40.6712 22.5678 40.7291 22.2206V15.1609H49.1776C49.5248 15.1609 49.6984 14.8716 49.6984 14.5823C49.6984 14.2351 49.4669 14.0615 49.1776 14.0615H40.6712V7.1754H50.1034C50.4506 7.1754 50.6242 6.88607 50.6242 6.59674C50.6242 6.42314 50.4506 6.19168 50.1034 5.96021ZM54.6749 5.15009H54.617C54.3277 5.15009 54.1541 5.38155 54.1541 5.67088V22.1627C54.1541 22.5099 54.3856 22.7414 54.6749 22.7414C55.0221 22.7414 55.1957 22.4521 55.1957 22.1627V5.78661C55.1957 5.38155 55.0221 5.15009 54.6749 5.15009ZM69.0836 11.0524C69.0836 10.7052 68.8521 10.4738 68.5628 10.4738C68.2156 10.4738 68.042 10.7631 68.042 11.0524V17.9385C68.042 20.2532 66.2481 22.1049 64.0492 22.047C61.7346 22.047 60.4036 20.4268 60.4036 17.8806V11.0524C60.4036 10.7052 60.1722 10.4738 59.8828 10.4738C59.6514 10.4738 59.362 10.7631 59.362 11.0524V18.0542C59.362 20.9476 61.098 23.0886 63.9335 23.0886C65.6695 23.1465 67.2897 22.1627 68.0999 20.5425V22.3363C68.0999 22.6835 68.3892 22.8571 68.6207 22.8571C68.9678 22.8571 69.1414 22.5678 69.1414 22.3363H69.0836V11.0524ZM78.6315 11.6311C78.863 11.6311 79.1523 11.3996 79.1523 11.1103C79.1523 10.8788 78.863 10.5895 78.6315 10.5895H74.9859V7.1754C74.9859 6.88607 74.6966 6.59674 74.4651 6.59674H74.4073C74.1179 6.59674 73.9443 6.88607 73.9443 7.1754V10.5895H72.6713C72.382 10.5895 72.1505 10.7631 72.1505 11.0524C72.1505 11.3418 72.382 11.6311 72.6713 11.6311H73.9443V19.6166C73.9443 21.8734 75.391 22.9729 77.0691 22.9729C77.6478 22.9729 78.2265 22.8571 78.7472 22.6835C78.9208 22.5678 79.0944 22.3942 79.0944 22.1627C79.0944 21.8734 78.863 21.6998 78.6315 21.6998C78.2265 21.8155 77.7635 21.8734 77.3006 21.8734C75.9118 21.8734 74.9859 21.2369 74.9859 19.5009V11.6311H78.6315ZM87.6008 11.6311C87.8901 11.6311 88.1216 11.3996 88.1216 11.1103C88.1216 10.8788 87.8901 10.5895 87.6008 10.5895H83.9552V7.1754C83.9552 6.88607 83.7237 6.59674 83.4344 6.59674H83.3765C83.0872 6.59674 82.9136 6.88607 82.9136 7.1754V10.5895H81.6406C81.4091 10.5895 81.1198 10.7631 81.1198 11.0524C81.1198 11.3418 81.4091 11.6311 81.6406 11.6311H82.9136V19.6166C82.9136 21.8734 84.3603 22.9729 86.0963 22.9729C86.6171 22.9729 87.1957 22.8571 87.7165 22.6835C87.948 22.5678 88.0637 22.3942 88.0637 22.1627C88.0637 21.8734 87.8901 21.6998 87.6008 21.6998C87.1957 21.8155 86.7328 21.8734 86.2699 21.8734C84.8811 21.8734 83.9552 21.2369 83.9552 19.5009V11.6311H87.6008ZM95.5285 10.2423C92.4616 10.2423 90.1469 13.0199 90.1469 16.6655V16.7233C90.1469 20.6004 92.693 23.1465 95.7599 23.1465C97.3802 23.2043 99.0583 22.5099 100.158 21.179C100.331 21.0633 100.389 20.8897 100.389 20.774C100.389 20.4846 100.1 20.1953 99.8684 20.1953L99.5212 20.311C99.0622 20.8462 98.4946 21.2778 97.8561 21.5771C97.2176 21.8764 96.5229 22.0365 95.8178 22.047C93.561 22.047 91.5357 20.2532 91.3042 17.2441H100.331C100.563 17.2441 100.852 16.9548 100.852 16.6655C100.852 13.0199 98.769 10.2423 95.5285 10.2423ZM91.2464 16.0868C91.42 13.425 93.2138 11.3418 95.4706 11.3418C98.0746 11.3418 99.4634 13.5985 99.5791 16.0868H91.2464ZM109.706 10.4159C107.623 10.5895 105.887 12.0362 105.134 14.1193V11.1103C105.134 10.8788 104.845 10.5895 104.613 10.5895C104.266 10.5895 104.093 10.7631 104.035 11.1103V22.4521C104.035 22.7414 104.266 23.0307 104.556 23.0307C104.845 23.0307 105.076 22.7993 105.134 22.4521V17.9385C105.134 13.9457 107.275 12.0362 109.706 11.7468H109.764C110.111 11.7468 110.284 11.3996 110.284 11.1103C110.284 10.7052 110.053 10.4159 109.706 10.4159Z" fill="black"/>
<path d="M129.206 9.77939C128.454 9.77939 127.76 10.3581 127.586 11.1682L125.619 17.7649L123.709 11.1682C123.535 10.3581 122.783 9.72153 121.915 9.72153H121.741C120.873 9.72153 120.121 10.2423 119.948 11.1682L118.038 17.6492L116.186 11.1103C115.955 10.3581 115.318 9.72153 114.508 9.72153H114.45C113.582 9.72153 112.946 10.4738 112.946 11.3996L113.062 12.2676L116.013 21.3526C116.244 22.2785 116.996 22.915 117.922 22.9729H118.038C118.906 22.9729 119.6 22.3364 119.89 21.4105L121.799 14.9295L123.709 21.4105C123.94 22.3364 124.693 22.9729 125.561 22.9729H125.734C126.66 22.9729 127.412 22.3364 127.644 21.3526L130.595 12.1519L130.769 11.4575V11.3996C130.769 10.4738 130.074 9.77939 129.206 9.77939ZM137.713 9.77939C136.382 9.72153 135.109 10.0109 133.836 10.4159C133.315 10.6474 133.025 11.1682 133.025 11.8047C133.025 12.6727 133.662 13.3092 134.472 13.2514C134.588 13.2514 134.761 13.2514 134.935 13.1356C135.687 12.9042 136.497 12.7884 137.308 12.7884C139.044 12.7884 139.912 13.5986 139.912 15.1609V15.3345C138.986 14.9873 137.944 14.8716 136.96 14.8716C134.125 14.8716 132.157 16.2025 132.157 19.038C132.157 21.5262 134.067 22.9729 136.266 22.9729C137.655 23.0307 138.986 22.3942 139.912 21.3526C139.969 22.2785 140.664 22.915 141.532 22.915C142.458 22.915 143.21 22.1049 143.21 21.1212V15.3345C143.268 13.8879 142.805 12.3834 141.879 11.2839C140.895 10.3581 139.564 9.77939 137.713 9.77939ZM139.969 18.17C139.969 19.5588 138.812 20.4268 137.25 20.3689C136.15 20.3689 135.398 19.7902 135.398 18.8065V18.7486C135.398 17.6492 136.324 16.9548 137.77 16.9548C138.465 16.9548 139.275 17.1863 139.969 17.4756V18.17ZM154.957 9.72153C154.262 9.72153 153.568 10.1845 153.394 10.9946L150.733 18.4593L148.186 11.0524C147.955 10.2423 147.318 9.72153 146.508 9.72153C145.64 9.72153 144.946 10.4159 144.83 11.3996C144.83 11.689 144.946 11.9783 145.062 12.2676L148.765 21.3526C148.997 22.2785 149.749 22.915 150.675 22.9729H150.906C151.716 22.915 152.526 22.3364 152.874 21.4105L156.461 12.3255L156.635 11.4575V11.3996C156.635 10.4738 155.94 9.72153 154.957 9.72153ZM163.926 9.66366C160.396 9.66366 157.966 12.6727 157.966 16.3183V16.8969C158.082 20.4268 160.975 23.1465 164.273 22.9729C165.778 22.9729 167.224 22.4521 168.44 21.4105C168.787 21.1212 168.903 20.774 168.903 20.3689V20.311C168.903 19.5009 168.324 18.8644 167.572 18.8644C167.282 18.8644 166.993 18.9222 166.761 19.1537C166.087 19.7345 165.221 20.0438 164.331 20.0217C162.884 20.0796 161.611 19.038 161.438 17.4756H168.208C169.076 17.4177 169.771 16.6076 169.713 15.6817V15.3924C169.713 12.2676 167.109 9.54793 163.926 9.66366ZM161.322 15.3345C161.611 13.6564 162.537 12.6148 163.926 12.6148C165.315 12.6148 166.241 13.7143 166.414 15.3345H161.322Z" fill="black" stroke="black"/>
</g>
<defs>
<clipPath id="clip0">
<rect width="169.316" height="32" fill="white" transform="translate(0.454102)"/>
</clipPath>
</defs>
</svg>
