<svg width="276" height="280" viewBox="0 0 276 280" fill="none" xmlns="http://www.w3.org/2000/svg">
<rect width="276" height="280" rx="16" fill="white"/>
<rect x="0.5" y="0.5" width="275" height="279" rx="15.5" stroke="#4152FC" stroke-opacity="0.4"/>
<rect x="0.5" y="0.5" width="275" height="279" rx="15.5" stroke="url(#paint0_linear)" stroke-opacity="0.8"/>
<path d="M93.8757 148H92.3237V139.168L88.4517 148H87.0117L83.1717 139.168V148H81.6197V136.656H83.7477L87.7477 145.888L91.7797 136.656H93.8757V148ZM98.1843 146.176C98.6536 146.656 99.2243 146.896 99.8963 146.896C100.568 146.896 101.134 146.656 101.592 146.176C102.062 145.685 102.296 145.008 102.296 144.144C102.296 143.291 102.062 142.624 101.592 142.144C101.134 141.653 100.568 141.408 99.8963 141.408C99.2243 141.408 98.6536 141.653 98.1843 142.144C97.7256 142.624 97.4963 143.291 97.4963 144.144C97.4963 145.008 97.7256 145.685 98.1843 146.176ZM97.0643 141.232C97.811 140.453 98.755 140.064 99.8963 140.064C101.038 140.064 101.976 140.453 102.712 141.232C103.459 142 103.832 142.971 103.832 144.144C103.832 145.328 103.464 146.309 102.728 147.088C101.992 147.856 101.048 148.24 99.8963 148.24C98.7443 148.24 97.8003 147.856 97.0643 147.088C96.3283 146.309 95.9603 145.328 95.9603 144.144C95.9603 142.971 96.3283 142 97.0643 141.232ZM107.261 143.552V148H105.757V140.304H107.229V141.408C107.741 140.523 108.53 140.08 109.597 140.08C110.482 140.08 111.159 140.363 111.629 140.928C112.109 141.493 112.349 142.224 112.349 143.12V148H110.845V143.376C110.845 142.085 110.247 141.44 109.053 141.44C108.487 141.44 108.045 141.643 107.725 142.048C107.415 142.443 107.261 142.944 107.261 143.552ZM115.717 143.36H119.925C119.904 142.784 119.712 142.315 119.349 141.952C118.986 141.579 118.474 141.392 117.813 141.392C117.216 141.392 116.725 141.589 116.341 141.984C115.957 142.368 115.749 142.827 115.717 143.36ZM120.149 145.36L121.445 145.808C121.221 146.523 120.805 147.109 120.197 147.568C119.589 148.016 118.853 148.24 117.989 148.24C116.912 148.24 115.994 147.872 115.237 147.136C114.49 146.389 114.117 145.387 114.117 144.128C114.117 142.955 114.48 141.984 115.205 141.216C115.93 140.448 116.794 140.064 117.797 140.064C118.96 140.064 119.866 140.432 120.517 141.168C121.168 141.893 121.493 142.869 121.493 144.096C121.493 144.288 121.482 144.448 121.461 144.576H115.669C115.68 145.259 115.904 145.819 116.341 146.256C116.789 146.693 117.338 146.912 117.989 146.912C119.088 146.912 119.808 146.395 120.149 145.36ZM125.177 151.216H123.529L125.449 147.152L122.137 140.304H123.865L126.265 145.616L128.569 140.304H130.185L125.177 151.216ZM139.904 140.224V141.824C139.68 141.792 139.461 141.776 139.248 141.776C137.84 141.776 137.136 142.565 137.136 144.144V148H135.632V140.304H137.104V141.648C137.573 140.667 138.341 140.176 139.408 140.176C139.578 140.176 139.744 140.192 139.904 140.224ZM142.404 143.36H146.612C146.591 142.784 146.399 142.315 146.036 141.952C145.674 141.579 145.162 141.392 144.5 141.392C143.903 141.392 143.412 141.589 143.028 141.984C142.644 142.368 142.436 142.827 142.404 143.36ZM146.836 145.36L148.132 145.808C147.908 146.523 147.492 147.109 146.884 147.568C146.276 148.016 145.54 148.24 144.676 148.24C143.599 148.24 142.682 147.872 141.924 147.136C141.178 146.389 140.804 145.387 140.804 144.128C140.804 142.955 141.167 141.984 141.892 141.216C142.618 140.448 143.482 140.064 144.484 140.064C145.647 140.064 146.554 140.432 147.204 141.168C147.855 141.893 148.18 142.869 148.18 144.096C148.18 144.288 148.17 144.448 148.148 144.576H142.356C142.367 145.259 142.591 145.819 143.028 146.256C143.476 146.693 144.026 146.912 144.676 146.912C145.775 146.912 146.495 146.395 146.836 145.36ZM153.332 141.456C152.682 141.456 152.127 141.691 151.668 142.16C151.22 142.629 150.996 143.291 150.996 144.144C150.996 144.987 151.22 145.648 151.668 146.128C152.127 146.608 152.687 146.848 153.348 146.848C153.988 146.848 154.474 146.688 154.804 146.368C155.146 146.048 155.375 145.68 155.492 145.264L156.82 145.84C156.607 146.48 156.202 147.04 155.604 147.52C155.018 148 154.266 148.24 153.348 148.24C152.228 148.24 151.3 147.851 150.564 147.072C149.828 146.293 149.46 145.317 149.46 144.144C149.46 142.949 149.828 141.973 150.564 141.216C151.3 140.448 152.223 140.064 153.332 140.064C154.271 140.064 155.028 140.304 155.604 140.784C156.191 141.264 156.575 141.84 156.756 142.512L155.396 143.088C155.279 142.64 155.055 142.256 154.724 141.936C154.394 141.616 153.93 141.456 153.332 141.456ZM159.483 143.36H163.691C163.669 142.784 163.477 142.315 163.115 141.952C162.752 141.579 162.24 141.392 161.579 141.392C160.981 141.392 160.491 141.589 160.107 141.984C159.723 142.368 159.515 142.827 159.483 143.36ZM163.915 145.36L165.211 145.808C164.987 146.523 164.571 147.109 163.963 147.568C163.355 148.016 162.619 148.24 161.755 148.24C160.677 148.24 159.76 147.872 159.003 147.136C158.256 146.389 157.883 145.387 157.883 144.128C157.883 142.955 158.245 141.984 158.971 141.216C159.696 140.448 160.56 140.064 161.563 140.064C162.725 140.064 163.632 140.432 164.283 141.168C164.933 141.893 165.259 142.869 165.259 144.096C165.259 144.288 165.248 144.448 165.227 144.576H159.435C159.445 145.259 159.669 145.819 160.107 146.256C160.555 146.693 161.104 146.912 161.755 146.912C162.853 146.912 163.573 146.395 163.915 145.36ZM168.666 148H167.178V140.304H168.666V148ZM167.146 138.16C166.944 137.947 166.842 137.691 166.842 137.392C166.842 137.093 166.944 136.837 167.146 136.624C167.36 136.411 167.616 136.304 167.914 136.304C168.213 136.304 168.469 136.411 168.682 136.624C168.896 136.827 169.002 137.083 169.002 137.392C169.002 137.691 168.896 137.947 168.682 138.16C168.469 138.363 168.213 138.464 167.914 138.464C167.616 138.464 167.36 138.363 167.146 138.16ZM177.817 140.304L174.745 148H173.225L170.105 140.304H171.801L173.993 146.24L176.201 140.304H177.817ZM179.998 143.36H184.206C184.185 142.784 183.993 142.315 183.63 141.952C183.268 141.579 182.756 141.392 182.094 141.392C181.497 141.392 181.006 141.589 180.622 141.984C180.238 142.368 180.03 142.827 179.998 143.36ZM184.43 145.36L185.726 145.808C185.502 146.523 185.086 147.109 184.478 147.568C183.87 148.016 183.134 148.24 182.27 148.24C181.193 148.24 180.276 147.872 179.518 147.136C178.772 146.389 178.398 145.387 178.398 144.128C178.398 142.955 178.761 141.984 179.486 141.216C180.212 140.448 181.076 140.064 182.078 140.064C183.241 140.064 184.148 140.432 184.798 141.168C185.449 141.893 185.774 142.869 185.774 144.096C185.774 144.288 185.764 144.448 185.742 144.576H179.95C179.961 145.259 180.185 145.819 180.622 146.256C181.07 146.693 181.62 146.912 182.27 146.912C183.369 146.912 184.089 146.395 184.43 145.36ZM188.59 144.128C188.59 144.939 188.787 145.6 189.182 146.112C189.587 146.624 190.142 146.88 190.846 146.88C191.518 146.88 192.057 146.619 192.462 146.096C192.867 145.573 193.07 144.907 193.07 144.096C193.07 143.296 192.873 142.651 192.478 142.16C192.083 141.669 191.545 141.424 190.862 141.424C190.179 141.424 189.63 141.675 189.214 142.176C188.798 142.677 188.59 143.328 188.59 144.128ZM193.086 146.96V146.832C192.883 147.227 192.574 147.557 192.158 147.824C191.753 148.08 191.267 148.208 190.702 148.208C189.603 148.208 188.718 147.824 188.046 147.056C187.385 146.277 187.054 145.301 187.054 144.128C187.054 143.008 187.395 142.059 188.078 141.28C188.761 140.491 189.635 140.096 190.702 140.096C191.331 140.096 191.843 140.224 192.238 140.48C192.633 140.725 192.905 141.029 193.054 141.392V136.416H194.542V146.576C194.542 147.099 194.569 147.573 194.622 148H193.166C193.113 147.701 193.086 147.355 193.086 146.96Z" fill="#292C3E"/>
<path d="M41.0269 177V173.402H39.9349V172.506H41.0269V171.358H39.9349V170.462H41.0269V167.004H42.4829L43.8129 170.462H45.4649V167.004H46.5709V170.462H47.6629V171.358H46.5709V172.506H47.6629V173.402H46.5709V177H45.1009L43.7709 173.402H42.1189V177H41.0269ZM42.0909 170.462H42.6789L42.0909 168.726H42.0349L42.0909 170.462ZM42.1189 172.506H43.4349L43.0149 171.358H42.0909L42.1189 172.506ZM44.5549 172.506H45.4929L45.4649 171.358H44.1349L44.5549 172.506ZM45.4649 175.026H45.5209L45.4789 173.402H44.8909L45.4649 175.026ZM48.2966 174.956V173.374L52.1886 167.928H54.0786V173.682H55.6326V174.956H54.0786V177H52.7486V174.956H48.2966ZM52.7486 173.682V169.244L49.5566 173.682H52.7486ZM62.4693 167.928V169.244C62.236 169.431 62.0073 169.631 61.7833 169.846C61.5593 170.061 61.2607 170.406 60.8873 170.882C60.5233 171.358 60.2013 171.862 59.9213 172.394C59.6413 172.926 59.3753 173.603 59.1233 174.424C58.8807 175.236 58.7173 176.095 58.6333 177H57.2193C57.2753 176.281 57.3873 175.586 57.5553 174.914C57.7233 174.233 57.9193 173.64 58.1433 173.136C58.3673 172.632 58.6053 172.161 58.8573 171.722C59.1187 171.274 59.3707 170.901 59.6133 170.602C59.8653 170.294 60.0893 170.033 60.2853 169.818C60.4907 169.603 60.654 169.445 60.7753 169.342L60.9573 169.188H55.8473V167.928H62.4693ZM61.98 176.104C61.98 175.852 62.078 175.633 62.274 175.446C62.47 175.259 62.7127 175.166 63.002 175.166C63.3193 175.166 63.5853 175.283 63.8 175.516C64.024 175.749 64.136 176.076 64.136 176.496C64.136 177.336 63.9213 177.985 63.492 178.442C63.0627 178.899 62.5867 179.161 62.064 179.226V178.498C62.4 178.423 62.6753 178.237 62.89 177.938C63.1047 177.649 63.2167 177.331 63.226 176.986C63.1607 177.033 63.058 177.056 62.918 177.056C62.6473 177.056 62.4233 176.972 62.246 176.804C62.0687 176.627 61.98 176.393 61.98 176.104ZM65.6052 174.536L66.9212 174.144C66.9586 174.704 67.1639 175.157 67.5372 175.502C67.9199 175.847 68.3959 176.02 68.9652 176.02C69.5159 176.02 69.9779 175.852 70.3512 175.516C70.7246 175.18 70.9112 174.737 70.9112 174.186C70.9112 173.589 70.7246 173.127 70.3512 172.8C69.9779 172.473 69.5112 172.31 68.9512 172.31C68.2699 172.31 67.7192 172.529 67.2992 172.968C67.1686 172.921 66.9539 172.837 66.6552 172.716C66.3566 172.595 66.1232 172.501 65.9552 172.436L67.1312 167.928H71.9192V169.188H68.0412L67.3692 171.792C67.7706 171.344 68.3866 171.12 69.2172 171.12C70.1226 171.12 70.8599 171.391 71.4292 171.932C72.0079 172.473 72.2972 173.206 72.2972 174.13C72.2972 175.007 71.9892 175.745 71.3732 176.342C70.7572 176.93 69.9546 177.224 68.9652 177.224C68.0319 177.224 67.2526 176.963 66.6272 176.44C66.0112 175.917 65.6706 175.283 65.6052 174.536ZM75.6412 169.524C75.1092 170.084 74.8432 171.064 74.8432 172.464C74.8432 173.864 75.1092 174.844 75.6412 175.404C76.0145 175.796 76.4952 175.992 77.0832 175.992C77.6712 175.992 78.1518 175.796 78.5252 175.404C79.0572 174.844 79.3232 173.864 79.3232 172.464C79.3232 171.064 79.0572 170.084 78.5252 169.524C78.1518 169.132 77.6712 168.936 77.0832 168.936C76.4952 168.936 76.0145 169.132 75.6412 169.524ZM74.2972 175.754C73.7558 174.951 73.4852 173.855 73.4852 172.464C73.4852 171.073 73.7558 169.977 74.2972 169.174C74.9412 168.203 75.8698 167.718 77.0832 167.718C78.2965 167.718 79.2252 168.203 79.8692 169.174C80.4105 169.977 80.6812 171.073 80.6812 172.464C80.6812 173.855 80.4105 174.951 79.8692 175.754C79.2252 176.725 78.2965 177.21 77.0832 177.21C75.8698 177.21 74.9412 176.725 74.2972 175.754ZM84.1724 169.524C83.6404 170.084 83.3744 171.064 83.3744 172.464C83.3744 173.864 83.6404 174.844 84.1724 175.404C84.5457 175.796 85.0264 175.992 85.6144 175.992C86.2024 175.992 86.6831 175.796 87.0564 175.404C87.5884 174.844 87.8544 173.864 87.8544 172.464C87.8544 171.064 87.5884 170.084 87.0564 169.524C86.6831 169.132 86.2024 168.936 85.6144 168.936C85.0264 168.936 84.5457 169.132 84.1724 169.524ZM82.8284 175.754C82.2871 174.951 82.0164 173.855 82.0164 172.464C82.0164 171.073 82.2871 169.977 82.8284 169.174C83.4724 168.203 84.4011 167.718 85.6144 167.718C86.8277 167.718 87.7564 168.203 88.4004 169.174C88.9417 169.977 89.2124 171.073 89.2124 172.464C89.2124 173.855 88.9417 174.951 88.4004 175.754C87.7564 176.725 86.8277 177.21 85.6144 177.21C84.4011 177.21 83.4724 176.725 82.8284 175.754ZM90.6155 176.79C90.4288 176.603 90.3355 176.375 90.3355 176.104C90.3355 175.833 90.4288 175.605 90.6155 175.418C90.8021 175.222 91.0308 175.124 91.3015 175.124C91.5721 175.124 91.8008 175.222 91.9875 175.418C92.1835 175.605 92.2815 175.833 92.2815 176.104C92.2815 176.375 92.1835 176.603 91.9875 176.79C91.8008 176.977 91.5721 177.07 91.3015 177.07C91.0308 177.07 90.8021 176.977 90.6155 176.79ZM95.8482 169.524C95.3162 170.084 95.0502 171.064 95.0502 172.464C95.0502 173.864 95.3162 174.844 95.8482 175.404C96.2215 175.796 96.7022 175.992 97.2902 175.992C97.8782 175.992 98.3589 175.796 98.7322 175.404C99.2642 174.844 99.5302 173.864 99.5302 172.464C99.5302 171.064 99.2642 170.084 98.7322 169.524C98.3589 169.132 97.8782 168.936 97.2902 168.936C96.7022 168.936 96.2215 169.132 95.8482 169.524ZM94.5042 175.754C93.9629 174.951 93.6922 173.855 93.6922 172.464C93.6922 171.073 93.9629 169.977 94.5042 169.174C95.1482 168.203 96.0769 167.718 97.2902 167.718C98.5035 167.718 99.4322 168.203 100.076 169.174C100.618 169.977 100.888 171.073 100.888 172.464C100.888 173.855 100.618 174.951 100.076 175.754C99.4322 176.725 98.5035 177.21 97.2902 177.21C96.0769 177.21 95.1482 176.725 94.5042 175.754ZM104.379 169.524C103.847 170.084 103.581 171.064 103.581 172.464C103.581 173.864 103.847 174.844 104.379 175.404C104.753 175.796 105.233 175.992 105.821 175.992C106.409 175.992 106.89 175.796 107.263 175.404C107.795 174.844 108.061 173.864 108.061 172.464C108.061 171.064 107.795 170.084 107.263 169.524C106.89 169.132 106.409 168.936 105.821 168.936C105.233 168.936 104.753 169.132 104.379 169.524ZM103.035 175.754C102.494 174.951 102.223 173.855 102.223 172.464C102.223 171.073 102.494 169.977 103.035 169.174C103.679 168.203 104.608 167.718 105.821 167.718C107.035 167.718 107.963 168.203 108.607 169.174C109.149 169.977 109.419 171.073 109.419 172.464C109.419 173.855 109.149 174.951 108.607 175.754C107.963 176.725 107.035 177.21 105.821 177.21C104.608 177.21 103.679 176.725 103.035 175.754ZM116.059 173.038V177H114.743V166.864H116.059V171.05C116.507 170.397 117.188 170.07 118.103 170.07C118.878 170.07 119.47 170.317 119.881 170.812C120.301 171.307 120.511 171.946 120.511 172.73V177H119.195V172.954C119.195 171.825 118.672 171.26 117.627 171.26C117.142 171.26 116.764 171.428 116.493 171.764C116.222 172.091 116.078 172.515 116.059 173.038ZM122.184 175.194C122.184 174.615 122.371 174.153 122.744 173.808C123.118 173.453 123.612 173.234 124.228 173.15L126.048 172.884C126.394 172.837 126.566 172.669 126.566 172.38C126.566 172.025 126.445 171.736 126.202 171.512C125.96 171.288 125.596 171.176 125.11 171.176C124.662 171.176 124.308 171.302 124.046 171.554C123.785 171.797 123.631 172.123 123.584 172.534L122.324 172.24C122.39 171.596 122.684 171.073 123.206 170.672C123.729 170.261 124.354 170.056 125.082 170.056C126.034 170.056 126.739 170.289 127.196 170.756C127.654 171.213 127.882 171.801 127.882 172.52V175.894C127.882 176.295 127.91 176.664 127.966 177H126.678C126.632 176.72 126.608 176.417 126.608 176.09C126.422 176.389 126.146 176.65 125.782 176.874C125.428 177.098 124.98 177.21 124.438 177.21C123.776 177.21 123.234 177.014 122.814 176.622C122.394 176.221 122.184 175.745 122.184 175.194ZM124.62 176.104C125.208 176.104 125.68 175.945 126.034 175.628C126.389 175.311 126.566 174.807 126.566 174.116V173.808L124.508 174.116C124.21 174.163 123.972 174.27 123.794 174.438C123.617 174.606 123.528 174.835 123.528 175.124C123.528 175.385 123.626 175.614 123.822 175.81C124.028 176.006 124.294 176.104 124.62 176.104ZM129.303 175.25L130.493 174.83C130.539 175.194 130.698 175.497 130.969 175.74C131.239 175.973 131.603 176.09 132.061 176.09C132.415 176.09 132.695 176.006 132.901 175.838C133.106 175.661 133.209 175.446 133.209 175.194C133.209 174.746 132.919 174.457 132.341 174.326L131.193 174.074C130.67 173.962 130.259 173.738 129.961 173.402C129.662 173.066 129.513 172.66 129.513 172.184C129.513 171.605 129.746 171.106 130.213 170.686C130.689 170.266 131.253 170.056 131.907 170.056C132.336 170.056 132.719 170.121 133.055 170.252C133.391 170.373 133.652 170.537 133.839 170.742C134.025 170.947 134.165 171.139 134.259 171.316C134.352 171.493 134.422 171.675 134.469 171.862L133.307 172.296C133.288 172.184 133.255 172.077 133.209 171.974C133.162 171.862 133.087 171.741 132.985 171.61C132.891 171.479 132.751 171.377 132.565 171.302C132.378 171.218 132.159 171.176 131.907 171.176C131.58 171.176 131.309 171.265 131.095 171.442C130.889 171.619 130.787 171.829 130.787 172.072C130.787 172.501 131.043 172.772 131.557 172.884L132.649 173.122C133.246 173.253 133.703 173.495 134.021 173.85C134.347 174.195 134.511 174.62 134.511 175.124C134.511 175.656 134.291 176.137 133.853 176.566C133.423 176.995 132.821 177.21 132.047 177.21C131.216 177.21 130.567 177.005 130.101 176.594C129.634 176.174 129.368 175.726 129.303 175.25ZM141.065 177H139.763V166.864H141.065V171.218C141.242 170.891 141.522 170.621 141.905 170.406C142.297 170.182 142.759 170.07 143.291 170.07C144.271 170.07 145.031 170.401 145.573 171.064C146.114 171.727 146.385 172.571 146.385 173.598C146.385 174.634 146.105 175.493 145.545 176.174C144.985 176.846 144.219 177.182 143.249 177.182C142.241 177.182 141.513 176.795 141.065 176.02V177ZM144.495 175.348C144.859 174.909 145.041 174.326 145.041 173.598C145.041 172.87 144.859 172.296 144.495 171.876C144.14 171.447 143.659 171.232 143.053 171.232C142.465 171.232 141.984 171.447 141.611 171.876C141.237 172.305 141.051 172.879 141.051 173.598C141.051 174.317 141.237 174.9 141.611 175.348C141.984 175.787 142.465 176.006 143.053 176.006C143.65 176.006 144.131 175.787 144.495 175.348ZM148.915 172.94H152.597C152.579 172.436 152.411 172.025 152.093 171.708C151.776 171.381 151.328 171.218 150.749 171.218C150.227 171.218 149.797 171.391 149.461 171.736C149.125 172.072 148.943 172.473 148.915 172.94ZM152.793 174.69L153.927 175.082C153.731 175.707 153.367 176.221 152.835 176.622C152.303 177.014 151.659 177.21 150.903 177.21C149.961 177.21 149.158 176.888 148.495 176.244C147.842 175.591 147.515 174.713 147.515 173.612C147.515 172.585 147.833 171.736 148.467 171.064C149.102 170.392 149.858 170.056 150.735 170.056C151.753 170.056 152.546 170.378 153.115 171.022C153.685 171.657 153.969 172.511 153.969 173.584C153.969 173.752 153.96 173.892 153.941 174.004H148.873C148.883 174.601 149.079 175.091 149.461 175.474C149.853 175.857 150.334 176.048 150.903 176.048C151.865 176.048 152.495 175.595 152.793 174.69ZM156.503 172.94H160.185C160.167 172.436 159.999 172.025 159.681 171.708C159.364 171.381 158.916 171.218 158.337 171.218C157.815 171.218 157.385 171.391 157.049 171.736C156.713 172.072 156.531 172.473 156.503 172.94ZM160.381 174.69L161.515 175.082C161.319 175.707 160.955 176.221 160.423 176.622C159.891 177.014 159.247 177.21 158.491 177.21C157.549 177.21 156.746 176.888 156.083 176.244C155.43 175.591 155.103 174.713 155.103 173.612C155.103 172.585 155.421 171.736 156.055 171.064C156.69 170.392 157.446 170.056 158.323 170.056C159.341 170.056 160.134 170.378 160.703 171.022C161.273 171.657 161.557 172.511 161.557 173.584C161.557 173.752 161.548 173.892 161.529 174.004H156.461C156.471 174.601 156.667 175.091 157.049 175.474C157.441 175.857 157.922 176.048 158.491 176.048C159.453 176.048 160.083 175.595 160.381 174.69ZM164.553 173.108V177H163.237V170.266H164.525V171.232C164.973 170.457 165.664 170.07 166.597 170.07C167.372 170.07 167.965 170.317 168.375 170.812C168.795 171.307 169.005 171.946 169.005 172.73V177H167.689V172.954C167.689 171.825 167.167 171.26 166.121 171.26C165.627 171.26 165.239 171.437 164.959 171.792C164.689 172.137 164.553 172.576 164.553 173.108ZM175.383 173.612C175.383 174.321 175.555 174.9 175.901 175.348C176.255 175.796 176.741 176.02 177.357 176.02C177.945 176.02 178.416 175.791 178.771 175.334C179.125 174.877 179.303 174.293 179.303 173.584C179.303 172.884 179.13 172.319 178.785 171.89C178.439 171.461 177.968 171.246 177.371 171.246C176.773 171.246 176.293 171.465 175.929 171.904C175.565 172.343 175.383 172.912 175.383 173.612ZM179.317 176.09V175.978C179.139 176.323 178.869 176.613 178.505 176.846C178.15 177.07 177.725 177.182 177.231 177.182C176.269 177.182 175.495 176.846 174.907 176.174C174.328 175.493 174.039 174.639 174.039 173.612C174.039 172.632 174.337 171.801 174.935 171.12C175.532 170.429 176.297 170.084 177.231 170.084C177.781 170.084 178.229 170.196 178.575 170.42C178.92 170.635 179.158 170.901 179.289 171.218V166.864H180.591V175.754C180.591 176.211 180.614 176.627 180.661 177H179.387C179.34 176.739 179.317 176.435 179.317 176.09ZM183.683 172.94H187.365C187.346 172.436 187.178 172.025 186.861 171.708C186.544 171.381 186.096 171.218 185.517 171.218C184.994 171.218 184.565 171.391 184.229 171.736C183.893 172.072 183.711 172.473 183.683 172.94ZM187.561 174.69L188.695 175.082C188.499 175.707 188.135 176.221 187.603 176.622C187.071 177.014 186.427 177.21 185.671 177.21C184.728 177.21 183.926 176.888 183.263 176.244C182.61 175.591 182.283 174.713 182.283 173.612C182.283 172.585 182.6 171.736 183.235 171.064C183.87 170.392 184.626 170.056 185.503 170.056C186.52 170.056 187.314 170.378 187.883 171.022C188.452 171.657 188.737 172.511 188.737 173.584C188.737 173.752 188.728 173.892 188.709 174.004H183.641C183.65 174.601 183.846 175.091 184.229 175.474C184.621 175.857 185.102 176.048 185.671 176.048C186.632 176.048 187.262 175.595 187.561 174.69ZM191.719 179.66H190.417V170.266H191.691V171.316C191.887 170.961 192.181 170.672 192.573 170.448C192.965 170.224 193.422 170.112 193.945 170.112C194.916 170.112 195.672 170.443 196.213 171.106C196.764 171.769 197.039 172.609 197.039 173.626C197.039 174.653 196.754 175.502 196.185 176.174C195.625 176.846 194.864 177.182 193.903 177.182C193.408 177.182 192.97 177.079 192.587 176.874C192.204 176.669 191.915 176.407 191.719 176.09V179.66ZM195.695 173.626C195.695 172.945 195.513 172.385 195.149 171.946C194.794 171.498 194.314 171.274 193.707 171.274C193.11 171.274 192.624 171.498 192.251 171.946C191.887 172.385 191.705 172.945 191.705 173.626C191.705 174.326 191.887 174.9 192.251 175.348C192.624 175.787 193.11 176.006 193.707 176.006C194.304 176.006 194.785 175.787 195.149 175.348C195.513 174.9 195.695 174.326 195.695 173.626ZM200.102 175.404C200.512 175.824 201.012 176.034 201.6 176.034C202.188 176.034 202.682 175.824 203.084 175.404C203.494 174.975 203.7 174.382 203.7 173.626C203.7 172.879 203.494 172.296 203.084 171.876C202.682 171.447 202.188 171.232 201.6 171.232C201.012 171.232 200.512 171.447 200.102 171.876C199.7 172.296 199.5 172.879 199.5 173.626C199.5 174.382 199.7 174.975 200.102 175.404ZM199.122 171.078C199.775 170.397 200.601 170.056 201.6 170.056C202.598 170.056 203.42 170.397 204.064 171.078C204.717 171.75 205.044 172.599 205.044 173.626C205.044 174.662 204.722 175.521 204.078 176.202C203.434 176.874 202.608 177.21 201.6 177.21C200.592 177.21 199.766 176.874 199.122 176.202C198.478 175.521 198.156 174.662 198.156 173.626C198.156 172.599 198.478 171.75 199.122 171.078ZM206.097 175.25L207.287 174.83C207.334 175.194 207.493 175.497 207.763 175.74C208.034 175.973 208.398 176.09 208.855 176.09C209.21 176.09 209.49 176.006 209.695 175.838C209.901 175.661 210.003 175.446 210.003 175.194C210.003 174.746 209.714 174.457 209.135 174.326L207.987 174.074C207.465 173.962 207.054 173.738 206.755 173.402C206.457 173.066 206.307 172.66 206.307 172.184C206.307 171.605 206.541 171.106 207.007 170.686C207.483 170.266 208.048 170.056 208.701 170.056C209.131 170.056 209.513 170.121 209.849 170.252C210.185 170.373 210.447 170.537 210.633 170.742C210.82 170.947 210.96 171.139 211.053 171.316C211.147 171.493 211.217 171.675 211.263 171.862L210.101 172.296C210.083 172.184 210.05 172.077 210.003 171.974C209.957 171.862 209.882 171.741 209.779 171.61C209.686 171.479 209.546 171.377 209.359 171.302C209.173 171.218 208.953 171.176 208.701 171.176C208.375 171.176 208.104 171.265 207.889 171.442C207.684 171.619 207.581 171.829 207.581 172.072C207.581 172.501 207.838 172.772 208.351 172.884L209.443 173.122C210.041 173.253 210.498 173.495 210.815 173.85C211.142 174.195 211.305 174.62 211.305 175.124C211.305 175.656 211.086 176.137 210.647 176.566C210.218 176.995 209.616 177.21 208.841 177.21C208.011 177.21 207.362 177.005 206.895 176.594C206.429 176.174 206.163 175.726 206.097 175.25ZM214.36 177H213.058V170.266H214.36V177ZM213.03 168.39C212.852 168.203 212.764 167.979 212.764 167.718C212.764 167.457 212.852 167.233 213.03 167.046C213.216 166.859 213.44 166.766 213.702 166.766C213.963 166.766 214.187 166.859 214.374 167.046C214.56 167.223 214.654 167.447 214.654 167.718C214.654 167.979 214.56 168.203 214.374 168.39C214.187 168.567 213.963 168.656 213.702 168.656C213.44 168.656 213.216 168.567 213.03 168.39ZM218.363 168.138V170.266H219.819V171.456H218.363V174.956C218.363 175.273 218.433 175.507 218.573 175.656C218.722 175.805 218.965 175.88 219.301 175.88C219.497 175.88 219.669 175.861 219.819 175.824V176.944C219.595 177.028 219.296 177.07 218.923 177.07C218.344 177.07 217.887 176.902 217.551 176.566C217.215 176.23 217.047 175.759 217.047 175.152V171.456H215.759V170.266H216.123C216.468 170.266 216.725 170.173 216.893 169.986C217.07 169.79 217.159 169.538 217.159 169.23V168.138H218.363ZM222.361 172.94H226.043C226.024 172.436 225.856 172.025 225.539 171.708C225.221 171.381 224.773 171.218 224.195 171.218C223.672 171.218 223.243 171.391 222.907 171.736C222.571 172.072 222.389 172.473 222.361 172.94ZM226.239 174.69L227.373 175.082C227.177 175.707 226.813 176.221 226.281 176.622C225.749 177.014 225.105 177.21 224.349 177.21C223.406 177.21 222.603 176.888 221.941 176.244C221.287 175.591 220.961 174.713 220.961 173.612C220.961 172.585 221.278 171.736 221.913 171.064C222.547 170.392 223.303 170.056 224.181 170.056C225.198 170.056 225.991 170.378 226.561 171.022C227.13 171.657 227.415 172.511 227.415 173.584C227.415 173.752 227.405 173.892 227.387 174.004H222.319C222.328 174.601 222.524 175.091 222.907 175.474C223.299 175.857 223.779 176.048 224.349 176.048C225.31 176.048 225.94 175.595 226.239 174.69ZM229.879 173.612C229.879 174.321 230.051 174.9 230.397 175.348C230.751 175.796 231.237 176.02 231.853 176.02C232.441 176.02 232.912 175.791 233.267 175.334C233.621 174.877 233.799 174.293 233.799 173.584C233.799 172.884 233.626 172.319 233.281 171.89C232.935 171.461 232.464 171.246 231.867 171.246C231.269 171.246 230.789 171.465 230.425 171.904C230.061 172.343 229.879 172.912 229.879 173.612ZM233.813 176.09V175.978C233.635 176.323 233.365 176.613 233.001 176.846C232.646 177.07 232.221 177.182 231.727 177.182C230.765 177.182 229.991 176.846 229.403 176.174C228.824 175.493 228.535 174.639 228.535 173.612C228.535 172.632 228.833 171.801 229.431 171.12C230.028 170.429 230.793 170.084 231.727 170.084C232.277 170.084 232.725 170.196 233.071 170.42C233.416 170.635 233.654 170.901 233.785 171.218V166.864H235.087V175.754C235.087 176.211 235.11 176.627 235.157 177H233.883C233.836 176.739 233.813 176.435 233.813 176.09ZM50.4337 197H49.1317V190.266H50.4337V197ZM49.1037 188.39C48.9264 188.203 48.8377 187.979 48.8377 187.718C48.8377 187.457 48.9264 187.233 49.1037 187.046C49.2904 186.859 49.5144 186.766 49.7757 186.766C50.0371 186.766 50.2611 186.859 50.4477 187.046C50.6344 187.223 50.7277 187.447 50.7277 187.718C50.7277 187.979 50.6344 188.203 50.4477 188.39C50.2611 188.567 50.0371 188.656 49.7757 188.656C49.5144 188.656 49.2904 188.567 49.1037 188.39ZM53.9887 193.108V197H52.6727V190.266H53.9607V191.232C54.4087 190.457 55.0994 190.07 56.0327 190.07C56.8074 190.07 57.4001 190.317 57.8107 190.812C58.2307 191.307 58.4407 191.946 58.4407 192.73V197H57.1247V192.954C57.1247 191.825 56.6021 191.26 55.5567 191.26C55.0621 191.26 54.6747 191.437 54.3947 191.792C54.1241 192.137 53.9887 192.576 53.9887 193.108ZM62.2981 188.138V190.266H63.7541V191.456H62.2981V194.956C62.2981 195.273 62.3681 195.507 62.5081 195.656C62.6574 195.805 62.9001 195.88 63.2361 195.88C63.4321 195.88 63.6047 195.861 63.7541 195.824V196.944C63.5301 197.028 63.2314 197.07 62.8581 197.07C62.2794 197.07 61.8221 196.902 61.4861 196.566C61.1501 196.23 60.9821 195.759 60.9821 195.152V191.456H59.6941V190.266H60.0581C60.4034 190.266 60.6601 190.173 60.8281 189.986C61.0054 189.79 61.0941 189.538 61.0941 189.23V188.138H62.2981ZM66.8283 195.404C67.2389 195.824 67.7383 196.034 68.3263 196.034C68.9143 196.034 69.4089 195.824 69.8103 195.404C70.2209 194.975 70.4263 194.382 70.4263 193.626C70.4263 192.879 70.2209 192.296 69.8103 191.876C69.4089 191.447 68.9143 191.232 68.3263 191.232C67.7383 191.232 67.2389 191.447 66.8283 191.876C66.4269 192.296 66.2263 192.879 66.2263 193.626C66.2263 194.382 66.4269 194.975 66.8283 195.404ZM65.8483 191.078C66.5016 190.397 67.3276 190.056 68.3263 190.056C69.3249 190.056 70.1463 190.397 70.7903 191.078C71.4436 191.75 71.7703 192.599 71.7703 193.626C71.7703 194.662 71.4483 195.521 70.8043 196.202C70.1603 196.874 69.3343 197.21 68.3263 197.21C67.3183 197.21 66.4923 196.874 65.8483 196.202C65.2043 195.521 64.8823 194.662 64.8823 193.626C64.8823 192.599 65.2043 191.75 65.8483 191.078ZM78.634 199.814H77.192L78.872 196.258L75.974 190.266H77.486L79.586 194.914L81.602 190.266H83.016L78.634 199.814ZM85.3947 195.404C85.8053 195.824 86.3047 196.034 86.8927 196.034C87.4807 196.034 87.9753 195.824 88.3767 195.404C88.7873 194.975 88.9927 194.382 88.9927 193.626C88.9927 192.879 88.7873 192.296 88.3767 191.876C87.9753 191.447 87.4807 191.232 86.8927 191.232C86.3047 191.232 85.8053 191.447 85.3947 191.876C84.9933 192.296 84.7927 192.879 84.7927 193.626C84.7927 194.382 84.9933 194.975 85.3947 195.404ZM84.4147 191.078C85.068 190.397 85.894 190.056 86.8927 190.056C87.8913 190.056 88.7127 190.397 89.3567 191.078C90.01 191.75 90.3367 192.599 90.3367 193.626C90.3367 194.662 90.0147 195.521 89.3707 196.202C88.7267 196.874 87.9007 197.21 86.8927 197.21C85.8847 197.21 85.0587 196.874 84.4147 196.202C83.7707 195.521 83.4487 194.662 83.4487 193.626C83.4487 192.599 83.7707 191.75 84.4147 191.078ZM96.39 196.188C96.2127 196.524 95.942 196.781 95.578 196.958C95.214 197.126 94.822 197.21 94.402 197.21C93.6367 197.21 93.0254 196.958 92.568 196.454C92.1107 195.941 91.882 195.292 91.882 194.508V190.266H93.198V194.312C93.198 194.816 93.3194 195.231 93.562 195.558C93.814 195.885 94.2014 196.048 94.724 196.048C95.2467 196.048 95.6434 195.894 95.914 195.586C96.1847 195.269 96.32 194.849 96.32 194.326V190.266H97.636V195.754C97.636 196.193 97.6594 196.608 97.706 197H96.446C96.4087 196.795 96.39 196.524 96.39 196.188ZM103.62 190.196V191.596C103.424 191.568 103.232 191.554 103.046 191.554C101.814 191.554 101.198 192.245 101.198 193.626V197H99.8817V190.266H101.17V191.442C101.58 190.583 102.252 190.154 103.186 190.154C103.335 190.154 103.48 190.168 103.62 190.196ZM114.808 197L111.448 192.492L110.034 194.004V197H108.662V187.074H110.034V192.184L114.682 187.074H116.488L112.358 191.498L116.544 197H114.808ZM121.546 196.188C121.369 196.524 121.098 196.781 120.734 196.958C120.37 197.126 119.978 197.21 119.558 197.21C118.793 197.21 118.182 196.958 117.724 196.454C117.267 195.941 117.038 195.292 117.038 194.508V190.266H118.354V194.312C118.354 194.816 118.476 195.231 118.718 195.558C118.97 195.885 119.358 196.048 119.88 196.048C120.403 196.048 120.8 195.894 121.07 195.586C121.341 195.269 121.476 194.849 121.476 194.326V190.266H122.792V195.754C122.792 196.193 122.816 196.608 122.862 197H121.602C121.565 196.795 121.546 196.524 121.546 196.188ZM125.754 193.612C125.754 194.321 125.926 194.9 126.272 195.348C126.626 195.796 127.112 196.02 127.728 196.02C128.316 196.02 128.787 195.791 129.142 195.334C129.496 194.877 129.674 194.293 129.674 193.584C129.674 192.884 129.501 192.319 129.156 191.89C128.81 191.461 128.339 191.246 127.742 191.246C127.144 191.246 126.664 191.465 126.3 191.904C125.936 192.343 125.754 192.912 125.754 193.612ZM129.688 196.09V195.978C129.51 196.323 129.24 196.613 128.876 196.846C128.521 197.07 128.096 197.182 127.602 197.182C126.64 197.182 125.866 196.846 125.278 196.174C124.699 195.493 124.41 194.639 124.41 193.612C124.41 192.632 124.708 191.801 125.306 191.12C125.903 190.429 126.668 190.084 127.602 190.084C128.152 190.084 128.6 190.196 128.946 190.42C129.291 190.635 129.529 190.901 129.66 191.218V186.864H130.962V195.754C130.962 196.211 130.985 196.627 131.032 197H129.758C129.711 196.739 129.688 196.435 129.688 196.09ZM132.78 195.194C132.78 194.615 132.967 194.153 133.34 193.808C133.713 193.453 134.208 193.234 134.824 193.15L136.644 192.884C136.989 192.837 137.162 192.669 137.162 192.38C137.162 192.025 137.041 191.736 136.798 191.512C136.555 191.288 136.191 191.176 135.706 191.176C135.258 191.176 134.903 191.302 134.642 191.554C134.381 191.797 134.227 192.123 134.18 192.534L132.92 192.24C132.985 191.596 133.279 191.073 133.802 190.672C134.325 190.261 134.95 190.056 135.678 190.056C136.63 190.056 137.335 190.289 137.792 190.756C138.249 191.213 138.478 191.801 138.478 192.52V195.894C138.478 196.295 138.506 196.664 138.562 197H137.274C137.227 196.72 137.204 196.417 137.204 196.09C137.017 196.389 136.742 196.65 136.378 196.874C136.023 197.098 135.575 197.21 135.034 197.21C134.371 197.21 133.83 197.014 133.41 196.622C132.99 196.221 132.78 195.745 132.78 195.194ZM135.216 196.104C135.804 196.104 136.275 195.945 136.63 195.628C136.985 195.311 137.162 194.807 137.162 194.116V193.808L135.104 194.116C134.805 194.163 134.567 194.27 134.39 194.438C134.213 194.606 134.124 194.835 134.124 195.124C134.124 195.385 134.222 195.614 134.418 195.81C134.623 196.006 134.889 196.104 135.216 196.104ZM144.168 187.074H147.402C148.326 187.074 149.054 187.321 149.586 187.816C150.128 188.311 150.398 188.959 150.398 189.762C150.398 190.275 150.263 190.719 149.992 191.092C149.722 191.465 149.362 191.736 148.914 191.904C149.465 192.044 149.899 192.338 150.216 192.786C150.543 193.225 150.706 193.729 150.706 194.298C150.706 195.082 150.422 195.731 149.852 196.244C149.283 196.748 148.546 197 147.64 197H144.168V187.074ZM145.54 191.414H147.248C147.79 191.414 148.219 191.269 148.536 190.98C148.854 190.681 149.012 190.299 149.012 189.832C149.012 189.356 148.849 188.978 148.522 188.698C148.196 188.418 147.752 188.278 147.192 188.278H145.54V191.414ZM145.54 195.796H147.444C148.004 195.796 148.452 195.651 148.788 195.362C149.134 195.073 149.306 194.69 149.306 194.214C149.306 193.719 149.152 193.327 148.844 193.038C148.536 192.739 148.088 192.59 147.5 192.59H145.54V195.796ZM151.893 195.194C151.893 194.615 152.08 194.153 152.453 193.808C152.827 193.453 153.321 193.234 153.937 193.15L155.757 192.884C156.103 192.837 156.275 192.669 156.275 192.38C156.275 192.025 156.154 191.736 155.911 191.512C155.669 191.288 155.305 191.176 154.819 191.176C154.371 191.176 154.017 191.302 153.755 191.554C153.494 191.797 153.34 192.123 153.293 192.534L152.033 192.24C152.099 191.596 152.393 191.073 152.915 190.672C153.438 190.261 154.063 190.056 154.791 190.056C155.743 190.056 156.448 190.289 156.905 190.756C157.363 191.213 157.591 191.801 157.591 192.52V195.894C157.591 196.295 157.619 196.664 157.675 197H156.387C156.341 196.72 156.317 196.417 156.317 196.09C156.131 196.389 155.855 196.65 155.491 196.874C155.137 197.098 154.689 197.21 154.147 197.21C153.485 197.21 152.943 197.014 152.523 196.622C152.103 196.221 151.893 195.745 151.893 195.194ZM154.329 196.104C154.917 196.104 155.389 195.945 155.743 195.628C156.098 195.311 156.275 194.807 156.275 194.116V193.808L154.217 194.116C153.919 194.163 153.681 194.27 153.503 194.438C153.326 194.606 153.237 194.835 153.237 195.124C153.237 195.385 153.335 195.614 153.531 195.81C153.737 196.006 154.003 196.104 154.329 196.104ZM160.957 193.108V197H159.641V190.266H160.929V191.232C161.377 190.457 162.068 190.07 163.001 190.07C163.776 190.07 164.369 190.317 164.779 190.812C165.199 191.307 165.409 191.946 165.409 192.73V197H164.093V192.954C164.093 191.825 163.571 191.26 162.525 191.26C162.031 191.26 161.643 191.437 161.363 191.792C161.093 192.137 160.957 192.576 160.957 193.108ZM173.537 190.266L170.667 193.108L173.593 197H171.941L169.743 194.032L168.805 194.97V197H167.503V186.864H168.805V193.248L171.717 190.266H173.537ZM177.938 195.194C177.938 194.615 178.125 194.153 178.498 193.808C178.872 193.453 179.366 193.234 179.982 193.15L181.802 192.884C182.148 192.837 182.32 192.669 182.32 192.38C182.32 192.025 182.199 191.736 181.956 191.512C181.714 191.288 181.35 191.176 180.864 191.176C180.416 191.176 180.062 191.302 179.8 191.554C179.539 191.797 179.385 192.123 179.338 192.534L178.078 192.24C178.144 191.596 178.438 191.073 178.96 190.672C179.483 190.261 180.108 190.056 180.836 190.056C181.788 190.056 182.493 190.289 182.95 190.756C183.408 191.213 183.636 191.801 183.636 192.52V195.894C183.636 196.295 183.664 196.664 183.72 197H182.432C182.386 196.72 182.362 196.417 182.362 196.09C182.176 196.389 181.9 196.65 181.536 196.874C181.182 197.098 180.734 197.21 180.192 197.21C179.53 197.21 178.988 197.014 178.568 196.622C178.148 196.221 177.938 195.745 177.938 195.194ZM180.374 196.104C180.962 196.104 181.434 195.945 181.788 195.628C182.143 195.311 182.32 194.807 182.32 194.116V193.808L180.262 194.116C179.964 194.163 179.726 194.27 179.548 194.438C179.371 194.606 179.282 194.835 179.282 195.124C179.282 195.385 179.38 195.614 179.576 195.81C179.782 196.006 180.048 196.104 180.374 196.104ZM188.514 191.274C187.945 191.274 187.46 191.479 187.058 191.89C186.666 192.301 186.47 192.879 186.47 193.626C186.47 194.363 186.666 194.942 187.058 195.362C187.46 195.782 187.95 195.992 188.528 195.992C189.088 195.992 189.513 195.852 189.802 195.572C190.101 195.292 190.302 194.97 190.404 194.606L191.566 195.11C191.38 195.67 191.025 196.16 190.502 196.58C189.989 197 189.331 197.21 188.528 197.21C187.548 197.21 186.736 196.869 186.092 196.188C185.448 195.507 185.126 194.653 185.126 193.626C185.126 192.581 185.448 191.727 186.092 191.064C186.736 190.392 187.544 190.056 188.514 190.056C189.336 190.056 189.998 190.266 190.502 190.686C191.016 191.106 191.352 191.61 191.51 192.198L190.32 192.702C190.218 192.31 190.022 191.974 189.732 191.694C189.443 191.414 189.037 191.274 188.514 191.274ZM195.87 191.274C195.301 191.274 194.815 191.479 194.414 191.89C194.022 192.301 193.826 192.879 193.826 193.626C193.826 194.363 194.022 194.942 194.414 195.362C194.815 195.782 195.305 195.992 195.884 195.992C196.444 195.992 196.869 195.852 197.158 195.572C197.457 195.292 197.657 194.97 197.76 194.606L198.922 195.11C198.735 195.67 198.381 196.16 197.858 196.58C197.345 197 196.687 197.21 195.884 197.21C194.904 197.21 194.092 196.869 193.448 196.188C192.804 195.507 192.482 194.653 192.482 193.626C192.482 192.581 192.804 191.727 193.448 191.064C194.092 190.392 194.899 190.056 195.87 190.056C196.691 190.056 197.354 190.266 197.858 190.686C198.371 191.106 198.707 191.61 198.866 192.198L197.676 192.702C197.573 192.31 197.377 191.974 197.088 191.694C196.799 191.414 196.393 191.274 195.87 191.274ZM201.783 195.404C202.194 195.824 202.693 196.034 203.281 196.034C203.869 196.034 204.364 195.824 204.765 195.404C205.176 194.975 205.381 194.382 205.381 193.626C205.381 192.879 205.176 192.296 204.765 191.876C204.364 191.447 203.869 191.232 203.281 191.232C202.693 191.232 202.194 191.447 201.783 191.876C201.382 192.296 201.181 192.879 201.181 193.626C201.181 194.382 201.382 194.975 201.783 195.404ZM200.803 191.078C201.457 190.397 202.283 190.056 203.281 190.056C204.28 190.056 205.101 190.397 205.745 191.078C206.399 191.75 206.725 192.599 206.725 193.626C206.725 194.662 206.403 195.521 205.759 196.202C205.115 196.874 204.289 197.21 203.281 197.21C202.273 197.21 201.447 196.874 200.803 196.202C200.159 195.521 199.837 194.662 199.837 193.626C199.837 192.599 200.159 191.75 200.803 191.078ZM212.779 196.188C212.601 196.524 212.331 196.781 211.967 196.958C211.603 197.126 211.211 197.21 210.791 197.21C210.025 197.21 209.414 196.958 208.957 196.454C208.499 195.941 208.271 195.292 208.271 194.508V190.266H209.587V194.312C209.587 194.816 209.708 195.231 209.951 195.558C210.203 195.885 210.59 196.048 211.113 196.048C211.635 196.048 212.032 195.894 212.303 195.586C212.573 195.269 212.709 194.849 212.709 194.326V190.266H214.025V195.754C214.025 196.193 214.048 196.608 214.095 197H212.835C212.797 196.795 212.779 196.524 212.779 196.188ZM217.586 193.108V197H216.27V190.266H217.558V191.232C218.006 190.457 218.697 190.07 219.63 190.07C220.405 190.07 220.998 190.317 221.408 190.812C221.828 191.307 222.038 191.946 222.038 192.73V197H220.722V192.954C220.722 191.825 220.2 191.26 219.154 191.26C218.66 191.26 218.272 191.437 217.992 191.792C217.722 192.137 217.586 192.576 217.586 193.108ZM225.896 188.138V190.266H227.352V191.456H225.896V194.956C225.896 195.273 225.966 195.507 226.106 195.656C226.255 195.805 226.498 195.88 226.834 195.88C227.03 195.88 227.202 195.861 227.352 195.824V196.944C227.128 197.028 226.829 197.07 226.456 197.07C225.877 197.07 225.42 196.902 225.084 196.566C224.748 196.23 224.58 195.759 224.58 195.152V191.456H223.292V190.266H223.656C224.001 190.266 224.258 190.173 224.426 189.986C224.603 189.79 224.692 189.538 224.692 189.23V188.138H225.896ZM99.6009 219.24C97.8276 217.429 96.9409 215.203 96.9409 212.562C96.9409 209.921 97.8276 207.695 99.6009 205.884L100.399 206.584C98.8496 208.32 98.0749 210.313 98.0749 212.562C98.0749 214.811 98.8496 216.804 100.399 218.54L99.6009 219.24ZM102.978 209.524C102.446 210.084 102.18 211.064 102.18 212.464C102.18 213.864 102.446 214.844 102.978 215.404C103.351 215.796 103.832 215.992 104.42 215.992C105.008 215.992 105.489 215.796 105.862 215.404C106.394 214.844 106.66 213.864 106.66 212.464C106.66 211.064 106.394 210.084 105.862 209.524C105.489 209.132 105.008 208.936 104.42 208.936C103.832 208.936 103.351 209.132 102.978 209.524ZM101.634 215.754C101.093 214.951 100.822 213.855 100.822 212.464C100.822 211.073 101.093 209.977 101.634 209.174C102.278 208.203 103.207 207.718 104.42 207.718C105.633 207.718 106.562 208.203 107.206 209.174C107.747 209.977 108.018 211.073 108.018 212.464C108.018 213.855 107.747 214.951 107.206 215.754C106.562 216.725 105.633 217.21 104.42 217.21C103.207 217.21 102.278 216.725 101.634 215.754ZM112.545 217H111.201V210.602H109.003V209.636C109.619 209.627 110.137 209.468 110.557 209.16C110.977 208.843 111.239 208.432 111.341 207.928H112.545V217ZM115.631 211.19L114.259 211.022C114.25 210.938 114.245 210.817 114.245 210.658C114.245 209.846 114.53 209.155 115.099 208.586C115.669 208.007 116.429 207.718 117.381 207.718C118.324 207.718 119.071 207.989 119.621 208.53C120.172 209.062 120.447 209.72 120.447 210.504C120.447 211.652 119.878 212.585 118.739 213.304L116.947 214.452C116.303 214.863 115.935 215.287 115.841 215.726H120.503V217H114.147C114.166 216.235 114.339 215.563 114.665 214.984C115.001 214.405 115.547 213.873 116.303 213.388L117.815 212.408C118.646 211.876 119.061 211.246 119.061 210.518C119.061 210.07 118.912 209.692 118.613 209.384C118.315 209.076 117.895 208.922 117.353 208.922C116.784 208.922 116.35 209.095 116.051 209.44C115.753 209.785 115.603 210.233 115.603 210.784C115.603 210.868 115.613 211.003 115.631 211.19ZM121.352 214.956V213.374L125.244 207.928H127.134V213.682H128.688V214.956H127.134V217H125.804V214.956H121.352ZM125.804 213.682V209.244L122.612 213.682H125.804ZM131.757 209.524C131.225 210.084 130.959 211.064 130.959 212.464C130.959 213.864 131.225 214.844 131.757 215.404C132.131 215.796 132.611 215.992 133.199 215.992C133.787 215.992 134.268 215.796 134.641 215.404C135.173 214.844 135.439 213.864 135.439 212.464C135.439 211.064 135.173 210.084 134.641 209.524C134.268 209.132 133.787 208.936 133.199 208.936C132.611 208.936 132.131 209.132 131.757 209.524ZM130.413 215.754C129.872 214.951 129.601 213.855 129.601 212.464C129.601 211.073 129.872 209.977 130.413 209.174C131.057 208.203 131.986 207.718 133.199 207.718C134.413 207.718 135.341 208.203 135.985 209.174C136.527 209.977 136.797 211.073 136.797 212.464C136.797 213.855 136.527 214.951 135.985 215.754C135.341 216.725 134.413 217.21 133.199 217.21C131.986 217.21 131.057 216.725 130.413 215.754ZM138.299 216.678L138.747 215.544C139.223 215.833 139.774 215.978 140.399 215.978C141.435 215.978 142.21 215.684 142.723 215.096C143.246 214.499 143.521 213.719 143.549 212.758C143.372 213.085 143.078 213.36 142.667 213.584C142.266 213.808 141.776 213.92 141.197 213.92C140.357 213.92 139.624 213.649 138.999 213.108C138.374 212.557 138.061 211.806 138.061 210.854C138.061 209.939 138.388 209.188 139.041 208.6C139.704 208.012 140.492 207.718 141.407 207.718C142.378 207.718 143.208 208.073 143.899 208.782C144.59 209.491 144.935 210.527 144.935 211.89C144.935 213.589 144.552 214.9 143.787 215.824C143.031 216.748 141.902 217.21 140.399 217.21C140.044 217.21 139.662 217.159 139.251 217.056C138.84 216.953 138.523 216.827 138.299 216.678ZM143.367 210.826C143.367 210.266 143.171 209.809 142.779 209.454C142.387 209.099 141.93 208.922 141.407 208.922C140.875 208.922 140.413 209.099 140.021 209.454C139.638 209.799 139.447 210.257 139.447 210.826C139.447 211.414 139.638 211.881 140.021 212.226C140.404 212.571 140.866 212.744 141.407 212.744C141.939 212.744 142.396 212.571 142.779 212.226C143.171 211.871 143.367 211.405 143.367 210.826ZM149.487 211.792C149.973 211.783 150.374 211.643 150.691 211.372C151.009 211.101 151.167 210.747 151.167 210.308C151.167 209.897 151.013 209.552 150.705 209.272C150.397 208.992 149.991 208.852 149.487 208.852C148.983 208.852 148.577 208.992 148.269 209.272C147.961 209.552 147.807 209.897 147.807 210.308C147.807 210.747 147.966 211.101 148.283 211.372C148.601 211.643 149.002 211.783 149.487 211.792ZM148.087 215.586C148.433 215.875 148.899 216.02 149.487 216.02C150.075 216.02 150.537 215.875 150.873 215.586C151.219 215.297 151.391 214.933 151.391 214.494C151.391 214.046 151.219 213.677 150.873 213.388C150.537 213.089 150.075 212.94 149.487 212.94C148.899 212.94 148.433 213.089 148.087 213.388C147.751 213.677 147.583 214.046 147.583 214.494C147.583 214.933 147.751 215.297 148.087 215.586ZM151.895 216.482C151.307 216.967 150.505 217.21 149.487 217.21C148.47 217.21 147.667 216.967 147.079 216.482C146.491 215.987 146.197 215.362 146.197 214.606C146.197 214.074 146.356 213.612 146.673 213.22C147 212.819 147.415 212.534 147.919 212.366C147.49 212.207 147.135 211.937 146.855 211.554C146.575 211.162 146.435 210.723 146.435 210.238C146.435 209.501 146.725 208.899 147.303 208.432C147.882 207.956 148.61 207.718 149.487 207.718C150.365 207.718 151.093 207.956 151.671 208.432C152.25 208.899 152.539 209.501 152.539 210.238C152.539 210.714 152.399 211.148 152.119 211.54C151.839 211.932 151.485 212.207 151.055 212.366C151.559 212.525 151.97 212.805 152.287 213.206C152.614 213.607 152.777 214.074 152.777 214.606C152.777 215.362 152.483 215.987 151.895 216.482ZM160.093 207.928V209.244C159.86 209.431 159.631 209.631 159.407 209.846C159.183 210.061 158.885 210.406 158.511 210.882C158.147 211.358 157.825 211.862 157.545 212.394C157.265 212.926 156.999 213.603 156.747 214.424C156.505 215.236 156.341 216.095 156.257 217H154.843C154.899 216.281 155.011 215.586 155.179 214.914C155.347 214.233 155.543 213.64 155.767 213.136C155.991 212.632 156.229 212.161 156.481 211.722C156.743 211.274 156.995 210.901 157.237 210.602C157.489 210.294 157.713 210.033 157.909 209.818C158.115 209.603 158.278 209.445 158.399 209.342L158.581 209.188H153.471V207.928H160.093ZM167.163 208.222L166.743 209.342C166.295 209.081 165.754 208.95 165.119 208.95C164.195 208.95 163.444 209.253 162.865 209.86C162.296 210.467 161.983 211.246 161.927 212.198C162.133 211.862 162.441 211.582 162.851 211.358C163.271 211.134 163.761 211.022 164.321 211.022C165.245 211.022 165.992 211.297 166.561 211.848C167.14 212.399 167.429 213.155 167.429 214.116C167.429 215.059 167.103 215.81 166.449 216.37C165.796 216.93 165.003 217.21 164.069 217.21C163.099 217.21 162.263 216.86 161.563 216.16C160.873 215.451 160.527 214.401 160.527 213.01C160.527 211.367 160.966 210.075 161.843 209.132C162.721 208.189 163.841 207.718 165.203 207.718C166.034 207.718 166.687 207.886 167.163 208.222ZM162.123 214.116C162.123 214.685 162.319 215.147 162.711 215.502C163.103 215.847 163.561 216.02 164.083 216.02C164.634 216.02 165.096 215.847 165.469 215.502C165.852 215.157 166.043 214.695 166.043 214.116C166.043 213.528 165.852 213.061 165.469 212.716C165.096 212.371 164.634 212.198 164.083 212.198C163.533 212.198 163.066 212.371 162.683 212.716C162.31 213.061 162.123 213.528 162.123 214.116ZM168.425 214.536L169.741 214.144C169.778 214.704 169.983 215.157 170.357 215.502C170.739 215.847 171.215 216.02 171.785 216.02C172.335 216.02 172.797 215.852 173.171 215.516C173.544 215.18 173.731 214.737 173.731 214.186C173.731 213.589 173.544 213.127 173.171 212.8C172.797 212.473 172.331 212.31 171.771 212.31C171.089 212.31 170.539 212.529 170.119 212.968C169.988 212.921 169.773 212.837 169.475 212.716C169.176 212.595 168.943 212.501 168.775 212.436L169.951 207.928H174.739V209.188H170.861L170.189 211.792C170.59 211.344 171.206 211.12 172.037 211.12C172.942 211.12 173.679 211.391 174.249 211.932C174.827 212.473 175.117 213.206 175.117 214.13C175.117 215.007 174.809 215.745 174.193 216.342C173.577 216.93 172.774 217.224 171.785 217.224C170.851 217.224 170.072 216.963 169.447 216.44C168.831 215.917 168.49 215.283 168.425 214.536ZM176.402 205.884C178.176 207.695 179.062 209.921 179.062 212.562C179.062 215.203 178.176 217.429 176.402 219.24L175.604 218.54C177.154 216.804 177.928 214.811 177.928 212.562C177.928 210.313 177.154 208.32 175.604 206.584L176.402 205.884Z" fill="#292C3E"/>
<rect x="98" y="34" width="80" height="80" rx="40" fill="#80DD92"/>
<path d="M160.367 58.0334C160.057 57.721 159.688 57.473 159.282 57.3038C158.876 57.1346 158.44 57.0474 158 57.0474C157.56 57.0474 157.124 57.1346 156.718 57.3038C156.312 57.473 155.943 57.721 155.633 58.0334L130.8 82.9001L120.367 72.4334C120.045 72.1226 119.665 71.8782 119.249 71.7142C118.833 71.5502 118.389 71.4698 117.941 71.4775C117.494 71.4853 117.053 71.581 116.642 71.7593C116.232 71.9376 115.861 72.195 115.55 72.5168C115.239 72.8385 114.995 73.2183 114.831 73.6345C114.667 74.0507 114.587 74.4951 114.594 74.9423C114.602 75.3896 114.698 75.831 114.876 76.2412C115.054 76.6515 115.312 77.0226 115.633 77.3334L128.433 90.1334C128.743 90.4459 129.112 90.6938 129.518 90.8631C129.924 91.0323 130.36 91.1194 130.8 91.1194C131.24 91.1194 131.676 91.0323 132.082 90.8631C132.488 90.6938 132.857 90.4459 133.167 90.1334L160.367 62.9334C160.705 62.6213 160.975 62.2424 161.16 61.8208C161.345 61.3991 161.44 60.9438 161.44 60.4834C161.44 60.0231 161.345 59.5677 161.16 59.1461C160.975 58.7244 160.705 58.3456 160.367 58.0334Z" fill="white"/>
<defs>
<linearGradient id="paint0_linear" x1="138" y1="0" x2="138" y2="280" gradientUnits="userSpaceOnUse">
<stop stop-color="white"/>
<stop offset="1" stop-color="white" stop-opacity="0"/>
</linearGradient>
</defs>
</svg>
