<svg width="276" height="280" viewBox="0 0 276 280" fill="none" xmlns="http://www.w3.org/2000/svg">
<rect width="276" height="280" rx="16" fill="white"/>
<rect x="0.5" y="0.5" width="275" height="279" rx="15.5" stroke="#4152FC" stroke-opacity="0.4"/>
<rect x="0.5" y="0.5" width="275" height="279" rx="15.5" stroke="url(#paint0_linear)" stroke-opacity="0.8"/>
<rect x="28.5" y="20.5" width="219" height="59" rx="7.5" fill="white" stroke="#E4E4E7"/>
<g clip-path="url(#clip0)">
<path d="M63.9464 51.1224H40.0537V51.1228H63.9464V51.1224Z" fill="#C42126"/>
<path d="M62.7013 44.5717H41.2983V44.572H62.7013V44.5717Z" fill="#C42126"/>
<path d="M63.5516 46.755H40.4473V46.7554H63.5516V46.755Z" fill="#C42126"/>
<path d="M45.1575 59.8559H58.8425L58.8432 59.8551H45.1567L45.1575 59.8559Z" fill="#C42126"/>
<path d="M51.9995 38C51.7638 38 51.53 38.0085 51.2979 38.0218H52.7013C52.469 38.0085 52.2352 38 51.9995 38Z" fill="#C42126"/>
<path d="M63.9496 48.9388H40.0493V48.9391H63.9496V48.9388Z" fill="#C42126"/>
<path d="M55.5467 42.3885H61.2767C60.5961 41.56 59.8051 40.8265 58.9288 40.2056H54.626C54.982 40.832 55.2882 41.5711 55.5467 42.3885Z" fill="#E7E7E7"/>
<path d="M54.6258 40.2052H58.9286C57.1498 38.9446 55.0142 38.1552 52.7015 38.0217H52.332C53.4206 38.1587 53.9206 38.9643 54.6258 40.2052Z" fill="#DC3027"/>
<path d="M63.5527 46.7549C63.3394 45.994 63.0533 45.2639 62.7016 44.572H56.1094C56.2429 45.2728 56.3483 46.0049 56.4264 46.7549H63.5527Z" fill="#E7E7E7"/>
<path d="M55.7383 44.5717H62.7011C62.3043 43.7912 61.8277 43.0589 61.2767 42.3884H55.1943C55.4088 43.0673 55.5909 43.7996 55.7383 44.5717Z" fill="#DC3027"/>
<path d="M56.6787 51.122H63.946C63.9805 50.7527 64 50.3785 64 50.0003C64 49.6424 63.9813 49.289 63.9505 48.9388H56.6804C56.7041 49.6649 56.7037 50.3963 56.6787 51.122Z" fill="#E7E7E7"/>
<path d="M63.9507 48.9383C63.885 48.1885 63.7499 47.459 63.5526 46.7553H56.1201C56.1948 47.4702 56.2441 48.2016 56.2681 48.9383H63.9507Z" fill="#DC3027"/>
<path d="M55.9839 55.4885H62.6701C63.0267 54.7973 63.3173 54.0667 63.5352 53.3052H56.3071C56.2275 54.0563 56.1195 54.7883 55.9839 55.4885Z" fill="#E7E7E7"/>
<path d="M63.5355 53.3055C63.7369 52.602 63.8767 51.8725 63.9462 51.1226H56.4523C56.4267 51.8598 56.376 52.591 56.2998 53.3055H63.5355Z" fill="#DC3027"/>
<path d="M58.8434 59.8553C59.7324 59.2369 60.5346 58.5026 61.226 57.6724H55.5958C55.3327 58.4932 55.0202 59.2311 54.6577 59.8553H58.8434Z" fill="#E7E7E7"/>
<path d="M55.3838 57.6721H61.2258C61.7833 57.0023 62.2672 56.27 62.6698 55.4888H55.9346C55.7851 56.2614 55.6012 56.9941 55.3838 57.6721Z" fill="#DC3027"/>
<path d="M51.5649 61.9914C51.5407 61.9906 51.5165 61.9895 51.4922 61.9888C51.5165 61.9895 51.5407 61.9906 51.5649 61.9914Z" fill="#DC3027"/>
<path d="M52 62C54.5441 62 56.9013 61.2059 58.8427 59.8559H54.4997C53.7289 61.1839 53.2204 62 52 62Z" fill="#DC3027"/>
<path d="M51.9998 62.0001C51.854 62.0001 51.7093 61.9967 51.5649 61.9916C51.7108 61.9965 51.8557 62.0001 51.9998 62.0001Z" fill="#C42126"/>
<path d="M55.0233 40.2056H45.0713C44.1948 40.8265 43.404 41.5599 42.7231 42.3885H55.9437C55.6853 41.5711 55.3793 40.832 55.0233 40.2056Z" fill="#F3F4F5"/>
<path d="M45.0713 40.2052H55.0232C54.3178 38.9643 53.4207 38.1587 52.3321 38.0217H51.2982C48.9854 38.1552 46.8499 38.9446 45.0713 40.2052Z" fill="#E73625"/>
<path d="M40.4478 46.7549H56.8047C56.7266 46.0048 56.6213 45.2728 56.4877 44.572H41.2989C40.9472 45.264 40.6611 45.994 40.4478 46.7549Z" fill="#F3F4F5"/>
<path d="M42.7231 42.3883C42.1725 43.0588 41.6954 43.7911 41.2988 44.5716H56.4875C56.3403 43.7997 56.1582 43.0674 55.9437 42.3883C55.9437 42.3883 42.7231 42.3883 42.7231 42.3883Z" fill="#E73625"/>
<path d="M40 50.0001C40 50.3783 40.0197 50.7525 40.054 51.1218H56.9512C56.9762 50.3961 56.9765 49.6649 56.9529 48.9388H40.0495C40.0187 49.2889 40 49.6422 40 50.0001Z" fill="#F3F4F5"/>
<path d="M40.0493 48.9383H56.9525C56.9285 48.2014 56.879 47.4702 56.8045 46.7553H40.4472C40.25 47.4592 40.1149 48.1885 40.0493 48.9383Z" fill="#E73625"/>
<path d="M56.7987 53.3053H40.4648C40.6828 54.067 40.9736 54.7974 41.33 55.4886H56.4755C56.6111 54.7885 56.7189 54.0565 56.7987 53.3053Z" fill="#F3F4F5"/>
<path d="M40.465 53.3055H56.7988C56.8748 52.591 56.9257 51.8596 56.9513 51.1226H40.0542C40.1237 51.8727 40.2638 52.602 40.465 53.3055Z" fill="#E73625"/>
<path d="M45.157 59.8553H54.987C55.3495 59.231 55.6621 58.4932 55.9251 57.6724H42.7744C43.4658 58.5026 44.2678 59.2369 45.157 59.8553Z" fill="#F3F4F5"/>
<path d="M41.3301 55.4887C41.7327 56.2699 42.2166 57.0022 42.774 57.672H55.9247C56.1419 56.9941 56.3259 56.2614 56.4753 55.4887H41.3301Z" fill="#E73625"/>
<path d="M51.4919 61.9888C51.5162 61.9896 51.5404 61.9907 51.5647 61.9915C51.7091 61.9966 51.8538 62 51.9995 62C53.2199 62 54.215 61.1839 54.986 59.8559H45.1572C46.9684 61.1156 49.1425 61.8909 51.4919 61.9888Z" fill="#E73625"/>
<path d="M51.7516 38.0062C45.6022 38.1313 40.5902 42.8793 40.0508 48.9188H51.7518V38.0062H51.7516Z" fill="#283991"/>
<path d="M42.4011 44.7989L42.5839 45.3618H43.1762L42.6971 45.7099L42.8801 46.2732L42.4011 45.9249L41.9223 46.2732L42.105 45.7099L41.626 45.3618H42.2183L42.4011 44.7989Z" fill="#EFEFEF"/>
<path d="M42.4011 46.7878L42.5839 47.351H43.1762L42.6971 47.6991L42.8801 48.2625L42.4011 47.9142L41.9223 48.2625L42.105 47.6991L41.626 47.351H42.2183L42.4011 46.7878Z" fill="#EFEFEF"/>
<path d="M44.3901 41.8152L44.573 42.3784H45.1651L44.6861 42.7267L44.8689 43.2896L44.3901 42.9417L43.9111 43.2896L44.094 42.7267L43.6147 42.3784H44.207L44.3901 41.8152Z" fill="#EFEFEF"/>
<path d="M44.3901 43.8044L44.573 44.3676H45.1651L44.6861 44.7154L44.8689 45.2788L44.3901 44.9309L43.9111 45.2788L44.094 44.7154L43.6147 44.3676H44.207L44.3901 43.8044Z" fill="#EFEFEF"/>
<path d="M44.3901 45.7932L44.573 46.3565H45.1651L44.6861 46.7042L44.8689 47.2675L44.3901 46.9192L43.9111 47.2675L44.094 46.7042L43.6147 46.3565H44.207L44.3901 45.7932Z" fill="#EFEFEF"/>
<path d="M40.8909 47.2677L40.7079 46.7043L41.1869 46.3565H40.595L40.5817 46.3154C40.5167 46.5164 40.458 46.7199 40.4038 46.9257L40.4122 46.9194L40.8909 47.2677Z" fill="#EFEFEF"/>
<path d="M41.9225 44.2842L42.4013 43.9359L42.8803 44.2842L42.6973 43.7208L43.1763 43.3726H42.584L42.4012 42.8097L42.2183 43.3726H42C41.9595 43.434 41.9203 43.4958 41.8809 43.5581L42.1052 43.7208L41.9225 44.2842Z" fill="#EFEFEF"/>
<path d="M44.3901 40.9526L44.8689 41.3004L44.686 40.7375L45.1648 40.3893H44.8228C44.5323 40.6064 44.2521 40.8363 43.9828 41.0788L43.9106 41.3004L44.3901 40.9526Z" fill="#EFEFEF"/>
<path d="M45.9004 40.3063L46.3794 39.958L46.8582 40.3063L46.6754 39.743L47.1542 39.3951H46.5621L46.5372 39.3193C46.3366 39.4218 46.138 39.5284 45.944 39.6419L46.083 39.7429L45.9004 40.3063Z" fill="#EFEFEF"/>
<path d="M46.3793 40.8207L46.5622 41.3835H47.1543L46.6753 41.7317L46.8581 42.2951L46.3793 41.9468L45.9003 42.2951L46.0832 41.7317L45.604 41.3835H46.1963L46.3793 40.8207Z" fill="#EFEFEF"/>
<path d="M46.3793 42.8099L46.5622 43.3727H47.1543L46.6753 43.7209L46.8581 44.2843L46.3793 43.936L45.9003 44.2843L46.0832 43.7209L45.604 43.3727H46.1963L46.3793 42.8099Z" fill="#EFEFEF"/>
<path d="M46.3793 44.7989L46.5622 45.3618H47.1543L46.6753 45.7099L46.8581 46.2732L46.3793 45.9249L45.9003 46.2732L46.0832 45.7099L45.604 45.3618H46.1963L46.3793 44.7989Z" fill="#EFEFEF"/>
<path d="M46.3793 46.7878L46.5622 47.351H47.1543L46.6753 47.6991L46.8581 48.2625L46.3793 47.9142L45.9003 48.2625L46.0832 47.6991L45.604 47.351H46.1963L46.3793 46.7878Z" fill="#EFEFEF"/>
<path d="M48.3681 39.8259L48.5509 40.389H49.143L48.6642 40.7373L48.8469 41.3002L48.3681 40.9524L47.8889 41.3002L48.0719 40.7373L47.5928 40.389H48.185L48.3681 39.8259Z" fill="#EFEFEF"/>
<path d="M48.3681 41.8152L48.5509 42.3784H49.143L48.6642 42.7267L48.8469 43.2896L48.3681 42.9417L47.8889 43.2896L48.0719 42.7267L47.5928 42.3784H48.185L48.3681 41.8152Z" fill="#EFEFEF"/>
<path d="M48.3681 43.8044L48.5509 44.3676H49.143L48.6642 44.7154L48.8469 45.2788L48.3681 44.9309L47.8889 45.2788L48.0719 44.7154L47.5928 44.3676H48.185L48.3681 43.8044Z" fill="#EFEFEF"/>
<path d="M48.3681 45.7932L48.5509 46.3565H49.143L48.6642 46.7042L48.8469 47.2675L48.3681 46.9192L47.8889 47.2675L48.0719 46.7042L47.5928 46.3565H48.185L48.3681 45.7932Z" fill="#EFEFEF"/>
<path d="M50.3573 38.8317L50.5402 39.3948H51.1323L50.6533 39.7427L50.8362 40.306L50.3573 39.9578L49.8782 40.306L50.0612 39.7427L49.582 39.3948H50.1741L50.3573 38.8317Z" fill="#EFEFEF"/>
<path d="M50.3573 40.8207L50.5402 41.3835H51.1323L50.6533 41.7317L50.8362 42.2951L50.3573 41.9468L49.8782 42.2951L50.0612 41.7317L49.582 41.3835H50.1741L50.3573 40.8207Z" fill="#EFEFEF"/>
<path d="M50.3573 42.8099L50.5402 43.3727H51.1323L50.6533 43.7209L50.8362 44.2843L50.3573 43.936L49.8782 44.2843L50.0612 43.7209L49.582 43.3727H50.1741L50.3573 42.8099Z" fill="#EFEFEF"/>
<path d="M50.3573 44.7989L50.5402 45.3618H51.1323L50.6533 45.7099L50.8362 46.2732L50.3573 45.9249L49.8782 46.2732L50.0612 45.7099L49.582 45.3618H50.1741L50.3573 44.7989Z" fill="#EFEFEF"/>
<path d="M50.3573 46.7878L50.5402 47.351H51.1323L50.6533 47.6991L50.8362 48.2625L50.3573 47.9142L49.8782 48.2625L50.0612 47.6991L49.582 47.351H50.1741L50.3573 46.7878Z" fill="#EFEFEF"/>
</g>
<path d="M87.588 47.328L86.356 47.762C86.2907 47.3327 86.0807 46.9453 85.726 46.6C85.3713 46.2453 84.8813 46.068 84.256 46.068C83.7053 46.068 83.248 46.2267 82.884 46.544C82.52 46.8613 82.338 47.2533 82.338 47.72C82.338 48.084 82.4453 48.392 82.66 48.644C82.884 48.896 83.2013 49.0687 83.612 49.162L85.096 49.484C85.9173 49.6613 86.552 49.9973 87 50.492C87.448 50.9773 87.672 51.57 87.672 52.27C87.672 53.0727 87.3547 53.7633 86.72 54.342C86.0853 54.9207 85.2593 55.21 84.242 55.21C83.1313 55.21 82.2587 54.9207 81.624 54.342C80.9987 53.754 80.6347 53.0587 80.532 52.256L81.848 51.836C81.904 52.4333 82.1373 52.9373 82.548 53.348C82.9587 53.7587 83.5187 53.964 84.228 53.964C84.8813 53.964 85.3853 53.8147 85.74 53.516C86.0947 53.2173 86.272 52.8393 86.272 52.382C86.272 52.0087 86.146 51.6867 85.894 51.416C85.642 51.136 85.2733 50.9447 84.788 50.842L83.374 50.534C82.6367 50.3753 82.0487 50.0627 81.61 49.596C81.1713 49.1293 80.952 48.5367 80.952 47.818C80.952 47.034 81.2693 46.348 81.904 45.76C82.548 45.1627 83.3227 44.864 84.228 44.864C85.2453 44.864 86.0247 45.1113 86.566 45.606C87.1073 46.1007 87.448 46.6747 87.588 47.328ZM90.1361 50.94H93.8181C93.7994 50.436 93.6314 50.0253 93.3141 49.708C92.9968 49.3813 92.5488 49.218 91.9701 49.218C91.4474 49.218 91.0181 49.3907 90.6821 49.736C90.3461 50.072 90.1641 50.4733 90.1361 50.94ZM94.0141 52.69L95.1481 53.082C94.9521 53.7073 94.5881 54.2207 94.0561 54.622C93.5241 55.014 92.8801 55.21 92.1241 55.21C91.1814 55.21 90.3788 54.888 89.7161 54.244C89.0628 53.5907 88.7361 52.7133 88.7361 51.612C88.7361 50.5853 89.0534 49.736 89.6881 49.064C90.3228 48.392 91.0788 48.056 91.9561 48.056C92.9734 48.056 93.7668 48.378 94.3361 49.022C94.9054 49.6567 95.1901 50.5107 95.1901 51.584C95.1901 51.752 95.1808 51.892 95.1621 52.004H90.0941C90.1034 52.6013 90.2994 53.0913 90.6821 53.474C91.0741 53.8567 91.5548 54.048 92.1241 54.048C93.0854 54.048 93.7154 53.5953 94.0141 52.69ZM98.186 51.108V55H96.87V48.266H98.158V49.232C98.606 48.4573 99.2967 48.07 100.23 48.07C101.005 48.07 101.597 48.3173 102.008 48.812C102.428 49.3067 102.638 49.946 102.638 50.73V55H101.322V50.954C101.322 49.8247 100.799 49.26 99.754 49.26C99.2593 49.26 98.872 49.4373 98.592 49.792C98.3213 50.1373 98.186 50.576 98.186 51.108ZM105.515 51.612C105.515 52.3213 105.688 52.9 106.033 53.348C106.388 53.796 106.873 54.02 107.489 54.02C108.077 54.02 108.549 53.7913 108.903 53.334C109.258 52.8767 109.435 52.2933 109.435 51.584C109.435 50.884 109.263 50.3193 108.917 49.89C108.572 49.4607 108.101 49.246 107.503 49.246C106.906 49.246 106.425 49.4653 106.061 49.904C105.697 50.3427 105.515 50.912 105.515 51.612ZM109.449 54.09V53.978C109.272 54.3233 109.001 54.6127 108.637 54.846C108.283 55.07 107.858 55.182 107.363 55.182C106.402 55.182 105.627 54.846 105.039 54.174C104.461 53.4927 104.171 52.6387 104.171 51.612C104.171 50.632 104.47 49.8013 105.067 49.12C105.665 48.4293 106.43 48.084 107.363 48.084C107.914 48.084 108.362 48.196 108.707 48.42C109.053 48.6347 109.291 48.9007 109.421 49.218V44.864H110.723V53.754C110.723 54.2113 110.747 54.6267 110.793 55H109.519C109.473 54.7387 109.449 54.4353 109.449 54.09Z" fill="#83859E"/>
<path d="M180.536 57.872H179.288V56.208C178.253 56.1013 177.437 55.744 176.84 55.136C176.243 54.5173 175.896 53.8187 175.8 53.04L177.32 52.56C177.373 53.1147 177.565 53.6 177.896 54.016C178.227 54.432 178.691 54.6933 179.288 54.8V51.456L178.888 51.376C178.056 51.2053 177.405 50.8693 176.936 50.368C176.467 49.8667 176.232 49.232 176.232 48.464C176.232 47.696 176.515 47.024 177.08 46.448C177.656 45.872 178.392 45.5307 179.288 45.424V43.744H180.536V45.44C181.421 45.5573 182.099 45.8667 182.568 46.368C183.048 46.8587 183.368 47.4187 183.528 48.048L182.088 48.576C182.035 48.224 181.875 47.8827 181.608 47.552C181.341 47.2213 180.984 46.992 180.536 46.864V50.144L180.776 50.192C181.651 50.3627 182.344 50.72 182.856 51.264C183.368 51.808 183.624 52.4427 183.624 53.168C183.624 53.9253 183.352 54.592 182.808 55.168C182.264 55.744 181.507 56.0907 180.536 56.208V57.872ZM182.056 53.248C182.056 52.896 181.928 52.5813 181.672 52.304C181.416 52.0267 181.037 51.8293 180.536 51.712V54.8C181.037 54.704 181.416 54.5173 181.672 54.24C181.928 53.9627 182.056 53.632 182.056 53.248ZM177.816 48.4C177.816 49.1787 178.307 49.664 179.288 49.856V46.816C178.829 46.9013 178.467 47.088 178.2 47.376C177.944 47.664 177.816 48.0053 177.816 48.4ZM188.964 56H187.428V48.688H184.916V47.584C185.62 47.5733 186.212 47.392 186.692 47.04C187.172 46.6773 187.47 46.208 187.588 45.632H188.964V56ZM193.498 47.456C192.89 48.096 192.586 49.216 192.586 50.816C192.586 52.416 192.89 53.536 193.498 54.176C193.925 54.624 194.474 54.848 195.146 54.848C195.818 54.848 196.368 54.624 196.794 54.176C197.402 53.536 197.706 52.416 197.706 50.816C197.706 49.216 197.402 48.096 196.794 47.456C196.368 47.008 195.818 46.784 195.146 46.784C194.474 46.784 193.925 47.008 193.498 47.456ZM191.962 54.576C191.344 53.6587 191.034 52.4053 191.034 50.816C191.034 49.2267 191.344 47.9733 191.962 47.056C192.698 45.9467 193.76 45.392 195.146 45.392C196.533 45.392 197.594 45.9467 198.33 47.056C198.949 47.9733 199.258 49.2267 199.258 50.816C199.258 52.4053 198.949 53.6587 198.33 54.576C197.594 55.6853 196.533 56.24 195.146 56.24C193.76 56.24 192.698 55.6853 191.962 54.576ZM203.248 47.456C202.64 48.096 202.336 49.216 202.336 50.816C202.336 52.416 202.64 53.536 203.248 54.176C203.675 54.624 204.224 54.848 204.896 54.848C205.568 54.848 206.118 54.624 206.544 54.176C207.152 53.536 207.456 52.416 207.456 50.816C207.456 49.216 207.152 48.096 206.544 47.456C206.118 47.008 205.568 46.784 204.896 46.784C204.224 46.784 203.675 47.008 203.248 47.456ZM201.712 54.576C201.094 53.6587 200.784 52.4053 200.784 50.816C200.784 49.2267 201.094 47.9733 201.712 47.056C202.448 45.9467 203.51 45.392 204.896 45.392C206.283 45.392 207.344 45.9467 208.08 47.056C208.699 47.9733 209.008 49.2267 209.008 50.816C209.008 52.4053 208.699 53.6587 208.08 54.576C207.344 55.6853 206.283 56.24 204.896 56.24C203.51 56.24 202.448 55.6853 201.712 54.576ZM210.612 55.76C210.399 55.5467 210.292 55.2853 210.292 54.976C210.292 54.6667 210.399 54.4053 210.612 54.192C210.825 53.968 211.087 53.856 211.396 53.856C211.705 53.856 211.967 53.968 212.18 54.192C212.404 54.4053 212.516 54.6667 212.516 54.976C212.516 55.2853 212.404 55.5467 212.18 55.76C211.967 55.9733 211.705 56.08 211.396 56.08C211.087 56.08 210.825 55.9733 210.612 55.76ZM216.592 47.456C215.984 48.096 215.68 49.216 215.68 50.816C215.68 52.416 215.984 53.536 216.592 54.176C217.019 54.624 217.568 54.848 218.24 54.848C218.912 54.848 219.461 54.624 219.888 54.176C220.496 53.536 220.8 52.416 220.8 50.816C220.8 49.216 220.496 48.096 219.888 47.456C219.461 47.008 218.912 46.784 218.24 46.784C217.568 46.784 217.019 47.008 216.592 47.456ZM215.056 54.576C214.437 53.6587 214.128 52.4053 214.128 50.816C214.128 49.2267 214.437 47.9733 215.056 47.056C215.792 45.9467 216.853 45.392 218.24 45.392C219.627 45.392 220.688 45.9467 221.424 47.056C222.043 47.9733 222.352 49.2267 222.352 50.816C222.352 52.4053 222.043 53.6587 221.424 54.576C220.688 55.6853 219.627 56.24 218.24 56.24C216.853 56.24 215.792 55.6853 215.056 54.576ZM226.342 47.456C225.734 48.096 225.43 49.216 225.43 50.816C225.43 52.416 225.734 53.536 226.342 54.176C226.769 54.624 227.318 54.848 227.99 54.848C228.662 54.848 229.211 54.624 229.638 54.176C230.246 53.536 230.55 52.416 230.55 50.816C230.55 49.216 230.246 48.096 229.638 47.456C229.211 47.008 228.662 46.784 227.99 46.784C227.318 46.784 226.769 47.008 226.342 47.456ZM224.806 54.576C224.187 53.6587 223.878 52.4053 223.878 50.816C223.878 49.2267 224.187 47.9733 224.806 47.056C225.542 45.9467 226.603 45.392 227.99 45.392C229.377 45.392 230.438 45.9467 231.174 47.056C231.793 47.9733 232.102 49.2267 232.102 50.816C232.102 52.4053 231.793 53.6587 231.174 54.576C230.438 55.6853 229.377 56.24 227.99 56.24C226.603 56.24 225.542 55.6853 224.806 54.576Z" fill="#0C1142"/>
<rect x="28.5" y="200.5" width="219" height="59" rx="7.5" fill="white" stroke="#E4E4E7"/>
<g clip-path="url(#clip1)">
<path d="M56.0005 218.686L54.6001 222.569C55.8927 226.834 55.8927 233.166 54.6001 237.432L56.0005 241.314C60.6603 239.666 63.9998 235.224 63.9998 230C63.9998 224.776 60.6603 220.334 56.0005 218.686Z" fill="#518D51"/>
<path d="M56.0007 222.569V218.686C54.7492 218.243 53.4033 218 52 218C53.8504 218 51.2847 224.271 56.0007 222.569Z" fill="#E4E4E4"/>
<path d="M51.9999 242C53.4031 242 54.7491 241.757 56.0006 241.314V237.432C51.3319 236.966 51.9999 242 51.9999 242Z" fill="#E4E4E4"/>
<path d="M40 229.999C40 235.241 43.362 239.695 48.0463 241.33V218.67C43.362 220.305 40 224.758 40 229.999Z" fill="#589F58"/>
<path d="M56.0005 222.568V237.431C57.2932 233.165 57.2932 226.834 56.0005 222.568Z" fill="#589F58"/>
<path d="M56.0008 237.432V222.569C55.1838 219.872 53.8505 218 52.0001 218C50.6143 218 49.2846 218.238 48.0464 218.67V241.33C49.2846 241.762 50.6143 242 52.0001 242C53.8505 242 55.1838 240.128 56.0008 237.432Z" fill="#F3F4F5"/>
</g>
<path d="M86.398 235L84.13 230.94H82.646V235H81.26V225.074H84.998C85.9127 225.074 86.6453 225.359 87.196 225.928C87.756 226.488 88.036 227.188 88.036 228.028C88.036 228.747 87.8213 229.363 87.392 229.876C86.9627 230.38 86.3747 230.702 85.628 230.842L87.994 235H86.398ZM82.646 229.708H84.746C85.306 229.708 85.7587 229.559 86.104 229.26C86.4493 228.952 86.622 228.541 86.622 228.028C86.622 227.505 86.4493 227.09 86.104 226.782C85.7587 226.465 85.306 226.306 84.746 226.306H82.646V229.708ZM90.3685 230.94H94.0505C94.0319 230.436 93.8639 230.025 93.5465 229.708C93.2292 229.381 92.7812 229.218 92.2025 229.218C91.6799 229.218 91.2505 229.391 90.9145 229.736C90.5785 230.072 90.3965 230.473 90.3685 230.94ZM94.2465 232.69L95.3805 233.082C95.1845 233.707 94.8205 234.221 94.2885 234.622C93.7565 235.014 93.1125 235.21 92.3565 235.21C91.4139 235.21 90.6112 234.888 89.9485 234.244C89.2952 233.591 88.9685 232.713 88.9685 231.612C88.9685 230.585 89.2859 229.736 89.9205 229.064C90.5552 228.392 91.3112 228.056 92.1885 228.056C93.2059 228.056 93.9992 228.378 94.5685 229.022C95.1379 229.657 95.4225 230.511 95.4225 231.584C95.4225 231.752 95.4132 231.892 95.3945 232.004H90.3265C90.3359 232.601 90.5319 233.091 90.9145 233.474C91.3065 233.857 91.7872 234.048 92.3565 234.048C93.3179 234.048 93.9479 233.595 94.2465 232.69ZM99.9304 229.274C99.3611 229.274 98.8758 229.479 98.4744 229.89C98.0824 230.301 97.8864 230.879 97.8864 231.626C97.8864 232.363 98.0824 232.942 98.4744 233.362C98.8758 233.782 99.3658 233.992 99.9444 233.992C100.504 233.992 100.929 233.852 101.218 233.572C101.517 233.292 101.718 232.97 101.82 232.606L102.982 233.11C102.796 233.67 102.441 234.16 101.918 234.58C101.405 235 100.747 235.21 99.9444 235.21C98.9644 235.21 98.1524 234.869 97.5084 234.188C96.8644 233.507 96.5424 232.653 96.5424 231.626C96.5424 230.581 96.8644 229.727 97.5084 229.064C98.1524 228.392 98.9598 228.056 99.9304 228.056C100.752 228.056 101.414 228.266 101.918 228.686C102.432 229.106 102.768 229.61 102.926 230.198L101.736 230.702C101.634 230.31 101.438 229.974 101.148 229.694C100.859 229.414 100.453 229.274 99.9304 229.274ZM105.312 230.94H108.994C108.975 230.436 108.807 230.025 108.49 229.708C108.173 229.381 107.725 229.218 107.146 229.218C106.623 229.218 106.194 229.391 105.858 229.736C105.522 230.072 105.34 230.473 105.312 230.94ZM109.19 232.69L110.324 233.082C110.128 233.707 109.764 234.221 109.232 234.622C108.7 235.014 108.056 235.21 107.3 235.21C106.357 235.21 105.555 234.888 104.892 234.244C104.239 233.591 103.912 232.713 103.912 231.612C103.912 230.585 104.229 229.736 104.864 229.064C105.499 228.392 106.255 228.056 107.132 228.056C108.149 228.056 108.943 228.378 109.512 229.022C110.081 229.657 110.366 230.511 110.366 231.584C110.366 231.752 110.357 231.892 110.338 232.004H105.27C105.279 232.601 105.475 233.091 105.858 233.474C106.25 233.857 106.731 234.048 107.3 234.048C108.261 234.048 108.891 233.595 109.19 232.69ZM113.348 235H112.046V228.266H113.348V235ZM112.018 226.39C111.84 226.203 111.752 225.979 111.752 225.718C111.752 225.457 111.84 225.233 112.018 225.046C112.204 224.859 112.428 224.766 112.69 224.766C112.951 224.766 113.175 224.859 113.362 225.046C113.548 225.223 113.642 225.447 113.642 225.718C113.642 225.979 113.548 226.203 113.362 226.39C113.175 226.567 112.951 226.656 112.69 226.656C112.428 226.656 112.204 226.567 112.018 226.39ZM121.355 228.266L118.667 235H117.337L114.607 228.266H116.091L118.009 233.46L119.941 228.266H121.355ZM123.263 230.94H126.945C126.926 230.436 126.758 230.025 126.441 229.708C126.124 229.381 125.676 229.218 125.097 229.218C124.574 229.218 124.145 229.391 123.809 229.736C123.473 230.072 123.291 230.473 123.263 230.94ZM127.141 232.69L128.275 233.082C128.079 233.707 127.715 234.221 127.183 234.622C126.651 235.014 126.007 235.21 125.251 235.21C124.308 235.21 123.506 234.888 122.843 234.244C122.19 233.591 121.863 232.713 121.863 231.612C121.863 230.585 122.18 229.736 122.815 229.064C123.45 228.392 124.206 228.056 125.083 228.056C126.1 228.056 126.894 228.378 127.463 229.022C128.032 229.657 128.317 230.511 128.317 231.584C128.317 231.752 128.308 231.892 128.289 232.004H123.221C123.23 232.601 123.426 233.091 123.809 233.474C124.201 233.857 124.682 234.048 125.251 234.048C126.212 234.048 126.842 233.595 127.141 232.69Z" fill="#83859E"/>
<path d="M153.721 236V231.888H152.473V230.864H153.721V229.552H152.473V228.528H153.721V224.576H155.385L156.905 228.528H158.793V224.576H160.057V228.528H161.305V229.552H160.057V230.864H161.305V231.888H160.057V236H158.377L156.857 231.888H154.969V236H153.721ZM154.937 228.528H155.609L154.937 226.544H154.873L154.937 228.528ZM154.969 230.864H156.473L155.993 229.552H154.937L154.969 230.864ZM157.753 230.864H158.825L158.793 229.552H157.273L157.753 230.864ZM158.793 233.744H158.857L158.809 231.888H158.137L158.793 233.744ZM162.029 233.664V231.856L166.477 225.632H168.637V232.208H170.413V233.664H168.637V236H167.117V233.664H162.029ZM167.117 232.208V227.136L163.469 232.208H167.117ZM178.226 225.632V227.136C177.959 227.349 177.698 227.579 177.442 227.824C177.186 228.069 176.845 228.464 176.418 229.008C176.002 229.552 175.634 230.128 175.314 230.736C174.994 231.344 174.69 232.117 174.402 233.056C174.125 233.984 173.938 234.965 173.842 236H172.226C172.29 235.179 172.418 234.384 172.61 233.616C172.802 232.837 173.026 232.16 173.282 231.584C173.538 231.008 173.81 230.469 174.098 229.968C174.397 229.456 174.685 229.029 174.962 228.688C175.25 228.336 175.506 228.037 175.73 227.792C175.965 227.547 176.151 227.365 176.29 227.248L176.498 227.072H170.658V225.632H178.226ZM177.667 234.976C177.667 234.688 177.779 234.437 178.003 234.224C178.227 234.011 178.504 233.904 178.835 233.904C179.198 233.904 179.502 234.037 179.747 234.304C180.003 234.571 180.131 234.944 180.131 235.424C180.131 236.384 179.886 237.125 179.395 237.648C178.904 238.171 178.36 238.469 177.763 238.544V237.712C178.147 237.627 178.462 237.413 178.707 237.072C178.952 236.741 179.08 236.379 179.091 235.984C179.016 236.037 178.899 236.064 178.739 236.064C178.43 236.064 178.174 235.968 177.971 235.776C177.768 235.573 177.667 235.307 177.667 234.976ZM181.81 233.184L183.314 232.736C183.357 233.376 183.591 233.893 184.018 234.288C184.455 234.683 184.999 234.88 185.65 234.88C186.279 234.88 186.807 234.688 187.234 234.304C187.661 233.92 187.874 233.413 187.874 232.784C187.874 232.101 187.661 231.573 187.234 231.2C186.807 230.827 186.274 230.64 185.634 230.64C184.855 230.64 184.226 230.891 183.746 231.392C183.597 231.339 183.351 231.243 183.01 231.104C182.669 230.965 182.402 230.859 182.21 230.784L183.554 225.632H189.026V227.072H184.594L183.826 230.048C184.285 229.536 184.989 229.28 185.938 229.28C186.973 229.28 187.815 229.589 188.466 230.208C189.127 230.827 189.458 231.664 189.458 232.72C189.458 233.723 189.106 234.565 188.402 235.248C187.698 235.92 186.781 236.256 185.65 236.256C184.583 236.256 183.693 235.957 182.978 235.36C182.274 234.763 181.885 234.037 181.81 233.184ZM193.28 227.456C192.672 228.096 192.368 229.216 192.368 230.816C192.368 232.416 192.672 233.536 193.28 234.176C193.706 234.624 194.256 234.848 194.928 234.848C195.6 234.848 196.149 234.624 196.576 234.176C197.184 233.536 197.488 232.416 197.488 230.816C197.488 229.216 197.184 228.096 196.576 227.456C196.149 227.008 195.6 226.784 194.928 226.784C194.256 226.784 193.706 227.008 193.28 227.456ZM191.744 234.576C191.125 233.659 190.816 232.405 190.816 230.816C190.816 229.227 191.125 227.973 191.744 227.056C192.48 225.947 193.541 225.392 194.928 225.392C196.314 225.392 197.376 225.947 198.112 227.056C198.73 227.973 199.04 229.227 199.04 230.816C199.04 232.405 198.73 233.659 198.112 234.576C197.376 235.685 196.314 236.24 194.928 236.24C193.541 236.24 192.48 235.685 191.744 234.576ZM203.03 227.456C202.422 228.096 202.118 229.216 202.118 230.816C202.118 232.416 202.422 233.536 203.03 234.176C203.456 234.624 204.006 234.848 204.678 234.848C205.35 234.848 205.899 234.624 206.326 234.176C206.934 233.536 207.238 232.416 207.238 230.816C207.238 229.216 206.934 228.096 206.326 227.456C205.899 227.008 205.35 226.784 204.678 226.784C204.006 226.784 203.456 227.008 203.03 227.456ZM201.494 234.576C200.875 233.659 200.566 232.405 200.566 230.816C200.566 229.227 200.875 227.973 201.494 227.056C202.23 225.947 203.291 225.392 204.678 225.392C206.064 225.392 207.126 225.947 207.862 227.056C208.48 227.973 208.79 229.227 208.79 230.816C208.79 232.405 208.48 233.659 207.862 234.576C207.126 235.685 206.064 236.24 204.678 236.24C203.291 236.24 202.23 235.685 201.494 234.576ZM210.393 235.76C210.18 235.547 210.073 235.285 210.073 234.976C210.073 234.667 210.18 234.405 210.393 234.192C210.606 233.968 210.868 233.856 211.177 233.856C211.486 233.856 211.748 233.968 211.961 234.192C212.185 234.405 212.297 234.667 212.297 234.976C212.297 235.285 212.185 235.547 211.961 235.76C211.748 235.973 211.486 236.08 211.177 236.08C210.868 236.08 210.606 235.973 210.393 235.76ZM216.373 227.456C215.765 228.096 215.461 229.216 215.461 230.816C215.461 232.416 215.765 233.536 216.373 234.176C216.8 234.624 217.349 234.848 218.021 234.848C218.693 234.848 219.243 234.624 219.669 234.176C220.277 233.536 220.581 232.416 220.581 230.816C220.581 229.216 220.277 228.096 219.669 227.456C219.243 227.008 218.693 226.784 218.021 226.784C217.349 226.784 216.8 227.008 216.373 227.456ZM214.837 234.576C214.219 233.659 213.909 232.405 213.909 230.816C213.909 229.227 214.219 227.973 214.837 227.056C215.573 225.947 216.635 225.392 218.021 225.392C219.408 225.392 220.469 225.947 221.205 227.056C221.824 227.973 222.133 229.227 222.133 230.816C222.133 232.405 221.824 233.659 221.205 234.576C220.469 235.685 219.408 236.24 218.021 236.24C216.635 236.24 215.573 235.685 214.837 234.576ZM226.123 227.456C225.515 228.096 225.211 229.216 225.211 230.816C225.211 232.416 225.515 233.536 226.123 234.176C226.55 234.624 227.099 234.848 227.771 234.848C228.443 234.848 228.993 234.624 229.419 234.176C230.027 233.536 230.331 232.416 230.331 230.816C230.331 229.216 230.027 228.096 229.419 227.456C228.993 227.008 228.443 226.784 227.771 226.784C227.099 226.784 226.55 227.008 226.123 227.456ZM224.587 234.576C223.969 233.659 223.659 232.405 223.659 230.816C223.659 229.227 223.969 227.973 224.587 227.056C225.323 225.947 226.385 225.392 227.771 225.392C229.158 225.392 230.219 225.947 230.955 227.056C231.574 227.973 231.883 229.227 231.883 230.816C231.883 232.405 231.574 233.659 230.955 234.576C230.219 235.685 229.158 236.24 227.771 236.24C226.385 236.24 225.323 235.685 224.587 234.576Z" fill="#0C1142"/>
<circle cx="138" cy="140" r="20" fill="#0C1142" fill-opacity="0.08"/>
<path d="M138.789 141.433C138.683 141.332 138.558 141.253 138.422 141.2C138.152 141.089 137.848 141.089 137.578 141.2C137.441 141.253 137.317 141.332 137.211 141.433L134.433 144.211C134.224 144.42 134.106 144.704 134.106 145C134.106 145.296 134.224 145.58 134.433 145.789C134.642 145.998 134.926 146.116 135.222 146.116C135.518 146.116 135.802 145.998 136.011 145.789L136.889 144.9V150C136.889 150.295 137.006 150.577 137.214 150.786C137.423 150.994 137.705 151.111 138 151.111C138.295 151.111 138.577 150.994 138.786 150.786C138.994 150.577 139.111 150.295 139.111 150V144.9L139.989 145.789C140.092 145.893 140.215 145.976 140.35 146.032C140.486 146.089 140.631 146.118 140.778 146.118C140.924 146.118 141.07 146.089 141.205 146.032C141.34 145.976 141.463 145.893 141.567 145.789C141.671 145.686 141.753 145.563 141.81 145.427C141.866 145.292 141.895 145.147 141.895 145C141.895 144.853 141.866 144.708 141.81 144.573C141.753 144.437 141.671 144.314 141.567 144.211L138.789 141.433ZM137.211 138.567C137.317 138.668 137.441 138.747 137.578 138.8C137.711 138.859 137.854 138.889 138 138.889C138.145 138.889 138.289 138.859 138.422 138.8C138.558 138.747 138.683 138.668 138.789 138.567L141.567 135.789C141.67 135.685 141.752 135.562 141.808 135.427C141.864 135.292 141.893 135.147 141.893 135C141.893 134.854 141.864 134.708 141.808 134.573C141.752 134.438 141.67 134.315 141.567 134.211C141.463 134.108 141.34 134.025 141.205 133.969C141.069 133.913 140.924 133.884 140.778 133.884C140.631 133.884 140.486 133.913 140.351 133.969C140.215 134.025 140.092 134.108 139.989 134.211L139.111 135.1V130C139.111 129.705 138.994 129.423 138.786 129.214C138.577 129.006 138.295 128.889 138 128.889C137.705 128.889 137.423 129.006 137.214 129.214C137.006 129.423 136.889 129.705 136.889 130V135.1L136.011 134.211C135.907 134.108 135.784 134.025 135.649 133.969C135.514 133.913 135.369 133.884 135.222 133.884C134.926 133.884 134.642 134.002 134.433 134.211C134.33 134.315 134.247 134.438 134.191 134.573C134.135 134.708 134.106 134.854 134.106 135C134.106 135.296 134.224 135.58 134.433 135.789L137.211 138.567Z" fill="#0C1142" fill-opacity="0.5"/>
<defs>
<linearGradient id="paint0_linear" x1="138" y1="0" x2="138" y2="280" gradientUnits="userSpaceOnUse">
<stop stop-color="white"/>
<stop offset="1" stop-color="white" stop-opacity="0"/>
</linearGradient>
<clipPath id="clip0">
<rect width="24" height="24" fill="white" transform="translate(40 38)"/>
</clipPath>
<clipPath id="clip1">
<rect width="24" height="24" fill="white" transform="translate(40 218)"/>
</clipPath>
</defs>
</svg>
