<svg width="276" height="280" viewBox="0 0 276 280" fill="none" xmlns="http://www.w3.org/2000/svg">
<rect width="276" height="280" rx="16" fill="white"/>
<rect x="0.5" y="0.5" width="275" height="279" rx="15.5" stroke="#4152FC" stroke-opacity="0.4"/>
<rect x="0.5" y="0.5" width="275" height="279" rx="15.5" stroke="url(#paint0_linear)" stroke-opacity="0.8"/>
<rect x="32.5" y="218.5" width="99" height="31" rx="15.5" fill="white" stroke="#5564F5"/>
<path d="M63.4615 239L61.1935 234.94H59.7095V239H58.3235V229.074H62.0615C62.9761 229.074 63.7088 229.359 64.2595 229.928C64.8195 230.488 65.0995 231.188 65.0995 232.028C65.0995 232.747 64.8848 233.363 64.4555 233.876C64.0261 234.38 63.4381 234.702 62.6915 234.842L65.0575 239H63.4615ZM59.7095 233.708H61.8095C62.3695 233.708 62.8221 233.559 63.1675 233.26C63.5128 232.952 63.6855 232.541 63.6855 232.028C63.6855 231.505 63.5128 231.09 63.1675 230.782C62.8221 230.465 62.3695 230.306 61.8095 230.306H59.7095V233.708ZM67.432 234.94H71.114C71.0953 234.436 70.9273 234.025 70.61 233.708C70.2927 233.381 69.8447 233.218 69.266 233.218C68.7433 233.218 68.314 233.391 67.978 233.736C67.642 234.072 67.46 234.473 67.432 234.94ZM71.31 236.69L72.444 237.082C72.248 237.707 71.884 238.221 71.352 238.622C70.82 239.014 70.176 239.21 69.42 239.21C68.4773 239.21 67.6747 238.888 67.012 238.244C66.3587 237.591 66.032 236.713 66.032 235.612C66.032 234.585 66.3493 233.736 66.984 233.064C67.6187 232.392 68.3747 232.056 69.252 232.056C70.2693 232.056 71.0627 232.378 71.632 233.022C72.2013 233.657 72.486 234.511 72.486 235.584C72.486 235.752 72.4767 235.892 72.458 236.004H67.39C67.3993 236.601 67.5953 237.091 67.978 237.474C68.37 237.857 68.8507 238.048 69.42 238.048C70.3813 238.048 71.0113 237.595 71.31 236.69ZM80.1999 241.66H78.8979V238.048C78.7206 238.393 78.4452 238.669 78.0719 238.874C77.7079 239.079 77.2832 239.182 76.7979 239.182C75.8552 239.182 75.0852 238.841 74.4879 238.16C73.8999 237.469 73.6059 236.62 73.6059 235.612C73.6059 234.623 73.8906 233.792 74.4599 233.12C75.0386 232.439 75.8086 232.098 76.7699 232.098C77.3112 232.098 77.7639 232.215 78.1279 232.448C78.5012 232.681 78.7672 232.966 78.9259 233.302V232.266H80.1999V241.66ZM75.4819 233.918C75.1272 234.347 74.9499 234.912 74.9499 235.612C74.9499 236.312 75.1272 236.891 75.4819 237.348C75.8459 237.796 76.3266 238.02 76.9239 238.02C77.5119 238.02 77.9879 237.796 78.3519 237.348C78.7252 236.891 78.9119 236.312 78.9119 235.612C78.9119 234.912 78.7299 234.347 78.3659 233.918C78.0019 233.479 77.5212 233.26 76.9239 233.26C76.3172 233.26 75.8366 233.479 75.4819 233.918ZM86.7387 238.188C86.5613 238.524 86.2907 238.781 85.9267 238.958C85.5627 239.126 85.1707 239.21 84.7507 239.21C83.9853 239.21 83.374 238.958 82.9167 238.454C82.4593 237.941 82.2307 237.292 82.2307 236.508V232.266H83.5467V236.312C83.5467 236.816 83.668 237.231 83.9107 237.558C84.1627 237.885 84.55 238.048 85.0727 238.048C85.5953 238.048 85.992 237.894 86.2627 237.586C86.5333 237.269 86.6687 236.849 86.6687 236.326V232.266H87.9847V237.754C87.9847 238.193 88.008 238.608 88.0547 239H86.7947C86.7573 238.795 86.7387 238.524 86.7387 238.188ZM91.016 234.94H94.698C94.6793 234.436 94.5113 234.025 94.194 233.708C93.8767 233.381 93.4287 233.218 92.85 233.218C92.3273 233.218 91.898 233.391 91.562 233.736C91.226 234.072 91.044 234.473 91.016 234.94ZM94.894 236.69L96.028 237.082C95.832 237.707 95.468 238.221 94.936 238.622C94.404 239.014 93.76 239.21 93.004 239.21C92.0613 239.21 91.2587 238.888 90.596 238.244C89.9427 237.591 89.616 236.713 89.616 235.612C89.616 234.585 89.9333 233.736 90.568 233.064C91.2027 232.392 91.9587 232.056 92.836 232.056C93.8533 232.056 94.6467 232.378 95.216 233.022C95.7853 233.657 96.07 234.511 96.07 235.584C96.07 235.752 96.0607 235.892 96.042 236.004H90.974C90.9833 236.601 91.1793 237.091 91.562 237.474C91.954 237.857 92.4347 238.048 93.004 238.048C93.9653 238.048 94.5953 237.595 94.894 236.69ZM97.1199 237.25L98.3099 236.83C98.3565 237.194 98.5152 237.497 98.7859 237.74C99.0565 237.973 99.4205 238.09 99.8779 238.09C100.233 238.09 100.513 238.006 100.718 237.838C100.923 237.661 101.026 237.446 101.026 237.194C101.026 236.746 100.737 236.457 100.158 236.326L99.0099 236.074C98.4872 235.962 98.0765 235.738 97.7779 235.402C97.4792 235.066 97.3299 234.66 97.3299 234.184C97.3299 233.605 97.5632 233.106 98.0299 232.686C98.5059 232.266 99.0705 232.056 99.7239 232.056C100.153 232.056 100.536 232.121 100.872 232.252C101.208 232.373 101.469 232.537 101.656 232.742C101.843 232.947 101.983 233.139 102.076 233.316C102.169 233.493 102.239 233.675 102.286 233.862L101.124 234.296C101.105 234.184 101.073 234.077 101.026 233.974C100.979 233.862 100.905 233.741 100.802 233.61C100.709 233.479 100.569 233.377 100.382 233.302C100.195 233.218 99.9759 233.176 99.7239 233.176C99.3972 233.176 99.1265 233.265 98.9119 233.442C98.7065 233.619 98.6039 233.829 98.6039 234.072C98.6039 234.501 98.8605 234.772 99.3739 234.884L100.466 235.122C101.063 235.253 101.521 235.495 101.838 235.85C102.165 236.195 102.328 236.62 102.328 237.124C102.328 237.656 102.109 238.137 101.67 238.566C101.241 238.995 100.639 239.21 99.8639 239.21C99.0332 239.21 98.3845 239.005 97.9179 238.594C97.4512 238.174 97.1852 237.726 97.1199 237.25ZM105.844 230.138V232.266H107.3V233.456H105.844V236.956C105.844 237.273 105.914 237.507 106.054 237.656C106.203 237.805 106.446 237.88 106.782 237.88C106.978 237.88 107.151 237.861 107.3 237.824V238.944C107.076 239.028 106.777 239.07 106.404 239.07C105.825 239.07 105.368 238.902 105.032 238.566C104.696 238.23 104.528 237.759 104.528 237.152V233.456H103.24V232.266H103.604C103.949 232.266 104.206 232.173 104.374 231.986C104.551 231.79 104.64 231.538 104.64 231.23V230.138H105.844Z" fill="#5564F5"/>
<rect x="144.5" y="218.5" width="99" height="31" rx="15.5" fill="#5564F5" stroke="#5564F5"/>
<path d="M185.667 231.328L184.435 231.762C184.37 231.333 184.16 230.945 183.805 230.6C183.45 230.245 182.96 230.068 182.335 230.068C181.784 230.068 181.327 230.227 180.963 230.544C180.599 230.861 180.417 231.253 180.417 231.72C180.417 232.084 180.524 232.392 180.739 232.644C180.963 232.896 181.28 233.069 181.691 233.162L183.175 233.484C183.996 233.661 184.631 233.997 185.079 234.492C185.527 234.977 185.751 235.57 185.751 236.27C185.751 237.073 185.434 237.763 184.799 238.342C184.164 238.921 183.338 239.21 182.321 239.21C181.21 239.21 180.338 238.921 179.703 238.342C179.078 237.754 178.714 237.059 178.611 236.256L179.927 235.836C179.983 236.433 180.216 236.937 180.627 237.348C181.038 237.759 181.598 237.964 182.307 237.964C182.96 237.964 183.464 237.815 183.819 237.516C184.174 237.217 184.351 236.839 184.351 236.382C184.351 236.009 184.225 235.687 183.973 235.416C183.721 235.136 183.352 234.945 182.867 234.842L181.453 234.534C180.716 234.375 180.128 234.063 179.689 233.596C179.25 233.129 179.031 232.537 179.031 231.818C179.031 231.034 179.348 230.348 179.983 229.76C180.627 229.163 181.402 228.864 182.307 228.864C183.324 228.864 184.104 229.111 184.645 229.606C185.186 230.101 185.527 230.675 185.667 231.328ZM188.215 234.94H191.897C191.879 234.436 191.711 234.025 191.393 233.708C191.076 233.381 190.628 233.218 190.049 233.218C189.527 233.218 189.097 233.391 188.761 233.736C188.425 234.072 188.243 234.473 188.215 234.94ZM192.093 236.69L193.227 237.082C193.031 237.707 192.667 238.221 192.135 238.622C191.603 239.014 190.959 239.21 190.203 239.21C189.261 239.21 188.458 238.888 187.795 238.244C187.142 237.591 186.815 236.713 186.815 235.612C186.815 234.585 187.133 233.736 187.767 233.064C188.402 232.392 189.158 232.056 190.035 232.056C191.053 232.056 191.846 232.378 192.415 233.022C192.985 233.657 193.269 234.511 193.269 235.584C193.269 235.752 193.26 235.892 193.241 236.004H188.173C188.183 236.601 188.379 237.091 188.761 237.474C189.153 237.857 189.634 238.048 190.203 238.048C191.165 238.048 191.795 237.595 192.093 236.69ZM196.265 235.108V239H194.949V232.266H196.237V233.232C196.685 232.457 197.376 232.07 198.309 232.07C199.084 232.07 199.676 232.317 200.087 232.812C200.507 233.307 200.717 233.946 200.717 234.73V239H199.401V234.954C199.401 233.825 198.878 233.26 197.833 233.26C197.338 233.26 196.951 233.437 196.671 233.792C196.4 234.137 196.265 234.576 196.265 235.108ZM203.594 235.612C203.594 236.321 203.767 236.9 204.112 237.348C204.467 237.796 204.952 238.02 205.568 238.02C206.156 238.02 206.628 237.791 206.982 237.334C207.337 236.877 207.514 236.293 207.514 235.584C207.514 234.884 207.342 234.319 206.996 233.89C206.651 233.461 206.18 233.246 205.582 233.246C204.985 233.246 204.504 233.465 204.14 233.904C203.776 234.343 203.594 234.912 203.594 235.612ZM207.528 238.09V237.978C207.351 238.323 207.08 238.613 206.716 238.846C206.362 239.07 205.937 239.182 205.442 239.182C204.481 239.182 203.706 238.846 203.118 238.174C202.54 237.493 202.25 236.639 202.25 235.612C202.25 234.632 202.549 233.801 203.146 233.12C203.744 232.429 204.509 232.084 205.442 232.084C205.993 232.084 206.441 232.196 206.786 232.42C207.132 232.635 207.37 232.901 207.5 233.218V228.864H208.802V237.754C208.802 238.211 208.826 238.627 208.872 239H207.598C207.552 238.739 207.528 238.435 207.528 238.09Z" fill="white"/>
<path d="M108.558 126L104.718 120.848L103.102 122.576V126H101.534V114.656H103.102V120.496L108.414 114.656H110.478L105.758 119.712L110.542 126H108.558ZM116.258 125.072C116.056 125.456 115.746 125.749 115.33 125.952C114.914 126.144 114.466 126.24 113.986 126.24C113.112 126.24 112.413 125.952 111.89 125.376C111.368 124.789 111.106 124.048 111.106 123.152V118.304H112.61V122.928C112.61 123.504 112.749 123.979 113.026 124.352C113.314 124.725 113.757 124.912 114.354 124.912C114.952 124.912 115.405 124.736 115.714 124.384C116.024 124.021 116.178 123.541 116.178 122.944V118.304H117.682V124.576C117.682 125.077 117.709 125.552 117.762 126H116.322C116.28 125.765 116.258 125.456 116.258 125.072ZM121.067 122.128C121.067 122.939 121.264 123.6 121.659 124.112C122.064 124.624 122.619 124.88 123.323 124.88C123.995 124.88 124.533 124.619 124.939 124.096C125.344 123.573 125.547 122.907 125.547 122.096C125.547 121.296 125.349 120.651 124.955 120.16C124.56 119.669 124.021 119.424 123.339 119.424C122.656 119.424 122.107 119.675 121.691 120.176C121.275 120.677 121.067 121.328 121.067 122.128ZM125.563 124.96V124.832C125.36 125.227 125.051 125.557 124.635 125.824C124.229 126.08 123.744 126.208 123.179 126.208C122.08 126.208 121.195 125.824 120.523 125.056C119.861 124.277 119.531 123.301 119.531 122.128C119.531 121.008 119.872 120.059 120.555 119.28C121.237 118.491 122.112 118.096 123.179 118.096C123.808 118.096 124.32 118.224 124.715 118.48C125.109 118.725 125.381 119.029 125.531 119.392V114.416H127.019V124.576C127.019 125.099 127.045 125.573 127.099 126H125.643C125.589 125.701 125.563 125.355 125.563 124.96ZM129.097 123.936C129.097 123.275 129.31 122.747 129.737 122.352C130.164 121.947 130.729 121.696 131.433 121.6L133.513 121.296C133.908 121.243 134.105 121.051 134.105 120.72C134.105 120.315 133.966 119.984 133.689 119.728C133.412 119.472 132.996 119.344 132.441 119.344C131.929 119.344 131.524 119.488 131.225 119.776C130.926 120.053 130.75 120.427 130.697 120.896L129.257 120.56C129.332 119.824 129.668 119.227 130.265 118.768C130.862 118.299 131.577 118.064 132.409 118.064C133.497 118.064 134.302 118.331 134.825 118.864C135.348 119.387 135.609 120.059 135.609 120.88V124.736C135.609 125.195 135.641 125.616 135.705 126H134.233C134.18 125.68 134.153 125.333 134.153 124.96C133.94 125.301 133.625 125.6 133.209 125.856C132.804 126.112 132.292 126.24 131.673 126.24C130.916 126.24 130.297 126.016 129.817 125.568C129.337 125.109 129.097 124.565 129.097 123.936ZM131.881 124.976C132.553 124.976 133.092 124.795 133.497 124.432C133.902 124.069 134.105 123.493 134.105 122.704V122.352L131.753 122.704C131.412 122.757 131.14 122.88 130.937 123.072C130.734 123.264 130.633 123.525 130.633 123.856C130.633 124.155 130.745 124.416 130.969 124.64C131.204 124.864 131.508 124.976 131.881 124.976ZM142.112 114.656H145.808C146.864 114.656 147.696 114.939 148.304 115.504C148.923 116.069 149.232 116.811 149.232 117.728C149.232 118.315 149.077 118.821 148.768 119.248C148.459 119.675 148.048 119.984 147.536 120.176C148.165 120.336 148.661 120.672 149.024 121.184C149.397 121.685 149.584 122.261 149.584 122.912C149.584 123.808 149.259 124.549 148.608 125.136C147.957 125.712 147.115 126 146.08 126H142.112V114.656ZM143.68 119.616H145.632C146.251 119.616 146.741 119.451 147.104 119.12C147.467 118.779 147.648 118.341 147.648 117.808C147.648 117.264 147.461 116.832 147.088 116.512C146.715 116.192 146.208 116.032 145.568 116.032H143.68V119.616ZM143.68 124.624H145.856C146.496 124.624 147.008 124.459 147.392 124.128C147.787 123.797 147.984 123.36 147.984 122.816C147.984 122.251 147.808 121.803 147.456 121.472C147.104 121.131 146.592 120.96 145.92 120.96H143.68V124.624ZM150.941 123.936C150.941 123.275 151.154 122.747 151.581 122.352C152.007 121.947 152.573 121.696 153.277 121.6L155.357 121.296C155.751 121.243 155.949 121.051 155.949 120.72C155.949 120.315 155.81 119.984 155.533 119.728C155.255 119.472 154.839 119.344 154.285 119.344C153.773 119.344 153.367 119.488 153.069 119.776C152.77 120.053 152.594 120.427 152.541 120.896L151.101 120.56C151.175 119.824 151.511 119.227 152.109 118.768C152.706 118.299 153.421 118.064 154.253 118.064C155.341 118.064 156.146 118.331 156.669 118.864C157.191 119.387 157.453 120.059 157.453 120.88V124.736C157.453 125.195 157.485 125.616 157.549 126H156.077C156.023 125.68 155.997 125.333 155.997 124.96C155.783 125.301 155.469 125.6 155.053 125.856C154.647 126.112 154.135 126.24 153.517 126.24C152.759 126.24 152.141 126.016 151.661 125.568C151.181 125.109 150.941 124.565 150.941 123.936ZM153.725 124.976C154.397 124.976 154.935 124.795 155.341 124.432C155.746 124.069 155.949 123.493 155.949 122.704V122.352L153.597 122.704C153.255 122.757 152.983 122.88 152.781 123.072C152.578 123.264 152.477 123.525 152.477 123.856C152.477 124.155 152.589 124.416 152.813 124.64C153.047 124.864 153.351 124.976 153.725 124.976ZM161.3 121.552V126H159.796V118.304H161.268V119.408C161.78 118.523 162.569 118.08 163.636 118.08C164.521 118.08 165.198 118.363 165.668 118.928C166.148 119.493 166.388 120.224 166.388 121.12V126H164.884V121.376C164.884 120.085 164.286 119.44 163.092 119.44C162.526 119.44 162.084 119.643 161.764 120.048C161.454 120.443 161.3 120.944 161.3 121.552ZM175.676 118.304L172.396 121.552L175.74 126H173.852L171.34 122.608L170.268 123.68V126H168.78V114.416H170.268V121.712L173.596 118.304H175.676Z" fill="#0C1142"/>
<path d="M98.6312 145.456C98.0232 146.096 97.7192 147.216 97.7192 148.816C97.7192 150.416 98.0232 151.536 98.6312 152.176C99.0579 152.624 99.6072 152.848 100.279 152.848C100.951 152.848 101.501 152.624 101.927 152.176C102.535 151.536 102.839 150.416 102.839 148.816C102.839 147.216 102.535 146.096 101.927 145.456C101.501 145.008 100.951 144.784 100.279 144.784C99.6072 144.784 99.0579 145.008 98.6312 145.456ZM97.0952 152.576C96.4765 151.659 96.1672 150.405 96.1672 148.816C96.1672 147.227 96.4765 145.973 97.0952 145.056C97.8312 143.947 98.8925 143.392 100.279 143.392C101.666 143.392 102.727 143.947 103.463 145.056C104.082 145.973 104.391 147.227 104.391 148.816C104.391 150.405 104.082 151.659 103.463 152.576C102.727 153.685 101.666 154.24 100.279 154.24C98.8925 154.24 97.8312 153.685 97.0952 152.576ZM109.565 154H108.029V146.688H105.517V145.584C106.221 145.573 106.813 145.392 107.293 145.04C107.773 144.677 108.072 144.208 108.189 143.632H109.565V154ZM113.092 147.36L111.524 147.168C111.513 147.072 111.508 146.933 111.508 146.752C111.508 145.824 111.833 145.035 112.484 144.384C113.135 143.723 114.004 143.392 115.092 143.392C116.169 143.392 117.023 143.701 117.652 144.32C118.281 144.928 118.596 145.68 118.596 146.576C118.596 147.888 117.945 148.955 116.644 149.776L114.596 151.088C113.86 151.557 113.439 152.043 113.332 152.544H118.66V154H111.396C111.417 153.125 111.615 152.357 111.988 151.696C112.372 151.035 112.996 150.427 113.86 149.872L115.588 148.752C116.537 148.144 117.012 147.424 117.012 146.592C117.012 146.08 116.841 145.648 116.5 145.296C116.159 144.944 115.679 144.768 115.06 144.768C114.409 144.768 113.913 144.965 113.572 145.36C113.231 145.755 113.06 146.267 113.06 146.896C113.06 146.992 113.071 147.147 113.092 147.36ZM119.63 151.664V149.856L124.078 143.632H126.238V150.208H128.014V151.664H126.238V154H124.718V151.664H119.63ZM124.718 150.208V145.136L121.07 150.208H124.718ZM131.522 145.456C130.914 146.096 130.61 147.216 130.61 148.816C130.61 150.416 130.914 151.536 131.522 152.176C131.948 152.624 132.498 152.848 133.17 152.848C133.842 152.848 134.391 152.624 134.818 152.176C135.426 151.536 135.73 150.416 135.73 148.816C135.73 147.216 135.426 146.096 134.818 145.456C134.391 145.008 133.842 144.784 133.17 144.784C132.498 144.784 131.948 145.008 131.522 145.456ZM129.986 152.576C129.367 151.659 129.058 150.405 129.058 148.816C129.058 147.227 129.367 145.973 129.986 145.056C130.722 143.947 131.783 143.392 133.17 143.392C134.556 143.392 135.618 143.947 136.354 145.056C136.972 145.973 137.282 147.227 137.282 148.816C137.282 150.405 136.972 151.659 136.354 152.576C135.618 153.685 134.556 154.24 133.17 154.24C131.783 154.24 130.722 153.685 129.986 152.576ZM138.998 153.632L139.51 152.336C140.054 152.667 140.683 152.832 141.398 152.832C142.582 152.832 143.467 152.496 144.054 151.824C144.651 151.141 144.966 150.251 144.998 149.152C144.795 149.525 144.459 149.84 143.99 150.096C143.531 150.352 142.971 150.48 142.31 150.48C141.35 150.48 140.513 150.171 139.798 149.552C139.083 148.923 138.726 148.064 138.726 146.976C138.726 145.931 139.099 145.072 139.846 144.4C140.603 143.728 141.505 143.392 142.55 143.392C143.659 143.392 144.609 143.797 145.398 144.608C146.187 145.419 146.582 146.603 146.582 148.16C146.582 150.101 146.145 151.6 145.27 152.656C144.406 153.712 143.115 154.24 141.398 154.24C140.993 154.24 140.555 154.181 140.086 154.064C139.617 153.947 139.254 153.803 138.998 153.632ZM144.79 146.944C144.79 146.304 144.566 145.781 144.118 145.376C143.67 144.971 143.147 144.768 142.55 144.768C141.942 144.768 141.414 144.971 140.966 145.376C140.529 145.771 140.31 146.293 140.31 146.944C140.31 147.616 140.529 148.149 140.966 148.544C141.403 148.939 141.931 149.136 142.55 149.136C143.158 149.136 143.681 148.939 144.118 148.544C144.566 148.139 144.79 147.605 144.79 146.944ZM151.785 148.048C152.339 148.037 152.798 147.877 153.161 147.568C153.523 147.259 153.705 146.853 153.705 146.352C153.705 145.883 153.529 145.488 153.177 145.168C152.825 144.848 152.361 144.688 151.785 144.688C151.209 144.688 150.745 144.848 150.393 145.168C150.041 145.488 149.865 145.883 149.865 146.352C149.865 146.853 150.046 147.259 150.409 147.568C150.771 147.877 151.23 148.037 151.785 148.048ZM150.185 152.384C150.579 152.715 151.113 152.88 151.785 152.88C152.457 152.88 152.985 152.715 153.369 152.384C153.763 152.053 153.961 151.637 153.961 151.136C153.961 150.624 153.763 150.203 153.369 149.872C152.985 149.531 152.457 149.36 151.785 149.36C151.113 149.36 150.579 149.531 150.185 149.872C149.801 150.203 149.609 150.624 149.609 151.136C149.609 151.637 149.801 152.053 150.185 152.384ZM154.537 153.408C153.865 153.963 152.947 154.24 151.785 154.24C150.622 154.24 149.705 153.963 149.033 153.408C148.361 152.843 148.025 152.128 148.025 151.264C148.025 150.656 148.206 150.128 148.569 149.68C148.942 149.221 149.417 148.896 149.993 148.704C149.502 148.523 149.097 148.213 148.777 147.776C148.457 147.328 148.297 146.827 148.297 146.272C148.297 145.429 148.627 144.741 149.289 144.208C149.95 143.664 150.782 143.392 151.785 143.392C152.787 143.392 153.619 143.664 154.281 144.208C154.942 144.741 155.273 145.429 155.273 146.272C155.273 146.816 155.113 147.312 154.793 147.76C154.473 148.208 154.067 148.523 153.577 148.704C154.153 148.885 154.622 149.205 154.985 149.664C155.358 150.123 155.545 150.656 155.545 151.264C155.545 152.128 155.209 152.843 154.537 153.408ZM163.906 143.632V145.136C163.639 145.349 163.378 145.579 163.122 145.824C162.866 146.069 162.524 146.464 162.098 147.008C161.682 147.552 161.314 148.128 160.994 148.736C160.674 149.344 160.37 150.117 160.082 151.056C159.804 151.984 159.618 152.965 159.522 154H157.906C157.97 153.179 158.098 152.384 158.29 151.616C158.482 150.837 158.706 150.16 158.962 149.584C159.218 149.008 159.49 148.469 159.778 147.968C160.076 147.456 160.364 147.029 160.642 146.688C160.93 146.336 161.186 146.037 161.41 145.792C161.644 145.547 161.831 145.365 161.97 145.248L162.178 145.072H156.338V143.632H163.906ZM171.986 143.968L171.506 145.248C170.994 144.949 170.375 144.8 169.65 144.8C168.594 144.8 167.735 145.147 167.074 145.84C166.423 146.533 166.066 147.424 166.002 148.512C166.237 148.128 166.589 147.808 167.058 147.552C167.538 147.296 168.098 147.168 168.738 147.168C169.794 147.168 170.647 147.483 171.298 148.112C171.959 148.741 172.29 149.605 172.29 150.704C172.29 151.781 171.917 152.64 171.17 153.28C170.423 153.92 169.517 154.24 168.45 154.24C167.341 154.24 166.386 153.84 165.586 153.04C164.797 152.229 164.402 151.029 164.402 149.44C164.402 147.563 164.903 146.085 165.906 145.008C166.909 143.931 168.189 143.392 169.746 143.392C170.695 143.392 171.442 143.584 171.986 143.968ZM166.226 150.704C166.226 151.355 166.45 151.883 166.898 152.288C167.346 152.683 167.869 152.88 168.466 152.88C169.095 152.88 169.623 152.683 170.05 152.288C170.487 151.893 170.706 151.365 170.706 150.704C170.706 150.032 170.487 149.499 170.05 149.104C169.623 148.709 169.095 148.512 168.466 148.512C167.837 148.512 167.303 148.709 166.866 149.104C166.439 149.499 166.226 150.032 166.226 150.704ZM173.427 151.184L174.931 150.736C174.974 151.376 175.209 151.893 175.635 152.288C176.073 152.683 176.617 152.88 177.267 152.88C177.897 152.88 178.425 152.688 178.851 152.304C179.278 151.92 179.491 151.413 179.491 150.784C179.491 150.101 179.278 149.573 178.851 149.2C178.425 148.827 177.891 148.64 177.251 148.64C176.473 148.64 175.843 148.891 175.363 149.392C175.214 149.339 174.969 149.243 174.627 149.104C174.286 148.965 174.019 148.859 173.827 148.784L175.171 143.632H180.643V145.072H176.211L175.443 148.048C175.902 147.536 176.606 147.28 177.555 147.28C178.59 147.28 179.433 147.589 180.083 148.208C180.745 148.827 181.075 149.664 181.075 150.72C181.075 151.723 180.723 152.565 180.019 153.248C179.315 153.92 178.398 154.256 177.267 154.256C176.201 154.256 175.31 153.957 174.595 153.36C173.891 152.763 173.502 152.037 173.427 151.184Z" fill="#0C1142"/>
<path d="M71.4997 182.624V181.888L73.0677 181.536V182.608C73.0677 183.333 73.2437 183.877 73.5957 184.24C73.9477 184.603 74.4224 184.784 75.0197 184.784C75.5957 184.784 76.049 184.603 76.3797 184.24C76.7104 183.877 76.8757 183.371 76.8757 182.72V174.656H78.4437V182.608C78.4437 183.632 78.129 184.496 77.4997 185.2C76.881 185.893 76.0597 186.24 75.0357 186.24C73.937 186.24 73.073 185.915 72.4437 185.264C71.8144 184.603 71.4997 183.723 71.4997 182.624ZM82.5124 184.176C82.9818 184.656 83.5524 184.896 84.2244 184.896C84.8964 184.896 85.4618 184.656 85.9204 184.176C86.3898 183.685 86.6244 183.008 86.6244 182.144C86.6244 181.291 86.3898 180.624 85.9204 180.144C85.4618 179.653 84.8964 179.408 84.2244 179.408C83.5524 179.408 82.9818 179.653 82.5124 180.144C82.0538 180.624 81.8244 181.291 81.8244 182.144C81.8244 183.008 82.0538 183.685 82.5124 184.176ZM81.3924 179.232C82.1391 178.453 83.0831 178.064 84.2244 178.064C85.3658 178.064 86.3044 178.453 87.0404 179.232C87.7871 180 88.1604 180.971 88.1604 182.144C88.1604 183.328 87.7924 184.309 87.0564 185.088C86.3204 185.856 85.3764 186.24 84.2244 186.24C83.0724 186.24 82.1284 185.856 81.3924 185.088C80.6564 184.309 80.2884 183.328 80.2884 182.144C80.2884 180.971 80.6564 180 81.3924 179.232ZM91.5887 181.472V186H90.0847V174.416H91.5887V179.2C92.1007 178.453 92.8794 178.08 93.9247 178.08C94.81 178.08 95.4874 178.363 95.9567 178.928C96.4367 179.493 96.6767 180.224 96.6767 181.12V186H95.1727V181.376C95.1727 180.085 94.5754 179.44 93.3807 179.44C92.826 179.44 92.394 179.632 92.0847 180.016C91.7754 180.389 91.61 180.875 91.5887 181.472ZM100.573 181.552V186H99.0691V178.304H100.541V179.408C101.053 178.523 101.842 178.08 102.909 178.08C103.794 178.08 104.472 178.363 104.941 178.928C105.421 179.493 105.661 180.224 105.661 181.12V186H104.157V181.376C104.157 180.085 103.56 179.44 102.365 179.44C101.8 179.44 101.357 179.643 101.037 180.048C100.728 180.443 100.573 180.944 100.573 181.552ZM109.557 181.552V186H108.053V178.304H109.525V179.408C110.037 178.523 110.827 178.08 111.893 178.08C112.779 178.08 113.456 178.363 113.925 178.928C114.405 179.493 114.645 180.224 114.645 181.12V186H113.141V181.376C113.141 180.085 112.544 179.44 111.349 179.44C110.784 179.44 110.341 179.643 110.021 180.048C109.712 180.443 109.557 180.944 109.557 181.552ZM118.958 189.216H117.31L119.23 185.152L115.918 178.304H117.646L120.046 183.616L122.35 178.304H123.966L118.958 189.216ZM137.429 186L136.197 182.832H131.173L129.973 186H128.293L132.805 174.656H134.613L139.125 186H137.429ZM133.669 176.288L131.733 181.376H135.637L133.669 176.288ZM141.979 189.04H140.491V178.304H141.947V179.504C142.171 179.099 142.507 178.768 142.955 178.512C143.403 178.256 143.926 178.128 144.523 178.128C145.632 178.128 146.496 178.507 147.115 179.264C147.744 180.021 148.059 180.981 148.059 182.144C148.059 183.317 147.734 184.288 147.083 185.056C146.443 185.824 145.574 186.208 144.475 186.208C143.91 186.208 143.408 186.091 142.971 185.856C142.534 185.621 142.203 185.323 141.979 184.96V189.04ZM146.523 182.144C146.523 181.365 146.315 180.725 145.899 180.224C145.494 179.712 144.944 179.456 144.251 179.456C143.568 179.456 143.014 179.712 142.587 180.224C142.171 180.725 141.963 181.365 141.963 182.144C141.963 182.944 142.171 183.6 142.587 184.112C143.014 184.613 143.568 184.864 144.251 184.864C144.934 184.864 145.483 184.613 145.899 184.112C146.315 183.6 146.523 182.944 146.523 182.144ZM151.463 189.04H149.975V178.304H151.431V179.504C151.655 179.099 151.991 178.768 152.439 178.512C152.887 178.256 153.41 178.128 154.007 178.128C155.117 178.128 155.981 178.507 156.599 179.264C157.229 180.021 157.543 180.981 157.543 182.144C157.543 183.317 157.218 184.288 156.567 185.056C155.927 185.824 155.058 186.208 153.959 186.208C153.394 186.208 152.893 186.091 152.455 185.856C152.018 185.621 151.687 185.323 151.463 184.96V189.04ZM156.007 182.144C156.007 181.365 155.799 180.725 155.383 180.224C154.978 179.712 154.429 179.456 153.735 179.456C153.053 179.456 152.498 179.712 152.071 180.224C151.655 180.725 151.447 181.365 151.447 182.144C151.447 182.944 151.655 183.6 152.071 184.112C152.498 184.613 153.053 184.864 153.735 184.864C154.418 184.864 154.967 184.613 155.383 184.112C155.799 183.6 156.007 182.944 156.007 182.144ZM160.964 186H159.46V174.416H160.964V186ZM164.498 181.36H168.706C168.685 180.784 168.493 180.315 168.13 179.952C167.768 179.579 167.256 179.392 166.594 179.392C165.997 179.392 165.506 179.589 165.122 179.984C164.738 180.368 164.53 180.827 164.498 181.36ZM168.93 183.36L170.226 183.808C170.002 184.523 169.586 185.109 168.978 185.568C168.37 186.016 167.634 186.24 166.77 186.24C165.693 186.24 164.776 185.872 164.018 185.136C163.272 184.389 162.898 183.387 162.898 182.128C162.898 180.955 163.261 179.984 163.986 179.216C164.712 178.448 165.576 178.064 166.578 178.064C167.741 178.064 168.648 178.432 169.298 179.168C169.949 179.893 170.274 180.869 170.274 182.096C170.274 182.288 170.264 182.448 170.242 182.576H164.45C164.461 183.259 164.685 183.819 165.122 184.256C165.57 184.693 166.12 184.912 166.77 184.912C167.869 184.912 168.589 184.395 168.93 183.36ZM171.474 184L172.834 183.52C172.887 183.936 173.069 184.283 173.378 184.56C173.687 184.827 174.103 184.96 174.626 184.96C175.031 184.96 175.351 184.864 175.586 184.672C175.821 184.469 175.938 184.224 175.938 183.936C175.938 183.424 175.607 183.093 174.946 182.944L173.634 182.656C173.037 182.528 172.567 182.272 172.226 181.888C171.885 181.504 171.714 181.04 171.714 180.496C171.714 179.835 171.981 179.264 172.514 178.784C173.058 178.304 173.703 178.064 174.45 178.064C174.941 178.064 175.378 178.139 175.762 178.288C176.146 178.427 176.445 178.613 176.658 178.848C176.871 179.083 177.031 179.301 177.138 179.504C177.245 179.707 177.325 179.915 177.378 180.128L176.05 180.624C176.029 180.496 175.991 180.373 175.938 180.256C175.885 180.128 175.799 179.989 175.682 179.84C175.575 179.691 175.415 179.573 175.202 179.488C174.989 179.392 174.738 179.344 174.45 179.344C174.077 179.344 173.767 179.445 173.522 179.648C173.287 179.851 173.17 180.091 173.17 180.368C173.17 180.859 173.463 181.168 174.05 181.296L175.298 181.568C175.981 181.717 176.503 181.995 176.866 182.4C177.239 182.795 177.426 183.28 177.426 183.856C177.426 184.464 177.175 185.013 176.674 185.504C176.183 185.995 175.495 186.24 174.61 186.24C173.661 186.24 172.919 186.005 172.386 185.536C171.853 185.056 171.549 184.544 171.474 184ZM180.326 181.36H184.534C184.513 180.784 184.321 180.315 183.958 179.952C183.596 179.579 183.084 179.392 182.422 179.392C181.825 179.392 181.334 179.589 180.95 179.984C180.566 180.368 180.358 180.827 180.326 181.36ZM184.758 183.36L186.054 183.808C185.83 184.523 185.414 185.109 184.806 185.568C184.198 186.016 183.462 186.24 182.598 186.24C181.521 186.24 180.604 185.872 179.846 185.136C179.1 184.389 178.726 183.387 178.726 182.128C178.726 180.955 179.089 179.984 179.814 179.216C180.54 178.448 181.404 178.064 182.406 178.064C183.569 178.064 184.476 178.432 185.126 179.168C185.777 179.893 186.102 180.869 186.102 182.096C186.102 182.288 186.092 182.448 186.07 182.576H180.278C180.289 183.259 180.513 183.819 180.95 184.256C181.398 184.693 181.948 184.912 182.598 184.912C183.697 184.912 184.417 184.395 184.758 183.36ZM188.998 181.36H193.206C193.185 180.784 192.993 180.315 192.63 179.952C192.268 179.579 191.756 179.392 191.094 179.392C190.497 179.392 190.006 179.589 189.622 179.984C189.238 180.368 189.03 180.827 188.998 181.36ZM193.43 183.36L194.726 183.808C194.502 184.523 194.086 185.109 193.478 185.568C192.87 186.016 192.134 186.24 191.27 186.24C190.193 186.24 189.276 185.872 188.518 185.136C187.772 184.389 187.398 183.387 187.398 182.128C187.398 180.955 187.761 179.984 188.486 179.216C189.212 178.448 190.076 178.064 191.078 178.064C192.241 178.064 193.148 178.432 193.798 179.168C194.449 179.893 194.774 180.869 194.774 182.096C194.774 182.288 194.764 182.448 194.742 182.576H188.95C188.961 183.259 189.185 183.819 189.622 184.256C190.07 184.693 190.62 184.912 191.27 184.912C192.369 184.912 193.089 184.395 193.43 183.36ZM197.59 182.128C197.59 182.939 197.787 183.6 198.182 184.112C198.587 184.624 199.142 184.88 199.846 184.88C200.518 184.88 201.057 184.619 201.462 184.096C201.867 183.573 202.07 182.907 202.07 182.096C202.07 181.296 201.873 180.651 201.478 180.16C201.083 179.669 200.545 179.424 199.862 179.424C199.179 179.424 198.63 179.675 198.214 180.176C197.798 180.677 197.59 181.328 197.59 182.128ZM202.086 184.96V184.832C201.883 185.227 201.574 185.557 201.158 185.824C200.753 186.08 200.267 186.208 199.702 186.208C198.603 186.208 197.718 185.824 197.046 185.056C196.385 184.277 196.054 183.301 196.054 182.128C196.054 181.008 196.395 180.059 197.078 179.28C197.761 178.491 198.635 178.096 199.702 178.096C200.331 178.096 200.843 178.224 201.238 178.48C201.633 178.725 201.905 179.029 202.054 179.392V174.416H203.542V184.576C203.542 185.099 203.569 185.573 203.622 186H202.166C202.113 185.701 202.086 185.355 202.086 184.96Z" fill="#80DC91"/>
<circle cx="138" cy="67" r="27" fill="#41276D" fill-opacity="0.16"/>
<path d="M141.817 64.6309V70.0527H140.244V69.2609C140.084 69.536 139.851 69.7617 139.571 69.9135C139.281 70.066 138.958 70.1432 138.63 70.1382C137.953 70.1382 137.447 69.9491 137.112 69.5711C136.777 69.193 136.609 68.6226 136.61 67.86V64.6309H138.223V67.8922C138.223 68.5481 138.504 68.876 139.067 68.876C139.402 68.876 139.673 68.762 139.88 68.5341C140.087 68.3062 140.191 68.0067 140.19 67.6358V64.6309H141.817ZM147.983 62.1581V70.0527H146.389V69.2507C146.224 69.5294 145.983 69.7555 145.695 69.9027C145.381 70.0632 145.032 70.1441 144.679 70.1382C144.238 70.1454 143.806 70.0206 143.437 69.7796C143.065 69.5309 142.771 69.1826 142.587 68.7744C142.384 68.3443 142.282 67.8507 142.282 67.2934C142.282 66.7361 142.384 66.2461 142.587 65.8232C142.77 65.4222 143.063 65.0811 143.432 64.8394C143.804 64.6044 144.238 64.4838 144.678 64.4927C145.023 64.4885 145.365 64.5674 145.673 64.7228C145.96 64.8649 146.201 65.0854 146.368 65.3587V62.1581H147.983ZM146.071 68.4965C146.286 68.2223 146.394 67.8281 146.394 67.3138C146.394 66.8074 146.285 66.4172 146.067 66.143C145.85 65.8689 145.545 65.7316 145.154 65.7313C144.754 65.7313 144.444 65.8667 144.223 66.1376C144.002 66.4086 143.892 66.7935 143.892 67.2923C143.892 67.8055 144.002 68.203 144.223 68.4846C144.444 68.7663 144.754 68.9072 145.154 68.9072C145.55 68.9079 145.856 68.771 146.071 68.4965ZM154.149 64.6309V70.0527H152.555V69.2507C152.39 69.5296 152.148 69.7558 151.86 69.9027C151.545 70.0628 151.197 70.1432 150.844 70.1371C150.404 70.149 149.97 70.0298 149.598 69.7946C149.226 69.5594 148.932 69.2189 148.754 68.8163C148.55 68.3924 148.449 67.9023 148.449 67.3461C148.449 66.7899 148.55 66.2943 148.754 65.8592C148.936 65.449 149.231 65.0989 149.603 64.8491C149.972 64.6091 150.404 64.485 150.844 64.4927C151.198 64.487 151.548 64.5718 151.86 64.7389C152.148 64.892 152.388 65.1213 152.555 65.4017V64.6309H154.149ZM152.234 68.5013C152.449 68.2304 152.557 67.8383 152.557 67.3251C152.557 66.8119 152.449 66.4177 152.234 66.1425C152.019 65.8676 151.713 65.7304 151.315 65.7307C150.916 65.7311 150.606 65.8739 150.384 66.1591C150.163 66.4458 150.053 66.8417 150.052 67.3466C150.052 67.8516 150.161 68.2383 150.379 68.5067C150.596 68.7737 150.908 68.9073 151.315 68.9077C151.713 68.9081 152.02 68.7728 152.234 68.5018V68.5013ZM136.282 70.129H134.278L132.122 67.6708V70.129H130.487V62.1581H132.122V66.9988L134.18 64.6491H136.141L133.812 67.2832L136.282 70.129ZM126.007 70.1317L122.869 66.5193L124.583 70.1317H123.395L121.646 66.4489L122.373 70.1317H121.643L120.916 66.4435V70.1317H120.629V62.1581H120.916V66.136L121.653 62.1581H122.381L121.641 66.1532L123.423 62.1581H124.598L122.823 66.1387L126.046 62.1581H127.888L124.554 66.2763L127.903 70.1317H126.007Z" fill="#41276D"/>
<path d="M155.502 70.0442C155.991 70.0442 156.387 69.6478 156.387 69.1588C156.387 68.6698 155.991 68.2734 155.502 68.2734C155.013 68.2734 154.617 68.6698 154.617 69.1588C154.617 69.6478 155.013 70.0442 155.502 70.0442Z" fill="#41276D"/>
<defs>
<linearGradient id="paint0_linear" x1="138" y1="0" x2="138" y2="280" gradientUnits="userSpaceOnUse">
<stop stop-color="white"/>
<stop offset="1" stop-color="white" stop-opacity="0"/>
</linearGradient>
</defs>
</svg>
