<svg width="56" height="56" viewBox="0 0 56 56" fill="none" xmlns="http://www.w3.org/2000/svg">
<rect width="56" height="56" rx="28" fill="white"/>
<path d="M26.7672 29.776L25.6152 27.832L30.1992 23.608H22.7592V21.448H33.3192V23.56L28.8792 27.664C30.1432 27.664 31.2552 28.08 32.2152 28.912C33.1912 29.744 33.6792 30.904 33.6792 32.392C33.6792 33.768 33.1752 34.944 32.1672 35.92C31.1592 36.896 29.7832 37.384 28.0392 37.384C26.3272 37.384 24.9512 36.912 23.9112 35.968C22.8872 35.008 22.3352 33.848 22.2552 32.488L24.5592 31.96C24.6072 32.968 24.9512 33.784 25.5912 34.408C26.2472 35.016 27.0552 35.32 28.0152 35.32C29.0392 35.32 29.8392 35.048 30.4152 34.504C31.0072 33.944 31.3032 33.256 31.3032 32.44C31.3032 31.496 30.9912 30.776 30.3672 30.28C29.7432 29.784 28.9992 29.536 28.1352 29.536C27.6712 29.536 27.2152 29.616 26.7672 29.776Z" fill="#5564F5"/>
<rect x="0.5" y="0.5" width="55" height="55" rx="27.5" stroke="#5564F5" stroke-opacity="0.4"/>
<rect x="0.5" y="0.5" width="55" height="55" rx="27.5" stroke="url(#paint0_linear)" stroke-opacity="0.88"/>
<defs>
<linearGradient id="paint0_linear" x1="28" y1="0" x2="28" y2="56" gradientUnits="userSpaceOnUse">
<stop stop-color="white"/>
<stop offset="1" stop-color="white" stop-opacity="0"/>
</linearGradient>
</defs>
</svg>
