<svg width="56" height="56" viewBox="0 0 56 56" fill="none" xmlns="http://www.w3.org/2000/svg">
<rect width="56" height="56" rx="28" fill="white"/>
<path d="M25.5324 27.04L23.1804 26.752C23.1644 26.608 23.1564 26.4 23.1564 26.128C23.1564 24.736 23.6444 23.552 24.6204 22.576C25.5964 21.584 26.9004 21.088 28.5324 21.088C30.1484 21.088 31.4284 21.552 32.3724 22.48C33.3164 23.392 33.7884 24.52 33.7884 25.864C33.7884 27.832 32.8124 29.432 30.8604 30.664L27.7884 32.632C26.6844 33.336 26.0524 34.064 25.8924 34.816H33.8844V37H22.9884C23.0204 35.688 23.3164 34.536 23.8764 33.544C24.4524 32.552 25.3884 31.64 26.6844 30.808L29.2764 29.128C30.7004 28.216 31.4124 27.136 31.4124 25.888C31.4124 25.12 31.1564 24.472 30.6444 23.944C30.1324 23.416 29.4124 23.152 28.4844 23.152C27.5084 23.152 26.7644 23.448 26.2524 24.04C25.7404 24.632 25.4844 25.4 25.4844 26.344C25.4844 26.488 25.5004 26.72 25.5324 27.04Z" fill="#5564F5"/>
<rect x="0.5" y="0.5" width="55" height="55" rx="27.5" stroke="#5564F5" stroke-opacity="0.4"/>
<rect x="0.5" y="0.5" width="55" height="55" rx="27.5" stroke="url(#paint0_linear)" stroke-opacity="0.88"/>
<defs>
<linearGradient id="paint0_linear" x1="28" y1="0" x2="28" y2="56" gradientUnits="userSpaceOnUse">
<stop stop-color="white"/>
<stop offset="1" stop-color="white" stop-opacity="0"/>
</linearGradient>
</defs>
</svg>
