<svg width="147" height="160" viewBox="0 0 147 160" fill="none" xmlns="http://www.w3.org/2000/svg">
<mask id="path-1-inside-1" fill="white">
<path d="M124.659 13.6254C111.531 4.79268 96.0791 0.0511691 80.2566 0.000411633C64.4342 -0.0503458 48.9521 4.59193 35.768 13.3402C22.5839 22.0885 12.2901 34.5498 6.18823 49.1484C0.086354 63.747 -1.54951 79.8271 1.48751 95.3554C4.52453 110.884 12.098 125.163 23.2503 136.387C34.4025 147.611 48.6327 155.276 64.1412 158.412C79.6497 161.549 95.74 160.016 110.377 154.008C125.015 148 137.542 137.786 146.375 124.659L80 80L124.659 13.6254Z"/>
</mask>
<path d="M124.659 13.6254C111.531 4.79268 96.0791 0.0511691 80.2566 0.000411633C64.4342 -0.0503458 48.9521 4.59193 35.768 13.3402C22.5839 22.0885 12.2901 34.5498 6.18823 49.1484C0.086354 63.747 -1.54951 79.8271 1.48751 95.3554C4.52453 110.884 12.098 125.163 23.2503 136.387C34.4025 147.611 48.6327 155.276 64.1412 158.412C79.6497 161.549 95.74 160.016 110.377 154.008C125.015 148 137.542 137.786 146.375 124.659L80 80L124.659 13.6254Z" stroke="#FFDB5C" stroke-width="4" mask="url(#path-1-inside-1)"/>
</svg>
