<svg width="103" height="32" viewBox="0 0 103 32" fill="none" xmlns="http://www.w3.org/2000/svg">
<g clip-path="url(#clip0)">
<path d="M8.43333 2.69747C9.12549 1.49859 10.8559 1.49859 11.5481 2.69747L17.0855 12.2885C17.7776 13.4873 16.9124 14.9859 15.5281 14.9859H4.45334C3.069 14.9859 2.20378 13.4873 2.89595 12.2885L8.43333 2.69747Z" fill="#0066FF"/>
<path d="M18.1916 29.3025C17.4995 30.5014 15.7691 30.5014 15.0769 29.3025L9.53951 19.7115C8.84734 18.5126 9.71256 17.014 11.0969 17.014H22.1717C23.556 17.014 24.4212 18.5126 23.729 19.7115L18.1916 29.3025Z" fill="#99C2FF"/>
<path d="M36.0862 14.906H33.6086V19.7015C33.6086 20.1145 33.7018 20.4142 33.8883 20.6007C34.0748 20.7738 34.3479 20.8737 34.7075 20.9004C35.0805 20.9137 35.54 20.9071 36.0862 20.8804V22.8186C34.4345 23.0184 33.2489 22.8786 32.5296 22.399C31.8102 21.9062 31.4506 21.007 31.4506 19.7015V14.906H29.6123V12.828H31.4506V10.67L33.6086 10.0306V12.828H36.0862V14.906ZM43.2986 12.5682C44.4441 12.5682 45.3699 12.9346 46.076 13.6672C46.7819 14.3998 47.135 15.4056 47.135 16.6844V22.8186H44.977V16.9042C44.977 16.1582 44.7772 15.5854 44.3776 15.1858C43.9779 14.7861 43.4318 14.5863 42.7391 14.5863C41.9798 14.5863 41.367 14.8261 40.9008 15.3057C40.4346 15.7719 40.2015 16.4912 40.2015 17.4636V22.8186H38.0435V8.83173H40.2015V14.1068C40.8542 13.081 41.8865 12.5682 43.2986 12.5682ZM51.1569 18.7424C51.3168 19.5017 51.6831 20.0879 52.2559 20.5008C52.8287 20.9004 53.5281 21.1002 54.3539 21.1002C55.4995 21.1002 56.3587 20.6873 56.9315 19.8614L58.7098 20.9004C57.7242 22.3524 56.2655 23.0784 54.3339 23.0784C52.7089 23.0784 51.3967 22.5855 50.3976 21.5998C49.3986 20.6007 48.899 19.3419 48.899 17.8233C48.899 16.3314 49.392 15.0859 50.3776 14.0868C51.3634 13.0744 52.6289 12.5682 54.1741 12.5682C55.6394 12.5682 56.8383 13.081 57.7707 14.1068C58.7165 15.1325 59.1894 16.378 59.1894 17.8433C59.1894 18.0698 59.1628 18.3695 59.1095 18.7424H51.1569ZM51.1369 16.9841H57.0114C56.865 16.1715 56.5253 15.5587 55.9924 15.1458C55.4729 14.7329 54.8601 14.5264 54.1541 14.5264C53.3548 14.5264 52.6889 14.7462 52.156 15.1858C51.6232 15.6254 51.2835 16.2248 51.1369 16.9841ZM66.743 12.5682C68.115 12.5682 69.2872 13.081 70.2597 14.1068C71.2321 15.1191 71.7183 16.358 71.7183 17.8233C71.7183 19.3019 71.2321 20.5474 70.2597 21.5598C69.2872 22.5721 68.115 23.0784 66.743 23.0784C65.2244 23.0784 64.0588 22.5189 63.2463 21.3999V26.8149H61.0883V12.828H63.2463V14.2666C64.0588 13.1344 65.2244 12.5682 66.743 12.5682ZM64.1454 20.1211C64.7449 20.7206 65.4975 21.0203 66.4033 21.0203C67.3091 21.0203 68.0618 20.7206 68.6612 20.1211C69.2606 19.5084 69.5604 18.7424 69.5604 17.8233C69.5604 16.9042 69.2606 16.1449 68.6612 15.5454C68.0618 14.9327 67.3091 14.6263 66.4033 14.6263C65.4975 14.6263 64.7449 14.9327 64.1454 15.5454C63.546 16.1449 63.2463 16.9042 63.2463 17.8233C63.2463 18.7424 63.546 19.5084 64.1454 20.1211ZM75.3725 18.7424C75.5324 19.5017 75.8987 20.0879 76.4715 20.5008C77.0443 20.9004 77.7437 21.1002 78.5695 21.1002C79.7151 21.1002 80.5743 20.6873 81.1471 19.8614L82.9254 20.9004C81.9397 22.3524 80.4811 23.0784 78.5495 23.0784C76.9245 23.0784 75.6123 22.5855 74.6132 21.5998C73.6142 20.6007 73.1146 19.3419 73.1146 17.8233C73.1146 16.3314 73.6076 15.0859 74.5932 14.0868C75.579 13.0744 76.8445 12.5682 78.3897 12.5682C79.855 12.5682 81.0539 13.081 81.9863 14.1068C82.9321 15.1325 83.405 16.378 83.405 17.8433C83.405 18.0698 83.3784 18.3695 83.325 18.7424H75.3725ZM75.3525 16.9841H81.227C81.0806 16.1715 80.7409 15.5587 80.208 15.1458C79.6885 14.7329 79.0757 14.5264 78.3697 14.5264C77.5704 14.5264 76.9045 14.7462 76.3716 15.1858C75.8388 15.6254 75.4991 16.2248 75.3525 16.9841ZM86.9438 18.7424C87.1036 19.5017 87.4699 20.0879 88.0427 20.5008C88.6155 20.9004 89.3148 21.1002 90.1408 21.1002C91.2863 21.1002 92.1455 20.6873 92.7183 19.8614L94.4967 20.9004C93.5109 22.3524 92.0523 23.0784 90.1208 23.0784C88.4956 23.0784 87.1835 22.5855 86.1845 21.5998C85.1854 20.6007 84.6859 19.3419 84.6859 17.8233C84.6859 16.3314 85.1787 15.0859 86.1645 14.0868C87.1502 13.0744 88.4157 12.5682 89.9609 12.5682C91.4262 12.5682 92.625 13.081 93.5576 14.1068C94.5033 15.1325 94.9762 16.378 94.9762 17.8433C94.9762 18.0698 94.9495 18.3695 94.8963 18.7424H86.9438ZM86.9238 16.9841H92.7983C92.6517 16.1715 92.312 15.5587 91.7792 15.1458C91.2597 14.7329 90.6469 14.5264 89.9409 14.5264C89.1417 14.5264 88.4756 14.7462 87.9428 15.1858C87.4099 15.6254 87.0702 16.2248 86.9238 16.9841ZM99.033 14.5064C99.5791 13.2676 100.605 12.6481 102.11 12.6481V14.986C101.284 14.9327 100.565 15.1325 99.9524 15.5854C99.3393 16.025 99.033 16.7576 99.033 17.7833V22.8186H96.8751V12.828H99.033V14.5064Z" fill="#24366B"/>
</g>
<defs>
<clipPath id="clip0">
<rect width="102.454" height="32" fill="white"/>
</clipPath>
</defs>
</svg>
