<svg width="32" height="32" viewBox="0 0 32 32" fill="none" xmlns="http://www.w3.org/2000/svg">
<path d="M31.4482 26.4828H0.551749C0.247062 26.4828 0 26.2357 0 25.931V6.06899C0 5.7643 0.247062 5.51724 0.551749 5.51724H31.4483C31.7529 5.51724 32 5.7643 32 6.06899V25.931C31.9999 26.2358 31.7529 26.4828 31.4482 26.4828Z" fill="#F5F5F5"/>
<path d="M31.9999 7.13005H0V6.06899C0 5.7643 0.247062 5.51724 0.551749 5.51724H31.4483C31.7529 5.51724 32 5.7643 32 6.06899L31.9999 7.13005Z" fill="#FF4B55"/>
<path d="M31.9999 11.9682H0V13.5809H31.9999V11.9682Z" fill="#FF4B55"/>
<path d="M31.9999 8.74257H0V10.3553H31.9999V8.74257Z" fill="#FF4B55"/>
<path d="M31.9999 16.8064H0.551749C0.247062 16.8064 0 16.5593 0 16.2546V15.1936H31.9999V16.8064Z" fill="#FF4B55"/>
<path d="M31.9999 21.645H0V23.2577H31.9999V21.645Z" fill="#FF4B55"/>
<path d="M31.4482 26.4827H0.551749C0.247062 26.4827 0 26.2357 0 25.931V24.87H31.9999V25.931C31.9999 26.2357 31.7529 26.4827 31.4482 26.4827Z" fill="#FF4B55"/>
<path d="M31.9999 18.4195H0V20.0322H31.9999V18.4195Z" fill="#FF4B55"/>
<path d="M14.3448 5.51733H0.551749C0.247062 5.51733 0 5.76433 0 6.06902V16.2546C0 16.5593 0.247062 16.8064 0.551749 16.8064H14.3448C14.6495 16.8064 14.8966 16.5593 14.8966 16.2546V6.06902C14.8965 5.76433 14.6495 5.51733 14.3448 5.51733Z" fill="#41479B"/>
<path d="M1.54914 6.78373L1.67127 7.14998L2.05733 7.15292C2.10733 7.15335 2.12802 7.2171 2.08783 7.24679L1.77727 7.47617L1.89377 7.84423C1.90889 7.89185 1.85458 7.93135 1.81389 7.90223L1.49983 7.67779L1.18577 7.90229C1.14508 7.93135 1.0909 7.89191 1.1059 7.84429L1.2224 7.47623L0.911835 7.24685C0.871647 7.2171 0.892335 7.15342 0.942335 7.15298L1.3284 7.15004L1.45052 6.78379C1.46627 6.73629 1.53327 6.73629 1.54914 6.78373Z" fill="#F5F5F5"/>
<path d="M1.54914 8.69944L1.67127 9.06569L2.05733 9.06863C2.10733 9.06906 2.12802 9.13281 2.08783 9.1625L1.77727 9.39188L1.89377 9.75994C1.90889 9.80756 1.85458 9.84706 1.81389 9.81794L1.49983 9.5935L1.18577 9.818C1.14508 9.84706 1.0909 9.80762 1.1059 9.76L1.2224 9.39194L0.911835 9.16256C0.871647 9.13281 0.892335 9.06913 0.942335 9.06869L1.3284 9.06575L1.45052 8.6995C1.46627 8.65207 1.53327 8.65207 1.54914 8.69944Z" fill="#F5F5F5"/>
<path d="M1.54914 10.6154L1.67127 10.9816L2.05733 10.9846C2.10733 10.985 2.12802 11.0488 2.08783 11.0785L1.77727 11.3078L1.89377 11.6759C1.90889 11.7235 1.85458 11.763 1.81389 11.7339L1.49983 11.5095L1.18577 11.734C1.14508 11.763 1.0909 11.7236 1.1059 11.676L1.2224 11.3079L0.911835 11.0785C0.871647 11.0488 0.892335 10.9851 0.942335 10.9846L1.3284 10.9817L1.45052 10.6155C1.46627 10.568 1.53327 10.568 1.54914 10.6154Z" fill="#F5F5F5"/>
<path d="M1.54914 12.5313L1.67127 12.8975L2.05733 12.9005C2.10733 12.9009 2.12802 12.9647 2.08783 12.9943L1.77727 13.2237L1.89377 13.5918C1.90889 13.6394 1.85458 13.6789 1.81389 13.6498L1.49983 13.4253L1.18577 13.6498C1.14508 13.6789 1.0909 13.6395 1.1059 13.5918L1.2224 13.2238L0.911835 12.9944C0.871647 12.9647 0.892335 12.901 0.942335 12.9005L1.3284 12.8976L1.45052 12.5313C1.46627 12.4838 1.53327 12.4838 1.54914 12.5313Z" fill="#F5F5F5"/>
<path d="M1.54914 14.4472L1.67127 14.8135L2.05733 14.8164C2.10733 14.8168 2.12802 14.8806 2.08783 14.9103L1.77727 15.1397L1.89377 15.5077C1.90889 15.5554 1.85458 15.5948 1.81389 15.5657L1.49983 15.3413L1.18577 15.5658C1.14508 15.5949 1.0909 15.5554 1.1059 15.5078L1.2224 15.1397L0.911835 14.9103C0.871647 14.8806 0.892335 14.8169 0.942335 14.8165L1.3284 14.8135L1.45052 14.4473C1.46627 14.3997 1.53327 14.3997 1.54914 14.4472Z" fill="#F5F5F5"/>
<path d="M3.03645 7.72288L3.15857 8.08913L3.54463 8.09207C3.59463 8.0925 3.61532 8.15625 3.57513 8.18594L3.26457 8.41531L3.38107 8.78338C3.3962 8.831 3.34189 8.8705 3.3012 8.84138L2.98714 8.61688L2.67308 8.84138C2.63239 8.87044 2.5782 8.831 2.5932 8.78338L2.7097 8.41531L2.39914 8.18594C2.35895 8.15619 2.37964 8.0925 2.42964 8.09207L2.8157 8.08913L2.93782 7.72288C2.95351 7.6755 3.02064 7.6755 3.03645 7.72288Z" fill="#F5F5F5"/>
<path d="M3.03645 9.63891L3.15857 10.0052L3.54463 10.0081C3.59463 10.0085 3.61532 10.0723 3.57513 10.102L3.26457 10.3313L3.38107 10.6994C3.3962 10.747 3.34189 10.7865 3.3012 10.7574L2.98714 10.5329L2.67308 10.7574C2.63239 10.7865 2.5782 10.7471 2.5932 10.6994L2.7097 10.3313L2.39914 10.102C2.35895 10.0722 2.37964 10.0085 2.42964 10.0081L2.8157 10.0052L2.93782 9.63891C2.95351 9.59147 3.02064 9.59147 3.03645 9.63891Z" fill="#F5F5F5"/>
<path d="M3.03645 11.5547L3.15857 11.921L3.54463 11.9239C3.59463 11.9244 3.61532 11.9881 3.57513 12.0178L3.26457 12.2472L3.38107 12.6152C3.3962 12.6629 3.34189 12.7024 3.3012 12.6732L2.98714 12.4487L2.67308 12.6732C2.63239 12.7023 2.5782 12.6629 2.5932 12.6152L2.7097 12.2472L2.39914 12.0178C2.35895 11.988 2.37964 11.9244 2.42964 11.9239L2.8157 11.921L2.93782 11.5547C2.95351 11.5073 3.02064 11.5073 3.03645 11.5547Z" fill="#F5F5F5"/>
<path d="M3.03645 13.4705L3.15857 13.8368L3.54463 13.8397C3.59463 13.8402 3.61532 13.9039 3.57513 13.9336L3.26457 14.163L3.38107 14.531C3.3962 14.5787 3.34189 14.6182 3.3012 14.589L2.98714 14.3645L2.67308 14.589C2.63239 14.6181 2.5782 14.5787 2.5932 14.531L2.7097 14.163L2.39914 13.9336C2.35895 13.9038 2.37964 13.8402 2.42964 13.8397L2.8157 13.8368L2.93782 13.4705C2.95351 13.4232 3.02064 13.4232 3.03645 13.4705Z" fill="#F5F5F5"/>
<path d="M4.52376 6.78361L4.64589 7.14986L5.03195 7.15279C5.08195 7.15323 5.10264 7.21698 5.06245 7.24667L4.75189 7.47604L4.86839 7.8441C4.88351 7.89172 4.8292 7.93122 4.78851 7.9021L4.47445 7.6776L4.16038 7.9021C4.1197 7.93116 4.06551 7.89172 4.08051 7.8441L4.19701 7.47604L3.88644 7.24667C3.84626 7.21692 3.86694 7.15323 3.91694 7.15279L4.30301 7.14986L4.42513 6.78361C4.44088 6.73617 4.50795 6.73617 4.52376 6.78361Z" fill="#F5F5F5"/>
<path d="M4.52376 8.69944L4.64589 9.06569L5.03195 9.06863C5.08195 9.06907 5.10264 9.13281 5.06245 9.1625L4.75189 9.39188L4.86839 9.75994C4.88351 9.80756 4.8292 9.84706 4.78851 9.81794L4.47445 9.59344L4.16038 9.81794C4.1197 9.847 4.06551 9.80756 4.08051 9.75994L4.19701 9.39188L3.88644 9.1625C3.84626 9.13275 3.86694 9.06907 3.91694 9.06863L4.30301 9.06569L4.42513 8.69944C4.44088 8.65207 4.50795 8.65207 4.52376 8.69944Z" fill="#F5F5F5"/>
<path d="M4.52376 10.6154L4.64589 10.9816L5.03195 10.9846C5.08195 10.985 5.10264 11.0488 5.06245 11.0785L4.75189 11.3078L4.86839 11.6759C4.88351 11.7235 4.8292 11.763 4.78851 11.7339L4.47445 11.5094L4.16038 11.7339C4.1197 11.763 4.06551 11.7235 4.08051 11.6759L4.19701 11.3078L3.88644 11.0785C3.84626 11.0487 3.86694 10.985 3.91694 10.9846L4.30301 10.9816L4.42513 10.6154C4.44088 10.568 4.50795 10.568 4.52376 10.6154Z" fill="#F5F5F5"/>
<path d="M4.52376 12.5313L4.64589 12.8975L5.03195 12.9005C5.08195 12.9009 5.10264 12.9647 5.06245 12.9944L4.75189 13.2237L4.86839 13.5918C4.88351 13.6394 4.8292 13.6789 4.78851 13.6498L4.47445 13.4253L4.16038 13.6498C4.1197 13.6789 4.06551 13.6394 4.08051 13.5918L4.19701 13.2237L3.88644 12.9944C3.84626 12.9646 3.86694 12.9009 3.91694 12.9005L4.30301 12.8975L4.42513 12.5313C4.44088 12.4839 4.50795 12.4839 4.52376 12.5313Z" fill="#F5F5F5"/>
<path d="M4.52376 14.4472L4.64589 14.8134L5.03195 14.8164C5.08195 14.8168 5.10264 14.8806 5.06245 14.9103L4.75189 15.1396L4.86839 15.5077C4.88351 15.5553 4.8292 15.5948 4.78851 15.5657L4.47445 15.3412L4.16038 15.5657C4.1197 15.5948 4.06551 15.5553 4.08051 15.5077L4.19701 15.1396L3.88644 14.9103C3.84626 14.8805 3.86694 14.8168 3.91694 14.8164L4.30301 14.8134L4.42513 14.4472C4.44088 14.3997 4.50795 14.3997 4.52376 14.4472Z" fill="#F5F5F5"/>
<path d="M6.01008 7.72288L6.13221 8.08913L6.51827 8.09207C6.56827 8.0925 6.58896 8.15625 6.54877 8.18594L6.23821 8.41531L6.35471 8.78338C6.36983 8.831 6.31552 8.8705 6.27483 8.84138L5.96077 8.61688L5.64671 8.84138C5.60602 8.87044 5.55183 8.831 5.56683 8.78338L5.68333 8.41531L5.37277 8.18594C5.33258 8.15619 5.35327 8.0925 5.40327 8.09207L5.78933 8.08913L5.91146 7.72288C5.92715 7.6755 5.99427 7.6755 6.01008 7.72288Z" fill="#F5F5F5"/>
<path d="M6.01008 9.63891L6.13221 10.0052L6.51827 10.0081C6.56827 10.0085 6.58896 10.0723 6.54877 10.102L6.23821 10.3313L6.35471 10.6994C6.36983 10.747 6.31552 10.7865 6.27483 10.7574L5.96077 10.5329L5.64671 10.7574C5.60602 10.7865 5.55183 10.7471 5.56683 10.6994L5.68333 10.3313L5.37277 10.102C5.33258 10.0722 5.35327 10.0085 5.40327 10.0081L5.78933 10.0052L5.91146 9.63891C5.92715 9.59147 5.99427 9.59147 6.01008 9.63891Z" fill="#F5F5F5"/>
<path d="M6.01008 11.5547L6.13221 11.921L6.51827 11.9239C6.56827 11.9244 6.58896 11.9881 6.54877 12.0178L6.23821 12.2472L6.35471 12.6152C6.36983 12.6629 6.31552 12.7024 6.27483 12.6732L5.96077 12.4487L5.64671 12.6732C5.60602 12.7023 5.55183 12.6629 5.56683 12.6152L5.68333 12.2472L5.37277 12.0178C5.33258 11.988 5.35327 11.9244 5.40327 11.9239L5.78933 11.921L5.91146 11.5547C5.92715 11.5073 5.99427 11.5073 6.01008 11.5547Z" fill="#F5F5F5"/>
<path d="M6.01008 13.4705L6.13221 13.8368L6.51827 13.8397C6.56827 13.8402 6.58896 13.9039 6.54877 13.9336L6.23821 14.163L6.35471 14.531C6.36983 14.5787 6.31552 14.6182 6.27483 14.589L5.96077 14.3645L5.64671 14.589C5.60602 14.6181 5.55183 14.5787 5.56683 14.531L5.68333 14.163L5.37277 13.9336C5.33258 13.9038 5.35327 13.8402 5.40327 13.8397L5.78933 13.8368L5.91146 13.4705C5.92715 13.4232 5.99427 13.4232 6.01008 13.4705Z" fill="#F5F5F5"/>
<path d="M7.49745 6.78361L7.61958 7.14986L8.00564 7.15279C8.05564 7.15323 8.07633 7.21698 8.03614 7.24667L7.72558 7.47604L7.84208 7.8441C7.8572 7.89172 7.80289 7.93122 7.7622 7.9021L7.44808 7.6776L7.13401 7.9021C7.09333 7.93116 7.03914 7.89172 7.05414 7.8441L7.17064 7.47604L6.86008 7.24667C6.81989 7.21692 6.84058 7.15323 6.89058 7.15279L7.27664 7.14986L7.39876 6.78361C7.41458 6.73617 7.48164 6.73617 7.49745 6.78361Z" fill="#F5F5F5"/>
<path d="M7.49745 8.69944L7.61958 9.06569L8.00564 9.06863C8.05564 9.06907 8.07633 9.13281 8.03614 9.1625L7.72558 9.39188L7.84208 9.75994C7.8572 9.80756 7.80289 9.84706 7.7622 9.81794L7.44808 9.59344L7.13401 9.81794C7.09333 9.847 7.03914 9.80756 7.05414 9.75994L7.17064 9.39188L6.86008 9.1625C6.81989 9.13275 6.84058 9.06907 6.89058 9.06863L7.27664 9.06569L7.39876 8.69944C7.41458 8.65207 7.48164 8.65207 7.49745 8.69944Z" fill="#F5F5F5"/>
<path d="M7.49745 10.6154L7.61958 10.9816L8.00564 10.9846C8.05564 10.985 8.07633 11.0488 8.03614 11.0785L7.72558 11.3078L7.84208 11.6759C7.8572 11.7235 7.80289 11.763 7.7622 11.7339L7.44808 11.5094L7.13401 11.7339C7.09333 11.763 7.03914 11.7235 7.05414 11.6759L7.17064 11.3078L6.86008 11.0785C6.81989 11.0487 6.84058 10.985 6.89058 10.9846L7.27664 10.9816L7.39876 10.6154C7.41458 10.568 7.48164 10.568 7.49745 10.6154Z" fill="#F5F5F5"/>
<path d="M7.49745 12.5313L7.61958 12.8975L8.00564 12.9005C8.05564 12.9009 8.07633 12.9647 8.03614 12.9944L7.72558 13.2237L7.84208 13.5918C7.8572 13.6394 7.80289 13.6789 7.7622 13.6498L7.44808 13.4253L7.13401 13.6498C7.09333 13.6789 7.03914 13.6394 7.05414 13.5918L7.17064 13.2237L6.86008 12.9944C6.81989 12.9646 6.84058 12.9009 6.89058 12.9005L7.27664 12.8975L7.39876 12.5313C7.41458 12.4839 7.48164 12.4839 7.49745 12.5313Z" fill="#F5F5F5"/>
<path d="M7.49745 14.4472L7.61958 14.8134L8.00564 14.8164C8.05564 14.8168 8.07633 14.8806 8.03614 14.9103L7.72558 15.1396L7.84208 15.5077C7.8572 15.5553 7.80289 15.5948 7.7622 15.5657L7.44808 15.3412L7.13401 15.5657C7.09333 15.5948 7.03914 15.5553 7.05414 15.5077L7.17064 15.1396L6.86008 14.9103C6.81989 14.8805 6.84058 14.8168 6.89058 14.8164L7.27664 14.8134L7.39876 14.4472C7.41458 14.3997 7.48164 14.3997 7.49745 14.4472Z" fill="#F5F5F5"/>
<path d="M8.9847 7.72288L9.10682 8.08913L9.49289 8.09207C9.54289 8.0925 9.56358 8.15625 9.52339 8.18594L9.21283 8.41531L9.32933 8.78338C9.34445 8.831 9.29014 8.8705 9.24945 8.84138L8.93539 8.61688L8.62132 8.84138C8.58063 8.87044 8.52645 8.831 8.54145 8.78338L8.65795 8.41531L8.34738 8.18594C8.30719 8.15619 8.32788 8.0925 8.37788 8.09207L8.76395 8.08913L8.88607 7.72288C8.90189 7.6755 8.96889 7.6755 8.9847 7.72288Z" fill="#F5F5F5"/>
<path d="M8.9847 9.63891L9.10682 10.0052L9.49289 10.0081C9.54289 10.0085 9.56358 10.0723 9.52339 10.102L9.21283 10.3313L9.32933 10.6994C9.34445 10.747 9.29014 10.7865 9.24945 10.7574L8.93539 10.5329L8.62132 10.7574C8.58063 10.7865 8.52645 10.7471 8.54145 10.6994L8.65795 10.3313L8.34738 10.102C8.30719 10.0722 8.32788 10.0085 8.37788 10.0081L8.76395 10.0052L8.88607 9.63891C8.90189 9.59147 8.96889 9.59147 8.9847 9.63891Z" fill="#F5F5F5"/>
<path d="M8.9847 11.5547L9.10682 11.921L9.49289 11.9239C9.54289 11.9244 9.56358 11.9881 9.52339 12.0178L9.21283 12.2472L9.32933 12.6152C9.34445 12.6629 9.29014 12.7024 9.24945 12.6732L8.93539 12.4487L8.62132 12.6732C8.58063 12.7023 8.52645 12.6629 8.54145 12.6152L8.65795 12.2472L8.34738 12.0178C8.30719 11.988 8.32788 11.9244 8.37788 11.9239L8.76395 11.921L8.88607 11.5547C8.90189 11.5073 8.96889 11.5073 8.9847 11.5547Z" fill="#F5F5F5"/>
<path d="M8.9847 13.4705L9.10682 13.8368L9.49289 13.8397C9.54289 13.8402 9.56358 13.9039 9.52339 13.9336L9.21283 14.163L9.32933 14.531C9.34445 14.5787 9.29014 14.6182 9.24945 14.589L8.93539 14.3645L8.62132 14.589C8.58063 14.6181 8.52645 14.5787 8.54145 14.531L8.65795 14.163L8.34738 13.9336C8.30719 13.9038 8.32788 13.8402 8.37788 13.8397L8.76395 13.8368L8.88607 13.4705C8.90189 13.4232 8.96889 13.4232 8.9847 13.4705Z" fill="#F5F5F5"/>
<path d="M10.472 6.78361L10.5941 7.14986L10.9802 7.15279C11.0302 7.15323 11.0509 7.21698 11.0107 7.24667L10.7001 7.47604L10.8166 7.8441C10.8318 7.89172 10.7774 7.93122 10.7368 7.9021L10.4227 7.6776L10.1086 7.9021C10.0679 7.93116 10.0138 7.89172 10.0288 7.8441L10.1453 7.47604L9.83469 7.24667C9.7945 7.21692 9.81519 7.15323 9.86519 7.15279L10.2513 7.14986L10.3734 6.78361C10.3891 6.73617 10.4562 6.73617 10.472 6.78361Z" fill="#F5F5F5"/>
<path d="M10.472 8.69944L10.5941 9.06569L10.9802 9.06863C11.0302 9.06907 11.0509 9.13281 11.0107 9.1625L10.7001 9.39188L10.8166 9.75994C10.8318 9.80756 10.7774 9.84706 10.7368 9.81794L10.4227 9.59344L10.1086 9.81794C10.0679 9.847 10.0138 9.80756 10.0288 9.75994L10.1453 9.39188L9.83469 9.1625C9.7945 9.13275 9.81519 9.06907 9.86519 9.06863L10.2513 9.06569L10.3734 8.69944C10.3891 8.65207 10.4562 8.65207 10.472 8.69944Z" fill="#F5F5F5"/>
<path d="M10.472 10.6154L10.5941 10.9816L10.9802 10.9846C11.0302 10.985 11.0509 11.0488 11.0107 11.0785L10.7001 11.3078L10.8166 11.6759C10.8318 11.7235 10.7774 11.763 10.7368 11.7339L10.4227 11.5094L10.1086 11.7339C10.0679 11.763 10.0138 11.7235 10.0288 11.6759L10.1453 11.3078L9.83469 11.0785C9.7945 11.0487 9.81519 10.985 9.86519 10.9846L10.2513 10.9816L10.3734 10.6154C10.3891 10.568 10.4562 10.568 10.472 10.6154Z" fill="#F5F5F5"/>
<path d="M10.472 12.5313L10.5941 12.8975L10.9802 12.9005C11.0302 12.9009 11.0509 12.9647 11.0107 12.9944L10.7001 13.2237L10.8166 13.5918C10.8318 13.6394 10.7774 13.6789 10.7368 13.6498L10.4227 13.4253L10.1086 13.6498C10.0679 13.6789 10.0138 13.6394 10.0288 13.5918L10.1453 13.2237L9.83469 12.9944C9.7945 12.9646 9.81519 12.9009 9.86519 12.9005L10.2513 12.8975L10.3734 12.5313C10.3891 12.4839 10.4562 12.4839 10.472 12.5313Z" fill="#F5F5F5"/>
<path d="M10.472 14.4472L10.5941 14.8134L10.9802 14.8164C11.0302 14.8168 11.0509 14.8806 11.0107 14.9103L10.7001 15.1396L10.8166 15.5077C10.8318 15.5553 10.7774 15.5948 10.7368 15.5657L10.4227 15.3412L10.1086 15.5657C10.0679 15.5948 10.0138 15.5553 10.0288 15.5077L10.1453 15.1396L9.83469 14.9103C9.7945 14.8805 9.81519 14.8168 9.86519 14.8164L10.2513 14.8134L10.3734 14.4472C10.3891 14.3997 10.4562 14.3997 10.472 14.4472Z" fill="#F5F5F5"/>
<path d="M11.9583 7.72288L12.0804 8.08913L12.4665 8.09207C12.5165 8.0925 12.5372 8.15625 12.497 8.18594L12.1864 8.41531L12.3029 8.78338C12.3181 8.831 12.2638 8.8705 12.2231 8.84138L11.909 8.61688L11.595 8.84138C11.5543 8.87044 11.5001 8.831 11.5151 8.78338L11.6316 8.41531L11.321 8.18594C11.2808 8.15619 11.3015 8.0925 11.3515 8.09207L11.7376 8.08913L11.8597 7.72288C11.8754 7.6755 11.9426 7.6755 11.9583 7.72288Z" fill="#F5F5F5"/>
<path d="M11.9583 9.63891L12.0804 10.0052L12.4665 10.0081C12.5165 10.0085 12.5372 10.0723 12.497 10.102L12.1864 10.3313L12.3029 10.6994C12.3181 10.747 12.2638 10.7865 12.2231 10.7574L11.909 10.5329L11.595 10.7574C11.5543 10.7865 11.5001 10.7471 11.5151 10.6994L11.6316 10.3313L11.321 10.102C11.2808 10.0722 11.3015 10.0085 11.3515 10.0081L11.7376 10.0052L11.8597 9.63891C11.8754 9.59147 11.9426 9.59147 11.9583 9.63891Z" fill="#F5F5F5"/>
<path d="M11.9583 11.5547L12.0804 11.921L12.4665 11.9239C12.5165 11.9244 12.5372 11.9881 12.497 12.0178L12.1864 12.2472L12.3029 12.6152C12.3181 12.6629 12.2638 12.7024 12.2231 12.6732L11.909 12.4487L11.595 12.6732C11.5543 12.7023 11.5001 12.6629 11.5151 12.6152L11.6316 12.2472L11.321 12.0178C11.2808 11.988 11.3015 11.9244 11.3515 11.9239L11.7376 11.921L11.8597 11.5547C11.8754 11.5073 11.9426 11.5073 11.9583 11.5547Z" fill="#F5F5F5"/>
<path d="M11.9583 13.4705L12.0804 13.8368L12.4665 13.8397C12.5165 13.8402 12.5372 13.9039 12.497 13.9336L12.1864 14.163L12.3029 14.531C12.3181 14.5787 12.2638 14.6182 12.2231 14.589L11.909 14.3645L11.595 14.589C11.5543 14.6181 11.5001 14.5787 11.5151 14.531L11.6316 14.163L11.321 13.9336C11.2808 13.9038 11.3015 13.8402 11.3515 13.8397L11.7376 13.8368L11.8597 13.4705C11.8754 13.4232 11.9426 13.4232 11.9583 13.4705Z" fill="#F5F5F5"/>
<path d="M13.4456 6.78361L13.5678 7.14986L13.9538 7.15279C14.0038 7.15323 14.0245 7.21698 13.9843 7.24667L13.6738 7.47604L13.7903 7.8441C13.8054 7.89172 13.7511 7.93122 13.7104 7.9021L13.3963 7.6776L13.0823 7.9021C13.0416 7.93116 12.9874 7.89172 13.0024 7.8441L13.1189 7.47604L12.8083 7.24667C12.7681 7.21692 12.7888 7.15323 12.8388 7.15279L13.2249 7.14986L13.347 6.78361C13.3628 6.73617 13.4298 6.73617 13.4456 6.78361Z" fill="#F5F5F5"/>
<path d="M13.4456 8.69944L13.5678 9.06569L13.9538 9.06863C14.0038 9.06907 14.0245 9.13281 13.9843 9.1625L13.6738 9.39188L13.7903 9.75994C13.8054 9.80756 13.7511 9.84706 13.7104 9.81794L13.3963 9.59344L13.0823 9.81794C13.0416 9.847 12.9874 9.80756 13.0024 9.75994L13.1189 9.39188L12.8083 9.1625C12.7681 9.13275 12.7888 9.06907 12.8388 9.06863L13.2249 9.06569L13.347 8.69944C13.3628 8.65207 13.4298 8.65207 13.4456 8.69944Z" fill="#F5F5F5"/>
<path d="M13.4456 10.6154L13.5678 10.9816L13.9538 10.9846C14.0038 10.985 14.0245 11.0488 13.9843 11.0785L13.6738 11.3078L13.7903 11.6759C13.8054 11.7235 13.7511 11.763 13.7104 11.7339L13.3963 11.5094L13.0823 11.7339C13.0416 11.763 12.9874 11.7235 13.0024 11.6759L13.1189 11.3078L12.8083 11.0785C12.7681 11.0487 12.7888 10.985 12.8388 10.9846L13.2249 10.9816L13.347 10.6154C13.3628 10.568 13.4298 10.568 13.4456 10.6154Z" fill="#F5F5F5"/>
<path d="M13.4456 12.5313L13.5678 12.8975L13.9538 12.9005C14.0038 12.9009 14.0245 12.9647 13.9843 12.9944L13.6738 13.2237L13.7903 13.5918C13.8054 13.6394 13.7511 13.6789 13.7104 13.6498L13.3963 13.4253L13.0823 13.6498C13.0416 13.6789 12.9874 13.6394 13.0024 13.5918L13.1189 13.2237L12.8083 12.9944C12.7681 12.9646 12.7888 12.9009 12.8388 12.9005L13.2249 12.8975L13.347 12.5313C13.3628 12.4839 13.4298 12.4839 13.4456 12.5313Z" fill="#F5F5F5"/>
<path d="M13.4456 14.4472L13.5678 14.8134L13.9538 14.8164C14.0038 14.8168 14.0245 14.8806 13.9843 14.9103L13.6738 15.1396L13.7903 15.5077C13.8054 15.5553 13.7511 15.5948 13.7104 15.5657L13.3963 15.3412L13.0823 15.5657C13.0416 15.5948 12.9874 15.5553 13.0024 15.5077L13.1189 15.1396L12.8083 14.9103C12.7681 14.8805 12.7888 14.8168 12.8388 14.8164L13.2249 14.8134L13.347 14.4472C13.3628 14.3997 13.4298 14.3997 13.4456 14.4472Z" fill="#F5F5F5"/>
</svg>
