<svg width="276" height="280" viewBox="0 0 276 280" fill="none" xmlns="http://www.w3.org/2000/svg">
<rect width="276" height="280" rx="16" fill="white"/>
<rect x="0.5" y="0.5" width="275" height="279" rx="15.5" stroke="#67BBFB" stroke-opacity="0.4"/>
<rect x="16" y="226" width="244" height="1" fill="#F5F5F7"/>
<rect x="16" y="104" width="244" height="1" fill="#F5F5F7"/>
<path opacity="0.48" d="M18.66 91H17.26V81.074H18.66V91ZM22.8078 82.138V84.266H24.2638V85.456H22.8078V88.956C22.8078 89.2733 22.8778 89.5067 23.0178 89.656C23.1672 89.8053 23.4098 89.88 23.7458 89.88C23.9418 89.88 24.1145 89.8613 24.2638 89.824V90.944C24.0398 91.028 23.7412 91.07 23.3678 91.07C22.7892 91.07 22.3318 90.902 21.9958 90.566C21.6598 90.23 21.4918 89.7587 21.4918 89.152V85.456H20.2038V84.266H20.5678C20.9132 84.266 21.1698 84.1727 21.3378 83.986C21.5152 83.79 21.6038 83.538 21.6038 83.23V82.138H22.8078ZM26.806 86.94H30.488C30.4694 86.436 30.3014 86.0253 29.984 85.708C29.6667 85.3813 29.2187 85.218 28.64 85.218C28.1174 85.218 27.688 85.3907 27.352 85.736C27.016 86.072 26.834 86.4733 26.806 86.94ZM30.684 88.69L31.818 89.082C31.622 89.7073 31.258 90.2207 30.726 90.622C30.194 91.014 29.55 91.21 28.794 91.21C27.8514 91.21 27.0487 90.888 26.386 90.244C25.7327 89.5907 25.406 88.7133 25.406 87.612C25.406 86.5853 25.7234 85.736 26.358 85.064C26.9927 84.392 27.7487 84.056 28.626 84.056C29.6434 84.056 30.4367 84.378 31.006 85.022C31.5754 85.6567 31.86 86.5107 31.86 87.584C31.86 87.752 31.8507 87.892 31.832 88.004H26.764C26.7734 88.6013 26.9694 89.0913 27.352 89.474C27.744 89.8567 28.2247 90.048 28.794 90.048C29.7554 90.048 30.3854 89.5953 30.684 88.69ZM34.8419 91H33.5399V84.266H34.7999V85.162C35.0053 84.8073 35.2946 84.5367 35.6679 84.35C36.0413 84.1633 36.4333 84.07 36.8439 84.07C37.2826 84.07 37.6839 84.1773 38.0479 84.392C38.4119 84.6067 38.6826 84.924 38.8599 85.344C39.3266 84.4947 40.0779 84.07 41.1139 84.07C41.7579 84.07 42.3039 84.2893 42.7519 84.728C43.2093 85.1667 43.4379 85.8013 43.4379 86.632V91H42.1359V86.772C42.1359 86.3053 42.0146 85.932 41.7719 85.652C41.5386 85.372 41.1839 85.232 40.7079 85.232C40.2506 85.232 39.8773 85.3953 39.5879 85.722C39.2986 86.0393 39.1539 86.4407 39.1539 86.926V91H37.8379V86.772C37.8379 86.3053 37.7166 85.932 37.4739 85.652C37.2406 85.372 36.8859 85.232 36.4099 85.232C35.9433 85.232 35.5653 85.3907 35.2759 85.708C34.9866 86.0253 34.8419 86.436 34.8419 86.94V91Z" fill="#292C3E"/>
<path d="M18.632 126.708H20.62C21.208 126.708 21.6747 126.559 22.02 126.26C22.3653 125.952 22.538 125.541 22.538 125.028C22.538 124.505 22.3653 124.09 22.02 123.782C21.6747 123.465 21.208 123.306 20.62 123.306H18.632V126.708ZM20.872 127.94H18.632V132H17.26V122.074H20.872C21.7773 122.074 22.5147 122.354 23.084 122.914C23.6533 123.474 23.938 124.174 23.938 125.014C23.938 125.863 23.6533 126.563 23.084 127.114C22.5147 127.665 21.7773 127.94 20.872 127.94ZM26.7755 132H25.4735V125.266H26.7755V132ZM25.4455 123.39C25.2682 123.203 25.1795 122.979 25.1795 122.718C25.1795 122.457 25.2682 122.233 25.4455 122.046C25.6322 121.859 25.8562 121.766 26.1175 121.766C26.3788 121.766 26.6028 121.859 26.7895 122.046C26.9762 122.223 27.0695 122.447 27.0695 122.718C27.0695 122.979 26.9762 123.203 26.7895 123.39C26.6028 123.567 26.3788 123.656 26.1175 123.656C25.8562 123.656 25.6322 123.567 25.4455 123.39ZM30.3305 128.108V132H29.0145V125.266H30.3025V126.232C30.7505 125.457 31.4412 125.07 32.3745 125.07C33.1492 125.07 33.7419 125.317 34.1525 125.812C34.5725 126.307 34.7825 126.946 34.7825 127.73V132H33.4665V127.954C33.4665 126.825 32.9439 126.26 31.8985 126.26C31.4039 126.26 31.0165 126.437 30.7365 126.792C30.4659 127.137 30.3305 127.576 30.3305 128.108ZM42.9099 125.266L40.0399 128.108L42.9659 132H41.3139L39.1159 129.032L38.1779 129.97V132H36.8759V121.864H38.1779V128.248L41.0899 125.266H42.9099ZM49.2433 130.782H51.2733C52.244 130.782 53.0467 130.46 53.6813 129.816C54.3253 129.172 54.6473 128.253 54.6473 127.058C54.6473 125.854 54.33 124.925 53.6953 124.272C53.07 123.619 52.272 123.292 51.3013 123.292H49.2433V130.782ZM51.3153 132H47.8713V122.074H51.3433C52.678 122.074 53.798 122.517 54.7033 123.404C55.6087 124.281 56.0613 125.499 56.0613 127.058C56.0613 128.607 55.604 129.821 54.6893 130.698C53.7747 131.566 52.65 132 51.3153 132ZM61.5455 125.196V126.596C61.3495 126.568 61.1582 126.554 60.9715 126.554C59.7395 126.554 59.1235 127.245 59.1235 128.626V132H57.8075V125.266H59.0955V126.442C59.5062 125.583 60.1782 125.154 61.1115 125.154C61.2608 125.154 61.4055 125.168 61.5455 125.196ZM63.7338 127.94H67.4158C67.3971 127.436 67.2291 127.025 66.9118 126.708C66.5944 126.381 66.1464 126.218 65.5678 126.218C65.0451 126.218 64.6158 126.391 64.2798 126.736C63.9438 127.072 63.7618 127.473 63.7338 127.94ZM67.6118 129.69L68.7458 130.082C68.5498 130.707 68.1858 131.221 67.6538 131.622C67.1218 132.014 66.4778 132.21 65.7218 132.21C64.7791 132.21 63.9764 131.888 63.3138 131.244C62.6604 130.591 62.3338 129.713 62.3338 128.612C62.3338 127.585 62.6511 126.736 63.2858 126.064C63.9204 125.392 64.6764 125.056 65.5538 125.056C66.5711 125.056 67.3644 125.378 67.9338 126.022C68.5031 126.657 68.7878 127.511 68.7878 128.584C68.7878 128.752 68.7784 128.892 68.7598 129.004H63.6918C63.7011 129.601 63.8971 130.091 64.2798 130.474C64.6718 130.857 65.1524 131.048 65.7218 131.048C66.6831 131.048 67.3131 130.595 67.6118 129.69ZM69.8377 130.25L71.0277 129.83C71.0743 130.194 71.233 130.497 71.5037 130.74C71.7743 130.973 72.1383 131.09 72.5957 131.09C72.9503 131.09 73.2303 131.006 73.4357 130.838C73.641 130.661 73.7437 130.446 73.7437 130.194C73.7437 129.746 73.4543 129.457 72.8757 129.326L71.7277 129.074C71.205 128.962 70.7943 128.738 70.4957 128.402C70.197 128.066 70.0477 127.66 70.0477 127.184C70.0477 126.605 70.281 126.106 70.7477 125.686C71.2237 125.266 71.7883 125.056 72.4417 125.056C72.871 125.056 73.2537 125.121 73.5897 125.252C73.9257 125.373 74.187 125.537 74.3737 125.742C74.5603 125.947 74.7003 126.139 74.7937 126.316C74.887 126.493 74.957 126.675 75.0037 126.862L73.8417 127.296C73.823 127.184 73.7903 127.077 73.7437 126.974C73.697 126.862 73.6223 126.741 73.5197 126.61C73.4263 126.479 73.2863 126.377 73.0997 126.302C72.913 126.218 72.6937 126.176 72.4417 126.176C72.115 126.176 71.8443 126.265 71.6297 126.442C71.4243 126.619 71.3217 126.829 71.3217 127.072C71.3217 127.501 71.5783 127.772 72.0917 127.884L73.1837 128.122C73.781 128.253 74.2383 128.495 74.5557 128.85C74.8823 129.195 75.0457 129.62 75.0457 130.124C75.0457 130.656 74.8263 131.137 74.3877 131.566C73.9583 131.995 73.3563 132.21 72.5817 132.21C71.751 132.21 71.1023 132.005 70.6357 131.594C70.169 131.174 69.903 130.726 69.8377 130.25ZM76.1677 130.25L77.3577 129.83C77.4044 130.194 77.5631 130.497 77.8337 130.74C78.1044 130.973 78.4684 131.09 78.9257 131.09C79.2804 131.09 79.5604 131.006 79.7657 130.838C79.9711 130.661 80.0737 130.446 80.0737 130.194C80.0737 129.746 79.7844 129.457 79.2057 129.326L78.0577 129.074C77.5351 128.962 77.1244 128.738 76.8257 128.402C76.5271 128.066 76.3777 127.66 76.3777 127.184C76.3777 126.605 76.6111 126.106 77.0777 125.686C77.5537 125.266 78.1184 125.056 78.7717 125.056C79.2011 125.056 79.5837 125.121 79.9197 125.252C80.2557 125.373 80.5171 125.537 80.7037 125.742C80.8904 125.947 81.0304 126.139 81.1237 126.316C81.2171 126.493 81.2871 126.675 81.3337 126.862L80.1717 127.296C80.1531 127.184 80.1204 127.077 80.0737 126.974C80.0271 126.862 79.9524 126.741 79.8497 126.61C79.7564 126.479 79.6164 126.377 79.4297 126.302C79.2431 126.218 79.0237 126.176 78.7717 126.176C78.4451 126.176 78.1744 126.265 77.9597 126.442C77.7544 126.619 77.6517 126.829 77.6517 127.072C77.6517 127.501 77.9084 127.772 78.4217 127.884L79.5137 128.122C80.1111 128.253 80.5684 128.495 80.8857 128.85C81.2124 129.195 81.3757 129.62 81.3757 130.124C81.3757 130.656 81.1564 131.137 80.7177 131.566C80.2884 131.995 79.6864 132.21 78.9117 132.21C78.0811 132.21 77.4324 132.005 76.9657 131.594C76.4991 131.174 76.2331 130.726 76.1677 130.25Z" fill="#292C3E"/>
<path d="M24.672 35.232L23.264 35.728C23.1893 35.2373 22.9493 34.7947 22.544 34.4C22.1387 33.9947 21.5787 33.792 20.864 33.792C20.2347 33.792 19.712 33.9733 19.296 34.336C18.88 34.6987 18.672 35.1467 18.672 35.68C18.672 36.096 18.7947 36.448 19.04 36.736C19.296 37.024 19.6587 37.2213 20.128 37.328L21.824 37.696C22.7627 37.8987 23.488 38.2827 24 38.848C24.512 39.4027 24.768 40.08 24.768 40.88C24.768 41.7973 24.4053 42.5867 23.68 43.248C22.9547 43.9093 22.0107 44.24 20.848 44.24C19.5787 44.24 18.5813 43.9093 17.856 43.248C17.1413 42.576 16.7253 41.7813 16.608 40.864L18.112 40.384C18.176 41.0667 18.4427 41.6427 18.912 42.112C19.3813 42.5813 20.0213 42.816 20.832 42.816C21.5787 42.816 22.1547 42.6453 22.56 42.304C22.9653 41.9627 23.168 41.5307 23.168 41.008C23.168 40.5813 23.024 40.2133 22.736 39.904C22.448 39.584 22.0267 39.3653 21.472 39.248L19.856 38.896C19.0133 38.7147 18.3413 38.3573 17.84 37.824C17.3387 37.2907 17.088 36.6133 17.088 35.792C17.088 34.896 17.4507 34.112 18.176 33.44C18.912 32.7573 19.7973 32.416 20.832 32.416C21.9947 32.416 22.8853 32.6987 23.504 33.264C24.1227 33.8293 24.512 34.4853 24.672 35.232ZM26.2063 41.936C26.2063 41.2747 26.4196 40.7467 26.8463 40.352C27.2729 39.9467 27.8383 39.696 28.5423 39.6L30.6223 39.296C31.0169 39.2427 31.2143 39.0507 31.2143 38.72C31.2143 38.3147 31.0756 37.984 30.7983 37.728C30.5209 37.472 30.1049 37.344 29.5503 37.344C29.0383 37.344 28.6329 37.488 28.3343 37.776C28.0356 38.0533 27.8596 38.4267 27.8063 38.896L26.3663 38.56C26.4409 37.824 26.7769 37.2267 27.3743 36.768C27.9716 36.2987 28.6863 36.064 29.5182 36.064C30.6063 36.064 31.4116 36.3307 31.9343 36.864C32.4569 37.3867 32.7183 38.0587 32.7183 38.88V42.736C32.7183 43.1947 32.7503 43.616 32.8143 44H31.3423C31.2889 43.68 31.2623 43.3333 31.2623 42.96C31.0489 43.3013 30.7343 43.6 30.3183 43.856C29.9129 44.112 29.4009 44.24 28.7823 44.24C28.0249 44.24 27.4063 44.016 26.9263 43.568C26.4463 43.1093 26.2063 42.5653 26.2063 41.936ZM28.9903 42.976C29.6623 42.976 30.2009 42.7947 30.6063 42.432C31.0116 42.0693 31.2143 41.4933 31.2143 40.704V40.352L28.8623 40.704C28.5209 40.7573 28.2489 40.88 28.0463 41.072C27.8436 41.264 27.7423 41.5253 27.7423 41.856C27.7423 42.1547 27.8543 42.416 28.0783 42.64C28.3129 42.864 28.6169 42.976 28.9903 42.976ZM36.5493 44H35.0613V36.304H36.5013V37.328C36.7359 36.9227 37.0666 36.6133 37.4933 36.4C37.9199 36.1867 38.3679 36.08 38.8373 36.08C39.3386 36.08 39.7973 36.2027 40.2133 36.448C40.6293 36.6933 40.9386 37.056 41.1413 37.536C41.6746 36.5653 42.5333 36.08 43.7173 36.08C44.4533 36.08 45.0773 36.3307 45.5893 36.832C46.1119 37.3333 46.3733 38.0587 46.3733 39.008V44H44.8853V39.168C44.8853 38.6347 44.7466 38.208 44.4693 37.888C44.2026 37.568 43.7973 37.408 43.2533 37.408C42.7306 37.408 42.3039 37.5947 41.9733 37.968C41.6426 38.3307 41.4773 38.7893 41.4773 39.344V44H39.9733V39.168C39.9733 38.6347 39.8346 38.208 39.5573 37.888C39.2906 37.568 38.8853 37.408 38.3413 37.408C37.8079 37.408 37.3759 37.5893 37.0453 37.952C36.7146 38.3147 36.5493 38.784 36.5493 39.36V44ZM50.268 47.04H48.78V36.304H50.236V37.504C50.46 37.0987 50.796 36.768 51.244 36.512C51.692 36.256 52.2147 36.128 52.812 36.128C53.9213 36.128 54.7853 36.5067 55.404 37.264C56.0333 38.0213 56.348 38.9813 56.348 40.144C56.348 41.3173 56.0227 42.288 55.372 43.056C54.732 43.824 53.8627 44.208 52.764 44.208C52.1987 44.208 51.6973 44.0907 51.26 43.856C50.8227 43.6213 50.492 43.3227 50.268 42.96V47.04ZM54.812 40.144C54.812 39.3653 54.604 38.7253 54.188 38.224C53.7827 37.712 53.2333 37.456 52.54 37.456C51.8573 37.456 51.3027 37.712 50.876 38.224C50.46 38.7253 50.252 39.3653 50.252 40.144C50.252 40.944 50.46 41.6 50.876 42.112C51.3027 42.6133 51.8573 42.864 52.54 42.864C53.2227 42.864 53.772 42.6133 54.188 42.112C54.604 41.6 54.812 40.944 54.812 40.144ZM59.7684 44H58.2644V32.416H59.7684V44ZM63.3029 39.36H67.5109C67.4895 38.784 67.2975 38.3147 66.9349 37.952C66.5722 37.5787 66.0602 37.392 65.3989 37.392C64.8015 37.392 64.3109 37.5893 63.9269 37.984C63.5429 38.368 63.3349 38.8267 63.3029 39.36ZM67.7349 41.36L69.0309 41.808C68.8069 42.5227 68.3909 43.1093 67.7829 43.568C67.1749 44.016 66.4389 44.24 65.5749 44.24C64.4975 44.24 63.5802 43.872 62.8229 43.136C62.0762 42.3893 61.7029 41.3867 61.7029 40.128C61.7029 38.9547 62.0655 37.984 62.7909 37.216C63.5162 36.448 64.3802 36.064 65.3829 36.064C66.5455 36.064 67.4522 36.432 68.1029 37.168C68.7535 37.8933 69.0789 38.8693 69.0789 40.096C69.0789 40.288 69.0682 40.448 69.0469 40.576H63.2549C63.2655 41.2587 63.4895 41.8187 63.9269 42.256C64.3749 42.6933 64.9242 42.912 65.5749 42.912C66.6735 42.912 67.3935 42.3947 67.7349 41.36Z" fill="#292C3E"/>
<path d="M24.288 168H16.63V166.628L22.552 159.348H16.77V158.074H24.218V159.404L18.268 166.712H24.288V168ZM33.4804 158.074L30.1064 163.03L33.4384 168H31.8004L29.2944 164.122L26.7324 168H25.1224L28.5104 163.03L25.1504 158.074H26.8024L29.3084 161.966L31.8564 158.074H33.4804ZM38.383 158.074H41.617C42.541 158.074 43.269 158.321 43.801 158.816C44.3424 159.311 44.613 159.959 44.613 160.762C44.613 161.275 44.4777 161.719 44.207 162.092C43.9364 162.465 43.577 162.736 43.129 162.904C43.6797 163.044 44.1137 163.338 44.431 163.786C44.7577 164.225 44.921 164.729 44.921 165.298C44.921 166.082 44.6364 166.731 44.067 167.244C43.4977 167.748 42.7604 168 41.855 168H38.383V158.074ZM39.755 162.414H41.463C42.0044 162.414 42.4337 162.269 42.751 161.98C43.0684 161.681 43.227 161.299 43.227 160.832C43.227 160.356 43.0637 159.978 42.737 159.698C42.4104 159.418 41.967 159.278 41.407 159.278H39.755V162.414ZM39.755 166.796H41.659C42.219 166.796 42.667 166.651 43.003 166.362C43.3484 166.073 43.521 165.69 43.521 165.214C43.521 164.719 43.367 164.327 43.059 164.038C42.751 163.739 42.303 163.59 41.715 163.59H39.755V166.796ZM48.1193 166.404C48.5299 166.824 49.0293 167.034 49.6173 167.034C50.2053 167.034 50.6999 166.824 51.1013 166.404C51.5119 165.975 51.7173 165.382 51.7173 164.626C51.7173 163.879 51.5119 163.296 51.1013 162.876C50.6999 162.447 50.2053 162.232 49.6173 162.232C49.0293 162.232 48.5299 162.447 48.1193 162.876C47.7179 163.296 47.5173 163.879 47.5173 164.626C47.5173 165.382 47.7179 165.975 48.1193 166.404ZM47.1393 162.078C47.7926 161.397 48.6186 161.056 49.6173 161.056C50.6159 161.056 51.4373 161.397 52.0813 162.078C52.7346 162.75 53.0613 163.599 53.0613 164.626C53.0613 165.662 52.7393 166.521 52.0953 167.202C51.4513 167.874 50.6253 168.21 49.6173 168.21C48.6093 168.21 47.7833 167.874 47.1393 167.202C46.4953 166.521 46.1733 165.662 46.1733 164.626C46.1733 163.599 46.4953 162.75 47.1393 162.078ZM56.131 166.404C56.5417 166.824 57.041 167.034 57.629 167.034C58.217 167.034 58.7117 166.824 59.113 166.404C59.5237 165.975 59.729 165.382 59.729 164.626C59.729 163.879 59.5237 163.296 59.113 162.876C58.7117 162.447 58.217 162.232 57.629 162.232C57.041 162.232 56.5417 162.447 56.131 162.876C55.7297 163.296 55.529 163.879 55.529 164.626C55.529 165.382 55.7297 165.975 56.131 166.404ZM55.151 162.078C55.8043 161.397 56.6303 161.056 57.629 161.056C58.6277 161.056 59.449 161.397 60.093 162.078C60.7463 162.75 61.073 163.599 61.073 164.626C61.073 165.662 60.751 166.521 60.107 167.202C59.463 167.874 58.637 168.21 57.629 168.21C56.621 168.21 55.795 167.874 55.151 167.202C54.507 166.521 54.185 165.662 54.185 164.626C54.185 163.599 54.507 162.75 55.151 162.078ZM62.1267 166.25L63.3167 165.83C63.3634 166.194 63.5221 166.497 63.7927 166.74C64.0634 166.973 64.4274 167.09 64.8847 167.09C65.2394 167.09 65.5194 167.006 65.7247 166.838C65.9301 166.661 66.0327 166.446 66.0327 166.194C66.0327 165.746 65.7434 165.457 65.1647 165.326L64.0167 165.074C63.4941 164.962 63.0834 164.738 62.7847 164.402C62.4861 164.066 62.3367 163.66 62.3367 163.184C62.3367 162.605 62.5701 162.106 63.0367 161.686C63.5127 161.266 64.0774 161.056 64.7307 161.056C65.1601 161.056 65.5427 161.121 65.8787 161.252C66.2147 161.373 66.4761 161.537 66.6627 161.742C66.8494 161.947 66.9894 162.139 67.0827 162.316C67.1761 162.493 67.2461 162.675 67.2927 162.862L66.1307 163.296C66.1121 163.184 66.0794 163.077 66.0327 162.974C65.9861 162.862 65.9114 162.741 65.8087 162.61C65.7154 162.479 65.5754 162.377 65.3887 162.302C65.2021 162.218 64.9827 162.176 64.7307 162.176C64.4041 162.176 64.1334 162.265 63.9187 162.442C63.7134 162.619 63.6107 162.829 63.6107 163.072C63.6107 163.501 63.8674 163.772 64.3807 163.884L65.4727 164.122C66.0701 164.253 66.5274 164.495 66.8447 164.85C67.1714 165.195 67.3347 165.62 67.3347 166.124C67.3347 166.656 67.1154 167.137 66.6767 167.566C66.2474 167.995 65.6454 168.21 64.8707 168.21C64.0401 168.21 63.3914 168.005 62.9247 167.594C62.4581 167.174 62.1921 166.726 62.1267 166.25ZM70.8508 159.138V161.266H72.3068V162.456H70.8508V165.956C70.8508 166.273 70.9208 166.507 71.0608 166.656C71.2101 166.805 71.4528 166.88 71.7888 166.88C71.9848 166.88 72.1575 166.861 72.3068 166.824V167.944C72.0828 168.028 71.7841 168.07 71.4108 168.07C70.8321 168.07 70.3748 167.902 70.0388 167.566C69.7028 167.23 69.5348 166.759 69.5348 166.152V162.456H68.2468V161.266H68.6108C68.9561 161.266 69.2128 161.173 69.3808 160.986C69.5581 160.79 69.6468 160.538 69.6468 160.23V159.138H70.8508Z" fill="#292C3E"/>
<path d="M24.134 204L23.056 201.228H18.66L17.61 204H16.14L20.088 194.074H21.67L25.618 204H24.134ZM20.844 195.502L19.15 199.954H22.566L20.844 195.502ZM26.2517 202.25L27.4417 201.83C27.4884 202.194 27.6471 202.497 27.9177 202.74C28.1884 202.973 28.5524 203.09 29.0097 203.09C29.3644 203.09 29.6444 203.006 29.8497 202.838C30.0551 202.661 30.1577 202.446 30.1577 202.194C30.1577 201.746 29.8684 201.457 29.2897 201.326L28.1417 201.074C27.6191 200.962 27.2084 200.738 26.9097 200.402C26.6111 200.066 26.4617 199.66 26.4617 199.184C26.4617 198.605 26.6951 198.106 27.1617 197.686C27.6377 197.266 28.2024 197.056 28.8557 197.056C29.2851 197.056 29.6677 197.121 30.0037 197.252C30.3397 197.373 30.6011 197.537 30.7877 197.742C30.9744 197.947 31.1144 198.139 31.2077 198.316C31.3011 198.493 31.3711 198.675 31.4177 198.862L30.2557 199.296C30.2371 199.184 30.2044 199.077 30.1577 198.974C30.1111 198.862 30.0364 198.741 29.9337 198.61C29.8404 198.479 29.7004 198.377 29.5137 198.302C29.3271 198.218 29.1077 198.176 28.8557 198.176C28.5291 198.176 28.2584 198.265 28.0437 198.442C27.8384 198.619 27.7357 198.829 27.7357 199.072C27.7357 199.501 27.9924 199.772 28.5057 199.884L29.5977 200.122C30.1951 200.253 30.6524 200.495 30.9697 200.85C31.2964 201.195 31.4597 201.62 31.4597 202.124C31.4597 202.656 31.2404 203.137 30.8017 203.566C30.3724 203.995 29.7704 204.21 28.9957 204.21C28.1651 204.21 27.5164 204.005 27.0497 203.594C26.5831 203.174 26.3171 202.726 26.2517 202.25ZM34.5278 200.038V204H33.2118V193.864H34.5278V198.05C34.9758 197.397 35.6571 197.07 36.5718 197.07C37.3465 197.07 37.9391 197.317 38.3498 197.812C38.7698 198.307 38.9798 198.946 38.9798 199.73V204H37.6638V199.954C37.6638 198.825 37.1411 198.26 36.0958 198.26C35.6105 198.26 35.2325 198.428 34.9618 198.764C34.6911 199.091 34.5465 199.515 34.5278 200.038ZM42.3891 204H41.0731V193.864H42.3891V204ZM48.9975 203.188C48.8201 203.524 48.5495 203.781 48.1855 203.958C47.8215 204.126 47.4295 204.21 47.0095 204.21C46.2441 204.21 45.6328 203.958 45.1755 203.454C44.7181 202.941 44.4895 202.292 44.4895 201.508V197.266H45.8055V201.312C45.8055 201.816 45.9268 202.231 46.1695 202.558C46.4215 202.885 46.8088 203.048 47.3315 203.048C47.8541 203.048 48.2508 202.894 48.5215 202.586C48.7921 202.269 48.9275 201.849 48.9275 201.326V197.266H50.2435V202.754C50.2435 203.193 50.2668 203.608 50.3135 204H49.0535C49.0161 203.795 48.9975 203.524 48.9975 203.188ZM51.5091 204L54.0151 200.57L51.5931 197.266H53.1891L54.8411 199.632L56.4651 197.266H58.0191L55.6251 200.57C55.7558 200.747 56.1665 201.317 56.8571 202.278C57.5478 203.239 57.9631 203.813 58.1031 204H56.5211L54.7851 201.522L53.0771 204H51.5091ZM60.0834 199.94H63.7654C63.7467 199.436 63.5787 199.025 63.2614 198.708C62.944 198.381 62.496 198.218 61.9174 198.218C61.3947 198.218 60.9654 198.391 60.6294 198.736C60.2934 199.072 60.1114 199.473 60.0834 199.94ZM63.9614 201.69L65.0954 202.082C64.8994 202.707 64.5354 203.221 64.0034 203.622C63.4714 204.014 62.8274 204.21 62.0714 204.21C61.1287 204.21 60.326 203.888 59.6634 203.244C59.01 202.591 58.6834 201.713 58.6834 200.612C58.6834 199.585 59.0007 198.736 59.6354 198.064C60.27 197.392 61.026 197.056 61.9034 197.056C62.9207 197.056 63.714 197.378 64.2834 198.022C64.8527 198.657 65.1374 199.511 65.1374 200.584C65.1374 200.752 65.128 200.892 65.1094 201.004H60.0414C60.0507 201.601 60.2467 202.091 60.6294 202.474C61.0214 202.857 61.502 203.048 62.0714 203.048C63.0327 203.048 63.6627 202.595 63.9614 201.69Z" fill="#292C3E"/>
<path d="M24.148 247.348H20.83V256H19.458V247.348H16.14V246.074H24.148V247.348ZM25.465 254.404C25.8757 254.824 26.375 255.034 26.963 255.034C27.551 255.034 28.0457 254.824 28.447 254.404C28.8577 253.975 29.063 253.382 29.063 252.626C29.063 251.879 28.8577 251.296 28.447 250.876C28.0457 250.447 27.551 250.232 26.963 250.232C26.375 250.232 25.8757 250.447 25.465 250.876C25.0637 251.296 24.863 251.879 24.863 252.626C24.863 253.382 25.0637 253.975 25.465 254.404ZM24.485 250.078C25.1383 249.397 25.9643 249.056 26.963 249.056C27.9617 249.056 28.783 249.397 29.427 250.078C30.0803 250.75 30.407 251.599 30.407 252.626C30.407 253.662 30.085 254.521 29.441 255.202C28.797 255.874 27.971 256.21 26.963 256.21C25.955 256.21 25.129 255.874 24.485 255.202C23.841 254.521 23.519 253.662 23.519 252.626C23.519 251.599 23.841 250.75 24.485 250.078ZM33.7863 247.138V249.266H35.2423V250.456H33.7863V253.956C33.7863 254.273 33.8563 254.507 33.9963 254.656C34.1457 254.805 34.3883 254.88 34.7243 254.88C34.9203 254.88 35.093 254.861 35.2423 254.824V255.944C35.0183 256.028 34.7197 256.07 34.3463 256.07C33.7677 256.07 33.3103 255.902 32.9743 255.566C32.6383 255.23 32.4703 254.759 32.4703 254.152V250.456H31.1823V249.266H31.5463C31.8917 249.266 32.1483 249.173 32.3163 248.986C32.4937 248.79 32.5823 248.538 32.5823 248.23V247.138H33.7863ZM36.5789 254.194C36.5789 253.615 36.7656 253.153 37.1389 252.808C37.5122 252.453 38.0069 252.234 38.6229 252.15L40.4429 251.884C40.7882 251.837 40.9609 251.669 40.9609 251.38C40.9609 251.025 40.8396 250.736 40.5969 250.512C40.3542 250.288 39.9902 250.176 39.5049 250.176C39.0569 250.176 38.7022 250.302 38.4409 250.554C38.1796 250.797 38.0256 251.123 37.9789 251.534L36.7189 251.24C36.7842 250.596 37.0782 250.073 37.6009 249.672C38.1236 249.261 38.7489 249.056 39.4769 249.056C40.4289 249.056 41.1336 249.289 41.5909 249.756C42.0482 250.213 42.2769 250.801 42.2769 251.52V254.894C42.2769 255.295 42.3049 255.664 42.3609 256H41.0729C41.0262 255.72 41.0029 255.417 41.0029 255.09C40.8162 255.389 40.5409 255.65 40.1769 255.874C39.8222 256.098 39.3742 256.21 38.8329 256.21C38.1702 256.21 37.6289 256.014 37.2089 255.622C36.7889 255.221 36.5789 254.745 36.5789 254.194ZM39.0149 255.104C39.6029 255.104 40.0742 254.945 40.4289 254.628C40.7836 254.311 40.9609 253.807 40.9609 253.116V252.808L38.9029 253.116C38.6042 253.163 38.3662 253.27 38.1889 253.438C38.0116 253.606 37.9229 253.835 37.9229 254.124C37.9229 254.385 38.0209 254.614 38.2169 254.81C38.4222 255.006 38.6882 255.104 39.0149 255.104ZM45.643 256H44.327V245.864H45.643V256Z" fill="#292C3E"/>
<path opacity="0.48" d="M230.859 85.708H232.847C233.435 85.708 233.901 85.5587 234.247 85.26C234.592 84.952 234.765 84.5413 234.765 84.028C234.765 83.5053 234.592 83.09 234.247 82.782C233.901 82.4647 233.435 82.306 232.847 82.306H230.859V85.708ZM233.099 86.94H230.859V91H229.487V81.074H233.099C234.004 81.074 234.741 81.354 235.311 81.914C235.88 82.474 236.165 83.174 236.165 84.014C236.165 84.8633 235.88 85.5633 235.311 86.114C234.741 86.6647 234.004 86.94 233.099 86.94ZM241.233 84.196V85.596C241.037 85.568 240.846 85.554 240.659 85.554C239.427 85.554 238.811 86.2447 238.811 87.626V91H237.495V84.266H238.783V85.442C239.194 84.5833 239.866 84.154 240.799 84.154C240.948 84.154 241.093 84.168 241.233 84.196ZM243.938 91H242.636V84.266H243.938V91ZM242.608 82.39C242.43 82.2033 242.342 81.9793 242.342 81.718C242.342 81.4567 242.43 81.2327 242.608 81.046C242.794 80.8593 243.018 80.766 243.28 80.766C243.541 80.766 243.765 80.8593 243.952 81.046C244.138 81.2233 244.232 81.4473 244.232 81.718C244.232 81.9793 244.138 82.2033 243.952 82.39C243.765 82.5673 243.541 82.656 243.28 82.656C243.018 82.656 242.794 82.5673 242.608 82.39ZM249.005 85.274C248.435 85.274 247.95 85.4793 247.549 85.89C247.157 86.3007 246.961 86.8793 246.961 87.626C246.961 88.3633 247.157 88.942 247.549 89.362C247.95 89.782 248.44 89.992 249.019 89.992C249.579 89.992 250.003 89.852 250.293 89.572C250.591 89.292 250.792 88.97 250.895 88.606L252.057 89.11C251.87 89.67 251.515 90.16 250.993 90.58C250.479 91 249.821 91.21 249.019 91.21C248.039 91.21 247.227 90.8693 246.583 90.188C245.939 89.5067 245.617 88.6527 245.617 87.626C245.617 86.5807 245.939 85.7267 246.583 85.064C247.227 84.392 248.034 84.056 249.005 84.056C249.826 84.056 250.489 84.266 250.993 84.686C251.506 85.106 251.842 85.61 252.001 86.198L250.811 86.702C250.708 86.31 250.512 85.974 250.223 85.694C249.933 85.414 249.527 85.274 249.005 85.274ZM254.386 86.94H258.068C258.049 86.436 257.881 86.0253 257.564 85.708C257.247 85.3813 256.799 85.218 256.22 85.218C255.697 85.218 255.268 85.3907 254.932 85.736C254.596 86.072 254.414 86.4733 254.386 86.94ZM258.264 88.69L259.398 89.082C259.202 89.7073 258.838 90.2207 258.306 90.622C257.774 91.014 257.13 91.21 256.374 91.21C255.431 91.21 254.629 90.888 253.966 90.244C253.313 89.5907 252.986 88.7133 252.986 87.612C252.986 86.5853 253.303 85.736 253.938 85.064C254.573 84.392 255.329 84.056 256.206 84.056C257.223 84.056 258.017 84.378 258.586 85.022C259.155 85.6567 259.44 86.5107 259.44 87.584C259.44 87.752 259.431 87.892 259.412 88.004H254.344C254.353 88.6013 254.549 89.0913 254.932 89.474C255.324 89.8567 255.805 90.048 256.374 90.048C257.335 90.048 257.965 89.5953 258.264 88.69Z" fill="#292C3E"/>
<path d="M214.176 133.638H213.084V132.182C212.179 132.089 211.465 131.776 210.942 131.244C210.419 130.703 210.116 130.091 210.032 129.41L211.362 128.99C211.409 129.475 211.577 129.9 211.866 130.264C212.155 130.628 212.561 130.857 213.084 130.95V128.024L212.734 127.954C212.006 127.805 211.437 127.511 211.026 127.072C210.615 126.633 210.41 126.078 210.41 125.406C210.41 124.734 210.657 124.146 211.152 123.642C211.656 123.138 212.3 122.839 213.084 122.746V121.276H214.176V122.76C214.951 122.863 215.543 123.133 215.954 123.572C216.374 124.001 216.654 124.491 216.794 125.042L215.534 125.504C215.487 125.196 215.347 124.897 215.114 124.608C214.881 124.319 214.568 124.118 214.176 124.006V126.876L214.386 126.918C215.151 127.067 215.758 127.38 216.206 127.856C216.654 128.332 216.878 128.887 216.878 129.522C216.878 130.185 216.64 130.768 216.164 131.272C215.688 131.776 215.025 132.079 214.176 132.182V133.638ZM215.506 129.592C215.506 129.284 215.394 129.009 215.17 128.766C214.946 128.523 214.615 128.351 214.176 128.248V130.95C214.615 130.866 214.946 130.703 215.17 130.46C215.394 130.217 215.506 129.928 215.506 129.592ZM211.796 125.35C211.796 126.031 212.225 126.456 213.084 126.624V123.964C212.683 124.039 212.365 124.202 212.132 124.454C211.908 124.706 211.796 125.005 211.796 125.35ZM221.55 132H220.206V125.602H218.008V124.636C218.624 124.627 219.142 124.468 219.562 124.16C219.982 123.843 220.244 123.432 220.346 122.928H221.55V132ZM225.518 124.524C224.986 125.084 224.72 126.064 224.72 127.464C224.72 128.864 224.986 129.844 225.518 130.404C225.891 130.796 226.372 130.992 226.96 130.992C227.548 130.992 228.029 130.796 228.402 130.404C228.934 129.844 229.2 128.864 229.2 127.464C229.2 126.064 228.934 125.084 228.402 124.524C228.029 124.132 227.548 123.936 226.96 123.936C226.372 123.936 225.891 124.132 225.518 124.524ZM224.174 130.754C223.633 129.951 223.362 128.855 223.362 127.464C223.362 126.073 223.633 124.977 224.174 124.174C224.818 123.203 225.747 122.718 226.96 122.718C228.173 122.718 229.102 123.203 229.746 124.174C230.287 124.977 230.558 126.073 230.558 127.464C230.558 128.855 230.287 129.951 229.746 130.754C229.102 131.725 228.173 132.21 226.96 132.21C225.747 132.21 224.818 131.725 224.174 130.754ZM234.049 124.524C233.517 125.084 233.251 126.064 233.251 127.464C233.251 128.864 233.517 129.844 234.049 130.404C234.423 130.796 234.903 130.992 235.491 130.992C236.079 130.992 236.56 130.796 236.933 130.404C237.465 129.844 237.731 128.864 237.731 127.464C237.731 126.064 237.465 125.084 236.933 124.524C236.56 124.132 236.079 123.936 235.491 123.936C234.903 123.936 234.423 124.132 234.049 124.524ZM232.705 130.754C232.164 129.951 231.893 128.855 231.893 127.464C231.893 126.073 232.164 124.977 232.705 124.174C233.349 123.203 234.278 122.718 235.491 122.718C236.705 122.718 237.633 123.203 238.277 124.174C238.819 124.977 239.089 126.073 239.089 127.464C239.089 128.855 238.819 129.951 238.277 130.754C237.633 131.725 236.705 132.21 235.491 132.21C234.278 132.21 233.349 131.725 232.705 130.754ZM240.492 131.79C240.306 131.603 240.212 131.375 240.212 131.104C240.212 130.833 240.306 130.605 240.492 130.418C240.679 130.222 240.908 130.124 241.178 130.124C241.449 130.124 241.678 130.222 241.864 130.418C242.06 130.605 242.158 130.833 242.158 131.104C242.158 131.375 242.06 131.603 241.864 131.79C241.678 131.977 241.449 132.07 241.178 132.07C240.908 132.07 240.679 131.977 240.492 131.79ZM245.725 124.524C245.193 125.084 244.927 126.064 244.927 127.464C244.927 128.864 245.193 129.844 245.725 130.404C246.098 130.796 246.579 130.992 247.167 130.992C247.755 130.992 248.236 130.796 248.609 130.404C249.141 129.844 249.407 128.864 249.407 127.464C249.407 126.064 249.141 125.084 248.609 124.524C248.236 124.132 247.755 123.936 247.167 123.936C246.579 123.936 246.098 124.132 245.725 124.524ZM244.381 130.754C243.84 129.951 243.569 128.855 243.569 127.464C243.569 126.073 243.84 124.977 244.381 124.174C245.025 123.203 245.954 122.718 247.167 122.718C248.38 122.718 249.309 123.203 249.953 124.174C250.494 124.977 250.765 126.073 250.765 127.464C250.765 128.855 250.494 129.951 249.953 130.754C249.309 131.725 248.38 132.21 247.167 132.21C245.954 132.21 245.025 131.725 244.381 130.754ZM254.256 124.524C253.724 125.084 253.458 126.064 253.458 127.464C253.458 128.864 253.724 129.844 254.256 130.404C254.63 130.796 255.11 130.992 255.698 130.992C256.286 130.992 256.767 130.796 257.14 130.404C257.672 129.844 257.938 128.864 257.938 127.464C257.938 126.064 257.672 125.084 257.14 124.524C256.767 124.132 256.286 123.936 255.698 123.936C255.11 123.936 254.63 124.132 254.256 124.524ZM252.912 130.754C252.371 129.951 252.1 128.855 252.1 127.464C252.1 126.073 252.371 124.977 252.912 124.174C253.556 123.203 254.485 122.718 255.698 122.718C256.912 122.718 257.84 123.203 258.484 124.174C259.026 124.977 259.296 126.073 259.296 127.464C259.296 128.855 259.026 129.951 258.484 130.754C257.84 131.725 256.912 132.21 255.698 132.21C254.485 132.21 253.556 131.725 252.912 130.754Z" fill="#292C3E"/>
<path d="M215.297 169.638H214.205V168.182C213.3 168.089 212.586 167.776 212.063 167.244C211.54 166.703 211.237 166.091 211.153 165.41L212.483 164.99C212.53 165.475 212.698 165.9 212.987 166.264C213.276 166.628 213.682 166.857 214.205 166.95V164.024L213.855 163.954C213.127 163.805 212.558 163.511 212.147 163.072C211.736 162.633 211.531 162.078 211.531 161.406C211.531 160.734 211.778 160.146 212.273 159.642C212.777 159.138 213.421 158.839 214.205 158.746V157.276H215.297V158.76C216.072 158.863 216.664 159.133 217.075 159.572C217.495 160.001 217.775 160.491 217.915 161.042L216.655 161.504C216.608 161.196 216.468 160.897 216.235 160.608C216.002 160.319 215.689 160.118 215.297 160.006V162.876L215.507 162.918C216.272 163.067 216.879 163.38 217.327 163.856C217.775 164.332 217.999 164.887 217.999 165.522C217.999 166.185 217.761 166.768 217.285 167.272C216.809 167.776 216.146 168.079 215.297 168.182V169.638ZM216.627 165.592C216.627 165.284 216.515 165.009 216.291 164.766C216.067 164.523 215.736 164.351 215.297 164.248V166.95C215.736 166.866 216.067 166.703 216.291 166.46C216.515 166.217 216.627 165.928 216.627 165.592ZM212.917 161.35C212.917 162.031 213.346 162.456 214.205 162.624V159.964C213.804 160.039 213.486 160.202 213.253 160.454C213.029 160.706 212.917 161.005 212.917 161.35ZM222.671 168H221.327V161.602H219.129V160.636C219.745 160.627 220.263 160.468 220.683 160.16C221.103 159.843 221.365 159.432 221.467 158.928H222.671V168ZM225.757 162.19L224.385 162.022C224.376 161.938 224.371 161.817 224.371 161.658C224.371 160.846 224.656 160.155 225.225 159.586C225.795 159.007 226.555 158.718 227.507 158.718C228.45 158.718 229.197 158.989 229.747 159.53C230.298 160.062 230.573 160.72 230.573 161.504C230.573 162.652 230.004 163.585 228.865 164.304L227.073 165.452C226.429 165.863 226.061 166.287 225.967 166.726H230.629V168H224.273C224.292 167.235 224.465 166.563 224.791 165.984C225.127 165.405 225.673 164.873 226.429 164.388L227.941 163.408C228.772 162.876 229.187 162.246 229.187 161.518C229.187 161.07 229.038 160.692 228.739 160.384C228.441 160.076 228.021 159.922 227.479 159.922C226.91 159.922 226.476 160.095 226.177 160.44C225.879 160.785 225.729 161.233 225.729 161.784C225.729 161.868 225.739 162.003 225.757 162.19ZM234.049 160.524C233.517 161.084 233.251 162.064 233.251 163.464C233.251 164.864 233.517 165.844 234.049 166.404C234.423 166.796 234.903 166.992 235.491 166.992C236.079 166.992 236.56 166.796 236.933 166.404C237.465 165.844 237.731 164.864 237.731 163.464C237.731 162.064 237.465 161.084 236.933 160.524C236.56 160.132 236.079 159.936 235.491 159.936C234.903 159.936 234.423 160.132 234.049 160.524ZM232.705 166.754C232.164 165.951 231.893 164.855 231.893 163.464C231.893 162.073 232.164 160.977 232.705 160.174C233.349 159.203 234.278 158.718 235.491 158.718C236.705 158.718 237.633 159.203 238.277 160.174C238.819 160.977 239.089 162.073 239.089 163.464C239.089 164.855 238.819 165.951 238.277 166.754C237.633 167.725 236.705 168.21 235.491 168.21C234.278 168.21 233.349 167.725 232.705 166.754ZM240.492 167.79C240.306 167.603 240.212 167.375 240.212 167.104C240.212 166.833 240.306 166.605 240.492 166.418C240.679 166.222 240.908 166.124 241.178 166.124C241.449 166.124 241.678 166.222 241.864 166.418C242.06 166.605 242.158 166.833 242.158 167.104C242.158 167.375 242.06 167.603 241.864 167.79C241.678 167.977 241.449 168.07 241.178 168.07C240.908 168.07 240.679 167.977 240.492 167.79ZM245.725 160.524C245.193 161.084 244.927 162.064 244.927 163.464C244.927 164.864 245.193 165.844 245.725 166.404C246.098 166.796 246.579 166.992 247.167 166.992C247.755 166.992 248.236 166.796 248.609 166.404C249.141 165.844 249.407 164.864 249.407 163.464C249.407 162.064 249.141 161.084 248.609 160.524C248.236 160.132 247.755 159.936 247.167 159.936C246.579 159.936 246.098 160.132 245.725 160.524ZM244.381 166.754C243.84 165.951 243.569 164.855 243.569 163.464C243.569 162.073 243.84 160.977 244.381 160.174C245.025 159.203 245.954 158.718 247.167 158.718C248.38 158.718 249.309 159.203 249.953 160.174C250.494 160.977 250.765 162.073 250.765 163.464C250.765 164.855 250.494 165.951 249.953 166.754C249.309 167.725 248.38 168.21 247.167 168.21C245.954 168.21 245.025 167.725 244.381 166.754ZM254.256 160.524C253.724 161.084 253.458 162.064 253.458 163.464C253.458 164.864 253.724 165.844 254.256 166.404C254.63 166.796 255.11 166.992 255.698 166.992C256.286 166.992 256.767 166.796 257.14 166.404C257.672 165.844 257.938 164.864 257.938 163.464C257.938 162.064 257.672 161.084 257.14 160.524C256.767 160.132 256.286 159.936 255.698 159.936C255.11 159.936 254.63 160.132 254.256 160.524ZM252.912 166.754C252.371 165.951 252.1 164.855 252.1 163.464C252.1 162.073 252.371 160.977 252.912 160.174C253.556 159.203 254.485 158.718 255.698 158.718C256.912 158.718 257.84 159.203 258.484 160.174C259.026 160.977 259.296 162.073 259.296 163.464C259.296 164.855 259.026 165.951 258.484 166.754C257.84 167.725 256.912 168.21 255.698 168.21C254.485 168.21 253.556 167.725 252.912 166.754Z" fill="#292C3E"/>
<path d="M220.479 205.638H219.387V204.182C218.481 204.089 217.767 203.776 217.245 203.244C216.722 202.703 216.419 202.091 216.335 201.41L217.665 200.99C217.711 201.475 217.879 201.9 218.169 202.264C218.458 202.628 218.864 202.857 219.387 202.95V200.024L219.037 199.954C218.309 199.805 217.739 199.511 217.329 199.072C216.918 198.633 216.713 198.078 216.713 197.406C216.713 196.734 216.96 196.146 217.455 195.642C217.959 195.138 218.603 194.839 219.387 194.746V193.276H220.479V194.76C221.253 194.863 221.846 195.133 222.257 195.572C222.677 196.001 222.957 196.491 223.097 197.042L221.837 197.504C221.79 197.196 221.65 196.897 221.417 196.608C221.183 196.319 220.871 196.118 220.479 196.006V198.876L220.689 198.918C221.454 199.067 222.061 199.38 222.509 199.856C222.957 200.332 223.181 200.887 223.181 201.522C223.181 202.185 222.943 202.768 222.467 203.272C221.991 203.776 221.328 204.079 220.479 204.182V205.638ZM221.809 201.592C221.809 201.284 221.697 201.009 221.473 200.766C221.249 200.523 220.917 200.351 220.479 200.248V202.95C220.917 202.866 221.249 202.703 221.473 202.46C221.697 202.217 221.809 201.928 221.809 201.592ZM218.099 197.35C218.099 198.031 218.528 198.456 219.387 198.624V195.964C218.985 196.039 218.668 196.202 218.435 196.454C218.211 196.706 218.099 197.005 218.099 197.35ZM227.744 198.792C228.23 198.783 228.631 198.643 228.948 198.372C229.266 198.101 229.424 197.747 229.424 197.308C229.424 196.897 229.27 196.552 228.962 196.272C228.654 195.992 228.248 195.852 227.744 195.852C227.24 195.852 226.834 195.992 226.526 196.272C226.218 196.552 226.064 196.897 226.064 197.308C226.064 197.747 226.223 198.101 226.54 198.372C226.858 198.643 227.259 198.783 227.744 198.792ZM226.344 202.586C226.69 202.875 227.156 203.02 227.744 203.02C228.332 203.02 228.794 202.875 229.13 202.586C229.476 202.297 229.648 201.933 229.648 201.494C229.648 201.046 229.476 200.677 229.13 200.388C228.794 200.089 228.332 199.94 227.744 199.94C227.156 199.94 226.69 200.089 226.344 200.388C226.008 200.677 225.84 201.046 225.84 201.494C225.84 201.933 226.008 202.297 226.344 202.586ZM230.152 203.482C229.564 203.967 228.762 204.21 227.744 204.21C226.727 204.21 225.924 203.967 225.336 203.482C224.748 202.987 224.454 202.362 224.454 201.606C224.454 201.074 224.613 200.612 224.93 200.22C225.257 199.819 225.672 199.534 226.176 199.366C225.747 199.207 225.392 198.937 225.112 198.554C224.832 198.162 224.692 197.723 224.692 197.238C224.692 196.501 224.982 195.899 225.56 195.432C226.139 194.956 226.867 194.718 227.744 194.718C228.622 194.718 229.35 194.956 229.928 195.432C230.507 195.899 230.796 196.501 230.796 197.238C230.796 197.714 230.656 198.148 230.376 198.54C230.096 198.932 229.742 199.207 229.312 199.366C229.816 199.525 230.227 199.805 230.544 200.206C230.871 200.607 231.034 201.074 231.034 201.606C231.034 202.362 230.74 202.987 230.152 203.482ZM232.456 203.678L232.904 202.544C233.38 202.833 233.931 202.978 234.556 202.978C235.592 202.978 236.367 202.684 236.88 202.096C237.403 201.499 237.678 200.719 237.706 199.758C237.529 200.085 237.235 200.36 236.824 200.584C236.423 200.808 235.933 200.92 235.354 200.92C234.514 200.92 233.782 200.649 233.156 200.108C232.531 199.557 232.218 198.806 232.218 197.854C232.218 196.939 232.545 196.188 233.198 195.6C233.861 195.012 234.65 194.718 235.564 194.718C236.535 194.718 237.366 195.073 238.056 195.782C238.747 196.491 239.092 197.527 239.092 198.89C239.092 200.589 238.71 201.9 237.944 202.824C237.188 203.748 236.059 204.21 234.556 204.21C234.202 204.21 233.819 204.159 233.408 204.056C232.998 203.953 232.68 203.827 232.456 203.678ZM237.524 197.826C237.524 197.266 237.328 196.809 236.936 196.454C236.544 196.099 236.087 195.922 235.564 195.922C235.032 195.922 234.57 196.099 234.178 196.454C233.796 196.799 233.604 197.257 233.604 197.826C233.604 198.414 233.796 198.881 234.178 199.226C234.561 199.571 235.023 199.744 235.564 199.744C236.096 199.744 236.554 199.571 236.936 199.226C237.328 198.871 237.524 198.405 237.524 197.826ZM240.492 203.79C240.306 203.603 240.212 203.375 240.212 203.104C240.212 202.833 240.306 202.605 240.492 202.418C240.679 202.222 240.908 202.124 241.178 202.124C241.449 202.124 241.678 202.222 241.864 202.418C242.06 202.605 242.158 202.833 242.158 203.104C242.158 203.375 242.06 203.603 241.864 203.79C241.678 203.977 241.449 204.07 241.178 204.07C240.908 204.07 240.679 203.977 240.492 203.79ZM245.725 196.524C245.193 197.084 244.927 198.064 244.927 199.464C244.927 200.864 245.193 201.844 245.725 202.404C246.098 202.796 246.579 202.992 247.167 202.992C247.755 202.992 248.236 202.796 248.609 202.404C249.141 201.844 249.407 200.864 249.407 199.464C249.407 198.064 249.141 197.084 248.609 196.524C248.236 196.132 247.755 195.936 247.167 195.936C246.579 195.936 246.098 196.132 245.725 196.524ZM244.381 202.754C243.84 201.951 243.569 200.855 243.569 199.464C243.569 198.073 243.84 196.977 244.381 196.174C245.025 195.203 245.954 194.718 247.167 194.718C248.38 194.718 249.309 195.203 249.953 196.174C250.494 196.977 250.765 198.073 250.765 199.464C250.765 200.855 250.494 201.951 249.953 202.754C249.309 203.725 248.38 204.21 247.167 204.21C245.954 204.21 245.025 203.725 244.381 202.754ZM254.256 196.524C253.724 197.084 253.458 198.064 253.458 199.464C253.458 200.864 253.724 201.844 254.256 202.404C254.63 202.796 255.11 202.992 255.698 202.992C256.286 202.992 256.767 202.796 257.14 202.404C257.672 201.844 257.938 200.864 257.938 199.464C257.938 198.064 257.672 197.084 257.14 196.524C256.767 196.132 256.286 195.936 255.698 195.936C255.11 195.936 254.63 196.132 254.256 196.524ZM252.912 202.754C252.371 201.951 252.1 200.855 252.1 199.464C252.1 198.073 252.371 196.977 252.912 196.174C253.556 195.203 254.485 194.718 255.698 194.718C256.912 194.718 257.84 195.203 258.484 196.174C259.026 196.977 259.296 198.073 259.296 199.464C259.296 200.855 259.026 201.951 258.484 202.754C257.84 203.725 256.912 204.21 255.698 204.21C254.485 204.21 253.556 203.725 252.912 202.754Z" fill="#292C3E"/>
<path d="M204.711 258.872H203.239V257.192C202.204 257.064 201.394 256.685 200.807 256.056C200.22 255.427 199.884 254.728 199.799 253.96L201.591 253.464C201.634 253.965 201.794 254.408 202.071 254.792C202.348 255.165 202.738 255.411 203.239 255.528V252.584L202.951 252.52C202.087 252.328 201.41 251.981 200.919 251.48C200.439 250.979 200.199 250.344 200.199 249.576C200.199 248.787 200.482 248.099 201.047 247.512C201.623 246.915 202.354 246.557 203.239 246.44V244.744H204.711V246.456C205.575 246.595 206.242 246.92 206.711 247.432C207.191 247.933 207.495 248.499 207.623 249.128L205.895 249.672C205.767 248.915 205.372 248.408 204.711 248.152V251.016L204.855 251.048C205.783 251.251 206.492 251.624 206.983 252.168C207.484 252.712 207.735 253.352 207.735 254.088C207.735 254.845 207.468 255.517 206.935 256.104C206.402 256.691 205.66 257.048 204.711 257.176V258.872ZM202.071 249.464C202.071 249.763 202.167 250.029 202.359 250.264C202.562 250.488 202.855 250.637 203.239 250.712V248.088C202.866 248.184 202.578 248.36 202.375 248.616C202.172 248.861 202.071 249.144 202.071 249.464ZM205.879 254.184C205.879 253.544 205.49 253.117 204.711 252.904V255.528C205.095 255.453 205.383 255.293 205.575 255.048C205.778 254.792 205.879 254.504 205.879 254.184ZM211.957 252.296L211.077 250.872L213.941 248.312H209.221V246.632H216.421V248.232L213.605 250.696C214.437 250.717 215.162 251.011 215.781 251.576C216.4 252.141 216.709 252.899 216.709 253.848C216.709 254.787 216.357 255.587 215.653 256.248C214.949 256.909 214.005 257.24 212.821 257.24C211.669 257.24 210.736 256.925 210.021 256.296C209.317 255.656 208.933 254.877 208.869 253.96L210.741 253.576C210.762 254.173 210.965 254.659 211.349 255.032C211.744 255.405 212.229 255.592 212.805 255.592C213.413 255.592 213.893 255.421 214.245 255.08C214.597 254.739 214.773 254.323 214.773 253.832C214.773 253.277 214.586 252.856 214.213 252.568C213.85 252.269 213.424 252.12 212.933 252.12C212.517 252.12 212.192 252.179 211.957 252.296ZM219.858 251.816C219.858 253.16 220.104 254.147 220.594 254.776C220.978 255.288 221.512 255.544 222.194 255.544C222.856 255.544 223.389 255.288 223.794 254.776C224.274 254.157 224.514 253.171 224.514 251.816C224.514 250.461 224.274 249.475 223.794 248.856C223.389 248.344 222.856 248.088 222.194 248.088C221.512 248.088 220.978 248.344 220.594 248.856C220.104 249.464 219.858 250.451 219.858 251.816ZM218.882 255.544C218.264 254.616 217.954 253.373 217.954 251.816C217.954 250.259 218.264 249.016 218.882 248.088C219.64 246.957 220.744 246.392 222.194 246.392C223.634 246.392 224.733 246.957 225.49 248.088C226.109 249.016 226.418 250.259 226.418 251.816C226.418 253.373 226.109 254.616 225.49 255.544C224.733 256.675 223.634 257.24 222.194 257.24C220.744 257.24 219.64 256.675 218.882 255.544ZM228.021 256.648L228.549 255.08C229.05 255.4 229.669 255.56 230.405 255.56C231.471 255.56 232.298 255.267 232.885 254.68C233.471 254.093 233.791 253.299 233.845 252.296C233.642 252.648 233.317 252.936 232.869 253.16C232.431 253.384 231.914 253.496 231.317 253.496C230.335 253.496 229.493 253.181 228.789 252.552C228.085 251.912 227.733 251.064 227.733 250.008C227.733 248.952 228.106 248.088 228.853 247.416C229.599 246.733 230.527 246.392 231.637 246.392C232.799 246.392 233.77 246.808 234.549 247.64C235.338 248.472 235.733 249.672 235.733 251.24C235.733 253.149 235.279 254.627 234.373 255.672C233.477 256.717 232.159 257.24 230.421 257.24C229.994 257.24 229.551 257.181 229.093 257.064C228.634 256.957 228.277 256.819 228.021 256.648ZM233.589 249.944C233.589 249.389 233.391 248.931 232.997 248.568C232.602 248.205 232.138 248.024 231.605 248.024C231.061 248.024 230.591 248.205 230.197 248.568C229.813 248.92 229.621 249.379 229.621 249.944C229.621 250.531 229.813 251 230.197 251.352C230.581 251.704 231.05 251.88 231.605 251.88C232.149 251.88 232.613 251.704 232.997 251.352C233.391 250.989 233.589 250.52 233.589 249.944ZM237.253 256.728C237.007 256.472 236.885 256.163 236.885 255.8C236.885 255.437 237.007 255.128 237.253 254.872C237.509 254.616 237.818 254.488 238.181 254.488C238.543 254.488 238.853 254.616 239.109 254.872C239.365 255.128 239.493 255.437 239.493 255.8C239.493 256.163 239.365 256.472 239.109 256.728C238.853 256.973 238.543 257.096 238.181 257.096C237.818 257.096 237.509 256.973 237.253 256.728ZM242.858 251.816C242.858 253.16 243.104 254.147 243.594 254.776C243.978 255.288 244.512 255.544 245.194 255.544C245.856 255.544 246.389 255.288 246.794 254.776C247.274 254.157 247.514 253.171 247.514 251.816C247.514 250.461 247.274 249.475 246.794 248.856C246.389 248.344 245.856 248.088 245.194 248.088C244.512 248.088 243.978 248.344 243.594 248.856C243.104 249.464 242.858 250.451 242.858 251.816ZM241.882 255.544C241.264 254.616 240.954 253.373 240.954 251.816C240.954 250.259 241.264 249.016 241.882 248.088C242.64 246.957 243.744 246.392 245.194 246.392C246.634 246.392 247.733 246.957 248.49 248.088C249.109 249.016 249.418 250.259 249.418 251.816C249.418 253.373 249.109 254.616 248.49 255.544C247.733 256.675 246.634 257.24 245.194 257.24C243.744 257.24 242.64 256.675 241.882 255.544ZM252.718 251.816C252.718 253.16 252.963 254.147 253.454 254.776C253.838 255.288 254.371 255.544 255.054 255.544C255.715 255.544 256.248 255.288 256.654 254.776C257.134 254.157 257.374 253.171 257.374 251.816C257.374 250.461 257.134 249.475 256.654 248.856C256.248 248.344 255.715 248.088 255.054 248.088C254.371 248.088 253.838 248.344 253.454 248.856C252.963 249.464 252.718 250.451 252.718 251.816ZM251.742 255.544C251.123 254.616 250.814 253.373 250.814 251.816C250.814 250.259 251.123 249.016 251.742 248.088C252.499 246.957 253.603 246.392 255.054 246.392C256.494 246.392 257.592 246.957 258.35 248.088C258.968 249.016 259.278 250.259 259.278 251.816C259.278 253.373 258.968 254.616 258.35 255.544C257.592 256.675 256.494 257.24 255.054 257.24C253.603 257.24 252.499 256.675 251.742 255.544Z" fill="#292C3E"/>
<rect x="185" y="24" width="75" height="28" rx="14" fill="#EE5F56"/>
<path d="M199.632 37.708H201.62C202.208 37.708 202.675 37.5587 203.02 37.26C203.365 36.952 203.538 36.5413 203.538 36.028C203.538 35.5053 203.365 35.09 203.02 34.782C202.675 34.4647 202.208 34.306 201.62 34.306H199.632V37.708ZM201.872 38.94H199.632V43H198.26V33.074H201.872C202.777 33.074 203.515 33.354 204.084 33.914C204.653 34.474 204.938 35.174 204.938 36.014C204.938 36.8633 204.653 37.5633 204.084 38.114C203.515 38.6647 202.777 38.94 201.872 38.94ZM206.767 38.94H210.449C210.43 38.436 210.262 38.0253 209.945 37.708C209.628 37.3813 209.18 37.218 208.601 37.218C208.078 37.218 207.649 37.3907 207.313 37.736C206.977 38.072 206.795 38.4733 206.767 38.94ZM210.645 40.69L211.779 41.082C211.583 41.7073 211.219 42.2207 210.687 42.622C210.155 43.014 209.511 43.21 208.755 43.21C207.812 43.21 207.01 42.888 206.347 42.244C205.694 41.5907 205.367 40.7133 205.367 39.612C205.367 38.5853 205.684 37.736 206.319 37.064C206.954 36.392 207.71 36.056 208.587 36.056C209.604 36.056 210.398 36.378 210.967 37.022C211.536 37.6567 211.821 38.5107 211.821 39.584C211.821 39.752 211.812 39.892 211.793 40.004H206.725C206.734 40.6013 206.93 41.0913 207.313 41.474C207.705 41.8567 208.186 42.048 208.755 42.048C209.716 42.048 210.346 41.5953 210.645 40.69ZM214.817 39.108V43H213.501V36.266H214.789V37.232C215.237 36.4573 215.928 36.07 216.861 36.07C217.636 36.07 218.228 36.3173 218.639 36.812C219.059 37.3067 219.269 37.946 219.269 38.73V43H217.953V38.954C217.953 37.8247 217.43 37.26 216.385 37.26C215.89 37.26 215.503 37.4373 215.223 37.792C214.952 38.1373 214.817 38.576 214.817 39.108ZM222.146 39.612C222.146 40.3213 222.319 40.9 222.664 41.348C223.019 41.796 223.504 42.02 224.12 42.02C224.708 42.02 225.18 41.7913 225.534 41.334C225.889 40.8767 226.066 40.2933 226.066 39.584C226.066 38.884 225.894 38.3193 225.548 37.89C225.203 37.4607 224.732 37.246 224.134 37.246C223.537 37.246 223.056 37.4653 222.692 37.904C222.328 38.3427 222.146 38.912 222.146 39.612ZM226.08 42.09V41.978C225.903 42.3233 225.632 42.6127 225.268 42.846C224.914 43.07 224.489 43.182 223.994 43.182C223.033 43.182 222.258 42.846 221.67 42.174C221.092 41.4927 220.802 40.6387 220.802 39.612C220.802 38.632 221.101 37.8013 221.698 37.12C222.296 36.4293 223.061 36.084 223.994 36.084C224.545 36.084 224.993 36.196 225.338 36.42C225.684 36.6347 225.922 36.9007 226.052 37.218V32.864H227.354V41.754C227.354 42.2113 227.378 42.6267 227.424 43H226.15C226.104 42.7387 226.08 42.4353 226.08 42.09ZM230.895 43H229.593V36.266H230.895V43ZM229.565 34.39C229.387 34.2033 229.299 33.9793 229.299 33.718C229.299 33.4567 229.387 33.2327 229.565 33.046C229.751 32.8593 229.975 32.766 230.237 32.766C230.498 32.766 230.722 32.8593 230.909 33.046C231.095 33.2233 231.189 33.4473 231.189 33.718C231.189 33.9793 231.095 34.2033 230.909 34.39C230.722 34.5673 230.498 34.656 230.237 34.656C229.975 34.656 229.751 34.5673 229.565 34.39ZM234.45 39.108V43H233.134V36.266H234.422V37.232C234.87 36.4573 235.56 36.07 236.494 36.07C237.268 36.07 237.861 36.3173 238.272 36.812C238.692 37.3067 238.902 37.946 238.902 38.73V43H237.586V38.954C237.586 37.8247 237.063 37.26 236.018 37.26C235.523 37.26 235.136 37.4373 234.856 37.792C234.585 38.1373 234.45 38.576 234.45 39.108ZM240.505 43.364L241.779 43.07C241.826 43.546 242.017 43.938 242.353 44.246C242.689 44.5633 243.109 44.722 243.613 44.722C244.985 44.722 245.671 43.994 245.671 42.538V41.572C245.503 41.8987 245.237 42.1647 244.873 42.37C244.518 42.5753 244.098 42.678 243.613 42.678C242.717 42.678 241.975 42.3747 241.387 41.768C240.808 41.152 240.519 40.368 240.519 39.416C240.519 38.492 240.808 37.7173 241.387 37.092C241.966 36.4573 242.708 36.14 243.613 36.14C244.64 36.14 245.33 36.4947 245.685 37.204V36.266H246.987V42.496C246.987 42.944 246.926 43.3593 246.805 43.742C246.693 44.134 246.511 44.4933 246.259 44.82C246.007 45.1467 245.652 45.4033 245.195 45.59C244.747 45.7767 244.22 45.87 243.613 45.87C242.782 45.87 242.078 45.632 241.499 45.156C240.92 44.6893 240.589 44.092 240.505 43.364ZM243.809 41.572C244.378 41.572 244.84 41.376 245.195 40.984C245.55 40.5827 245.727 40.06 245.727 39.416C245.727 38.772 245.55 38.254 245.195 37.862C244.84 37.4607 244.378 37.26 243.809 37.26C243.23 37.26 242.759 37.456 242.395 37.848C242.04 38.24 241.863 38.7627 241.863 39.416C241.863 40.0787 242.036 40.606 242.381 40.998C242.736 41.3807 243.212 41.572 243.809 41.572Z" fill="white"/>
</svg>
