<svg width="24" height="8" viewBox="0 0 24 8" fill="none" xmlns="http://www.w3.org/2000/svg">
<path d="M10.4002 7.6552H8.45605L9.67208 0.13623H11.6161L10.4002 7.6552Z" fill="#00579F"/>
<path d="M17.4477 0.320112C17.0642 0.167977 16.456 0 15.7039 0C13.784 0 12.432 1.02381 12.4237 2.48754C12.4078 3.56748 13.3917 4.1673 14.1276 4.52739C14.8798 4.89534 15.1355 5.13551 15.1355 5.46349C15.1278 5.96721 14.5277 6.1994 13.9679 6.1994C13.1917 6.1994 12.7758 6.07969 12.1438 5.79944L11.8878 5.67931L11.6157 7.36715C12.0717 7.57489 12.9118 7.75924 13.784 7.76732C15.824 7.76732 17.152 6.75935 17.1678 5.19951C17.1755 4.34357 16.656 3.68772 15.5359 3.15179C14.8559 2.80776 14.4394 2.57578 14.4394 2.22377C14.4474 1.90377 14.7917 1.576 15.5592 1.576C16.1913 1.55995 16.6557 1.71187 17.0075 1.8639L17.1833 1.94374L17.4477 0.320112Z" fill="#00579F"/>
<path d="M20.0319 4.9915C20.192 4.55954 20.8081 2.88775 20.8081 2.88775C20.8 2.9038 20.9679 2.44782 21.0639 2.1679L21.1997 2.81577C21.1997 2.81577 21.5679 4.61557 21.6478 4.9915C21.344 4.9915 20.4159 4.9915 20.0319 4.9915ZM22.4317 0.13623H20.9279C20.4641 0.13623 20.1118 0.2721 19.9117 0.760082L17.0239 7.65509H19.0639C19.0639 7.65509 19.3997 6.72708 19.4719 6.5272C19.6957 6.5272 21.6802 6.5272 21.9681 6.5272C22.0239 6.79118 22.2 7.65509 22.2 7.65509H24.0002L22.4317 0.13623Z" fill="#00579F"/>
<path d="M6.83172 0.13623L4.92774 5.26345L4.71968 4.22359C4.36767 3.02372 3.26371 1.7201 2.03174 1.0719L3.77572 7.64722H5.83162L8.88752 0.13623H6.83172Z" fill="#00579F"/>
<path d="M3.15998 0.13623H0.0320004L0 0.288153C2.44002 0.912112 4.05599 2.41614 4.71993 4.22391L4.03994 0.768269C3.92799 0.288047 3.58396 0.152071 3.15998 0.13623Z" fill="#FAA61A"/>
</svg>
